<svg width="41" height="41" viewBox="0 0 41 41" fill="none" xmlns="http://www.w3.org/2000/svg">
<rect x="1.21436" y="0.563965" width="39" height="39" rx="7.5" fill="#6608C1" fill-opacity="0.3" stroke="#6608C1"/>
<g clip-path="url(#clip0_342_49001)">
<path fill-rule="evenodd" clip-rule="evenodd" d="M10.038 8.06396H31.3896C32.1209 8.06378 32.714 8.65649 32.7144 9.38763V30.7392V30.7397C32.7142 31.4713 32.1211 32.0641 31.3896 32.064H25.2847V22.7827H28.4136L28.8823 19.1499H25.2847V16.8362C25.2847 15.7868 25.576 15.0718 27.0807 15.0718H28.9878V11.8314C28.656 11.7872 27.5176 11.6886 26.1931 11.6886C23.4274 11.6886 21.5347 13.3761 21.5347 16.4764V19.1499H18.4175V22.7827H21.5347V32.064H10.0391C9.3078 32.0641 8.71472 31.4714 8.71436 30.7403V9.38873C8.71417 8.65741 9.30688 8.06433 10.038 8.06396Z" fill="#FCFCFC"/>
</g>
<defs>
<clipPath id="clip0_342_49001">
<rect width="24" height="24" fill="white" transform="translate(8.71436 8.06396)"/>
</clipPath>
</defs>
</svg>
