<svg width="41" height="41" viewBox="0 0 41 41" fill="none" xmlns="http://www.w3.org/2000/svg">
<rect x="1.21436" y="0.563965" width="39" height="39" rx="7.5" fill="#6608C1" fill-opacity="0.3" stroke="#6608C1"/>
<g clip-path="url(#clip0_342_49000)">
<path d="M25.2144 8.06396H16.2144C12.0729 8.06396 8.71436 11.4225 8.71436 15.564V24.564C8.71436 28.7055 12.0729 32.064 16.2144 32.064H25.2144C29.3559 32.064 32.7144 28.7055 32.7144 24.564V15.564C32.7144 11.4225 29.3559 8.06396 25.2144 8.06396ZM30.4644 24.564C30.4644 27.459 28.1094 29.814 25.2144 29.814H16.2144C13.3194 29.814 10.9644 27.459 10.9644 24.564V15.564C10.9644 12.669 13.3194 10.314 16.2144 10.314H25.2144C28.1094 10.314 30.4644 12.669 30.4644 15.564V24.564Z" fill="#FCFCFC"/>
<path d="M20.7144 14.064C17.4009 14.064 14.7144 16.7505 14.7144 20.064C14.7144 23.3775 17.4009 26.064 20.7144 26.064C24.0279 26.064 26.7144 23.3775 26.7144 20.064C26.7144 16.7505 24.0279 14.064 20.7144 14.064ZM20.7144 23.814C18.6474 23.814 16.9644 22.131 16.9644 20.064C16.9644 17.9955 18.6474 16.314 20.7144 16.314C22.7814 16.314 24.4644 17.9955 24.4644 20.064C24.4644 22.131 22.7814 23.814 20.7144 23.814Z" fill="#FCFCFC"/>
<path d="M27.1647 14.4135C27.6063 14.4135 27.9642 14.0555 27.9642 13.614C27.9642 13.1724 27.6063 12.8145 27.1647 12.8145C26.7232 12.8145 26.3652 13.1724 26.3652 13.614C26.3652 14.0555 26.7232 14.4135 27.1647 14.4135Z" fill="#FCFCFC"/>
</g>
<defs>
<clipPath id="clip0_342_49000">
<rect width="24" height="24" fill="white" transform="translate(8.71436 8.06396)"/>
</clipPath>
</defs>
</svg>
