<svg width="41" height="41" viewBox="0 0 41 41" fill="none" xmlns="http://www.w3.org/2000/svg">
<rect x="1.21436" y="0.563965" width="39" height="39" rx="7.5" fill="#6608C1" fill-opacity="0.3" stroke="#6608C1"/>
<g clip-path="url(#clip0_342_49004)">
<path fill-rule="evenodd" clip-rule="evenodd" d="M32.7144 20.064C32.7144 26.6914 27.3418 32.064 20.7144 32.064C14.0869 32.064 8.71436 26.6914 8.71436 20.064C8.71436 13.4365 14.0869 8.06396 20.7144 8.06396C27.3418 8.06396 32.7144 13.4365 32.7144 20.064ZM25.7746 15.3437L14.2046 19.8047C13.4116 20.1147 13.4256 20.5537 14.0686 20.7577L17.0306 21.6817L23.9016 17.3557C24.2206 17.1437 24.5166 17.2637 24.2746 17.4767L18.7146 22.4997L18.5016 25.5527C18.8116 25.5527 18.9466 25.4177 19.1066 25.2577L20.5536 23.8637L23.5536 26.0747C24.1006 26.3847 24.4916 26.2247 24.6376 25.5667L26.6076 16.2857L26.6066 16.2867C26.7806 15.4747 26.3116 15.1497 25.7746 15.3437Z" fill="#FCFCFC"/>
</g>
<defs>
<clipPath id="clip0_342_49004">
<rect width="24" height="24" fill="white" transform="translate(8.71436 8.06396)"/>
</clipPath>
</defs>
</svg>
