<svg width="41" height="41" viewBox="0 0 41 41" fill="none" xmlns="http://www.w3.org/2000/svg">
<rect x="1.21436" y="0.563965" width="39" height="39" rx="7.5" fill="#6608C1" fill-opacity="0.3" stroke="#6608C1"/>
<g clip-path="url(#clip0_342_49002)">
<path d="M32.7144 12.8493C31.8219 13.2539 30.8709 13.522 29.8794 13.6522C30.8994 13.0229 31.6779 12.034 32.0439 10.8421C31.0929 11.428 30.0429 11.8418 28.9239 12.0728C28.0209 11.0792 26.7339 10.4639 25.3299 10.4639C22.6059 10.4639 20.4129 12.7486 20.4129 15.5494C20.4129 15.9524 20.4459 16.3399 20.5269 16.7088C16.4364 16.5027 12.8169 14.4768 10.3854 11.3908C9.96086 12.1518 9.71186 13.0229 9.71186 13.9607C9.71186 15.7215 10.5894 17.2823 11.8974 18.186C11.1069 18.1705 10.3314 17.9333 9.67436 17.5598C9.67436 17.5753 9.67436 17.5954 9.67436 17.6156C9.67436 20.0863 11.3799 22.1385 13.6164 22.6112C13.2159 22.7244 12.7794 22.7786 12.3264 22.7786C12.0114 22.7786 11.6934 22.76 11.3949 22.6918C12.0324 24.7053 13.8414 26.1855 15.9924 26.2336C14.3184 27.5867 12.1929 28.402 9.89186 28.402C9.48836 28.402 9.10136 28.3834 8.71436 28.3323C10.8939 29.7846 13.4769 30.6139 16.2624 30.6139C25.3164 30.6139 30.2664 22.8639 30.2664 16.1462C30.2664 15.9214 30.2589 15.7044 30.2484 15.489C31.2249 14.7729 32.0454 13.8785 32.7144 12.8493Z" fill="#FCFCFC"/>
</g>
<defs>
<clipPath id="clip0_342_49002">
<rect width="24" height="24" fill="white" transform="translate(8.71436 8.06396)"/>
</clipPath>
</defs>
</svg>
