<svg width="41" height="40" viewBox="0 0 41 40" fill="none" xmlns="http://www.w3.org/2000/svg">
<rect x="28.75" width="12" height="12" rx="6" fill="#10C900"/>
<g clip-path="url(#clip0_902_92920)">
<path d="M29.75 26.0233C29.75 26.5113 29.3543 26.907 28.8663 26.907H12.6337C12.1457 26.907 11.75 26.5113 11.75 26.0233V26.0233C11.75 25.5352 12.1457 25.1395 12.6337 25.1395H12.65V18.9809C12.65 14.5729 16.277 11 20.75 11C25.223 11 28.85 14.5729 28.85 18.9809V25.1395H28.8663C29.3543 25.1395 29.75 25.5352 29.75 26.0233V26.0233ZM14.45 25.1395H27.05V18.9809C27.05 15.5494 24.2294 12.7674 20.75 12.7674C17.2706 12.7674 14.45 15.5494 14.45 18.9809V25.1395ZM18.726 28.7558C18.4812 28.2608 18.9477 27.7907 19.5 27.7907H22C22.5523 27.7907 23.0188 28.2608 22.774 28.7558C22.6655 28.9751 22.5199 29.1773 22.341 29.3529C21.919 29.7672 21.3467 30 20.75 30C20.1533 30 19.581 29.7672 19.159 29.3529C18.9801 29.1773 18.8345 28.9751 18.726 28.7558Z" fill="#777E91"/>
</g>
<defs>
<clipPath id="clip0_902_92920">
<rect width="24" height="24" fill="white" transform="translate(8.75 8)"/>
</clipPath>
</defs>
</svg>
