<svg width="41" height="41" viewBox="0 0 41 41" fill="none" xmlns="http://www.w3.org/2000/svg">
<rect x="1.21436" y="0.563965" width="39" height="39" rx="7.5" fill="#6608C1" fill-opacity="0.3" stroke="#6608C1"/>
<g clip-path="url(#clip0_342_49005)">
<g clip-path="url(#clip1_342_49005)">
<path d="M17.858 19.3188V19.311C16.961 19.311 16.2371 20.0526 16.2371 20.964C16.2371 21.8755 16.961 22.6171 17.858 22.6171C18.755 22.6171 19.479 21.8755 19.479 20.9718C19.479 20.0602 18.7472 19.3188 17.858 19.3188Z" fill="#FCFCFC"/>
<path d="M20.7144 8.34521C14.2423 8.34521 8.99561 13.5919 8.99561 20.064C8.99561 26.536 14.2423 31.7827 20.7144 31.7827C27.1864 31.7827 32.4331 26.536 32.4331 20.064C32.4331 13.5919 27.1864 8.34521 20.7144 8.34521ZM25.05 26.2473C25.05 26.2473 24.4597 25.5905 24.0349 25.0114C26.0808 24.4321 26.8521 23.2734 26.8521 23.2734C24.725 24.5886 22.7384 25.0946 20.7144 25.0289C18.6903 25.0945 16.7037 24.5886 14.5768 23.2734C14.5768 23.2734 15.3479 24.4321 17.394 25.0114C16.9691 25.5907 16.379 26.2473 16.379 26.2473C12.8693 26.17 11.5081 24.0227 11.4294 24.1154C11.4294 19.3341 13.7506 15.441 13.7506 15.441C15.8279 13.9503 17.7636 13.8884 18.1334 13.8806L18.3695 14.1047C15.7178 14.8462 14.4352 16.0048 14.4352 16.0048C16.7111 14.9056 18.8562 14.5189 20.7144 14.4957C22.5726 14.5192 24.7175 14.9056 26.9935 16.0048C26.9935 16.0048 25.7109 14.8462 23.0592 14.1047L23.2953 13.8806C23.6651 13.8884 25.6008 13.9502 27.6781 15.441C27.6781 15.441 29.9993 19.334 29.9993 24.1154C29.9206 24.0227 28.5594 26.17 25.05 26.2473Z" fill="#FCFCFC"/>
<path d="M23.5707 19.311V19.3188C22.6815 19.3188 21.9497 20.0603 21.9497 20.9718C21.9497 21.8755 22.6737 22.6171 23.5707 22.6171C24.4677 22.6171 25.1916 21.8755 25.1916 20.964C25.1916 20.0526 24.4677 19.311 23.5707 19.311Z" fill="#FCFCFC"/>
</g>
</g>
<defs>
<clipPath id="clip0_342_49005">
<rect width="24" height="24" fill="white" transform="translate(8.71436 8.06396)"/>
</clipPath>
<clipPath id="clip1_342_49005">
<rect width="24" height="24" fill="white" transform="translate(8.71436 8.06396)"/>
</clipPath>
</defs>
</svg>
