<svg width="41" height="41" viewBox="0 0 41 41" fill="none" xmlns="http://www.w3.org/2000/svg">
<rect x="1.21436" y="0.563965" width="39" height="39" rx="7.5" fill="#6608C1" fill-opacity="0.3" stroke="#6608C1"/>
<g clip-path="url(#clip0_342_49003)">
<path fill-rule="evenodd" clip-rule="evenodd" d="M32.7144 20.064C32.7144 26.6914 27.3418 32.064 20.7144 32.064C14.0869 32.064 8.71436 26.6914 8.71436 20.064C8.71436 13.4365 14.0869 8.06396 20.7144 8.06396C27.3418 8.06396 32.7144 13.4365 32.7144 20.064ZM29.1808 20.3383C29.1808 19.1732 28.2365 18.2289 27.0714 18.2289C26.6067 18.2289 26.1773 18.3796 25.8287 18.6342C24.663 17.7807 23.1301 17.2162 21.4286 17.0917L21.8509 14.7133H23.6863C23.9297 15.1335 24.3836 15.4164 24.9042 15.4164C25.6807 15.4164 26.3104 14.7869 26.3104 14.0102C26.3104 13.2335 25.6807 12.6039 24.9042 12.6039C24.3836 12.6039 23.9297 12.8868 23.6863 13.3071H20.7144L20.714 13.3104V13.3071L19.988 17.0926C18.2911 17.2188 16.7628 17.7827 15.5997 18.6342C15.251 18.3796 14.8217 18.2289 14.3569 18.2289C13.1918 18.2289 12.2476 19.1734 12.2476 20.3383C12.2476 21.1427 12.6976 21.8416 13.3597 22.1974C13.3412 22.36 13.3312 22.5244 13.3312 22.6907C13.3312 25.7972 16.6366 28.3157 20.714 28.3157V28.3152L20.7144 28.3155C24.7917 28.3155 28.0972 25.7972 28.0972 22.6905C28.0972 22.5244 28.0871 22.36 28.0686 22.1974C28.7307 21.8416 29.1808 21.1425 29.1808 20.3383ZM20.714 26.2064L20.7144 26.2061C21.7017 26.2056 22.6509 25.9926 23.4597 25.5898L22.8329 24.3309C22.2266 24.6329 21.4744 24.7993 20.7144 24.7999L20.714 24.7987V24.7999H20.7103C19.9305 24.7999 19.1618 24.6254 18.5457 24.3086L17.9024 25.559C18.7255 25.9824 19.6965 26.2061 20.7103 26.2061H20.714V26.2064ZM23.4979 23.1508C22.7212 23.1508 22.0917 22.5213 22.0917 21.7446C22.0917 20.9678 22.7212 20.3383 23.4979 20.3383C24.2745 20.3383 24.9042 20.9678 24.9042 21.7446C24.9042 22.5213 24.2745 23.1508 23.4979 23.1508ZM17.8726 20.3383C17.0958 20.3383 16.4663 20.9678 16.4663 21.7446C16.4663 22.5213 17.0958 23.1508 17.8726 23.1508C18.6491 23.1508 19.2788 22.5213 19.2788 21.7446C19.2788 20.9678 18.6491 20.3383 17.8726 20.3383Z" fill="#FCFCFC"/>
</g>
<defs>
<clipPath id="clip0_342_49003">
<rect width="24" height="24" fill="white" transform="translate(8.71436 8.06396)"/>
</clipPath>
</defs>
</svg>
