<svg width="1250" height="646" viewBox="0 0 1250 646" fill="none" xmlns="http://www.w3.org/2000/svg">
<path d="M602.508 553.977H220.492C219.509 552.91 218.96 552.315 218 551.273V530.681C218.983 529.614 219.532 529.019 220.492 527.977H602.508C603.491 529.044 604.04 529.639 605 530.681V551.273C604.04 552.339 603.491 552.935 602.508 553.977Z" fill="url(#paint0_linear_1029_86741)"/>
<path d="M1030.21 557.977H217.789C216.305 556.347 215.484 555.444 214 553.815V528.139C215.484 526.509 216.305 525.607 217.789 523.977H1030.21C1031.69 525.607 1032.52 526.509 1034 528.139V553.815C1032.52 555.419 1031.69 556.347 1030.21 557.977Z" stroke="#240339" stroke-width="2.72489" stroke-miterlimit="10"/>
<path d="M523.133 499C522.525 499 521.965 498.848 521.453 498.544C520.957 498.24 520.557 497.84 520.253 497.344C519.949 496.832 519.797 496.272 519.797 495.664V485.056C519.797 484.448 519.949 483.896 520.253 483.4C520.557 482.888 520.957 482.48 521.453 482.176C521.965 481.872 522.525 481.72 523.133 481.72H537.029V484.912H523.805C523.549 484.912 523.341 484.984 523.181 485.128C523.037 485.272 522.965 485.48 522.965 485.752V494.968C522.965 495.224 523.037 495.432 523.181 495.592C523.341 495.736 523.549 495.808 523.805 495.808H537.029V499H523.133ZM542.82 499C542.212 499 541.652 498.848 541.14 498.544C540.644 498.24 540.244 497.84 539.94 497.344C539.636 496.832 539.484 496.272 539.484 495.664V485.056C539.484 484.448 539.636 483.896 539.94 483.4C540.244 482.888 540.644 482.48 541.14 482.176C541.652 481.872 542.212 481.72 542.82 481.72H553.428C554.036 481.72 554.588 481.872 555.084 482.176C555.596 482.48 556.004 482.888 556.308 483.4C556.612 483.896 556.764 484.448 556.764 485.056V495.664C556.764 496.272 556.612 496.832 556.308 497.344C556.004 497.84 555.596 498.24 555.084 498.544C554.588 498.848 554.036 499 553.428 499H542.82ZM542.94 495.808H553.26C553.34 495.808 553.412 495.784 553.476 495.736C553.54 495.672 553.572 495.6 553.572 495.52V485.2C553.572 485.12 553.54 485.056 553.476 485.008C553.412 484.944 553.34 484.912 553.26 484.912H542.94C542.86 484.912 542.788 484.944 542.724 485.008C542.676 485.056 542.652 485.12 542.652 485.2V495.52C542.652 495.6 542.676 495.672 542.724 495.736C542.788 495.784 542.86 495.808 542.94 495.808ZM559.407 499V481.72H562.887L569.151 489.184L575.391 481.72H578.895V499H575.703V486.328L569.151 494.128L562.575 486.352V499H559.407ZM581.336 499V481.72H584.48V499H581.336ZM586.805 499V481.72H590.285L600.893 494.344V481.72H604.085V499H600.605L589.973 486.352V499H586.805ZM610.11 499C609.502 499 608.942 498.848 608.43 498.544C607.934 498.24 607.534 497.84 607.23 497.344C606.926 496.832 606.774 496.272 606.774 495.664V485.056C606.774 484.448 606.926 483.896 607.23 483.4C607.534 482.888 607.934 482.48 608.43 482.176C608.942 481.872 609.502 481.72 610.11 481.72H620.694C621.302 481.72 621.862 481.872 622.374 482.176C622.886 482.48 623.294 482.888 623.598 483.4C623.902 483.896 624.054 484.448 624.054 485.056V486.4H620.862V485.2C620.862 485.12 620.83 485.056 620.766 485.008C620.702 484.944 620.63 484.912 620.55 484.912H610.23C610.15 484.912 610.078 484.944 610.014 485.008C609.966 485.056 609.942 485.12 609.942 485.2V495.52C609.942 495.6 609.966 495.672 610.014 495.736C610.078 495.784 610.15 495.808 610.23 495.808H620.55C620.63 495.808 620.702 495.784 620.766 495.736C620.83 495.672 620.862 495.6 620.862 495.52V492.4H616.95V489.208H624.054V495.664C624.054 496.272 623.902 496.832 623.598 497.344C623.294 497.84 622.886 498.24 622.374 498.544C621.862 498.848 621.302 499 620.694 499H610.11ZM637.296 499C636.688 499 636.128 498.848 635.616 498.544C635.12 498.24 634.72 497.84 634.416 497.344C634.112 496.832 633.96 496.272 633.96 495.664V494.344H637.128V495.52C637.128 495.6 637.152 495.672 637.2 495.736C637.264 495.784 637.336 495.808 637.416 495.808H647.76C647.84 495.808 647.904 495.784 647.952 495.736C648.016 495.672 648.048 495.6 648.048 495.52V492.232C648.048 492.152 648.016 492.088 647.952 492.04C647.904 491.992 647.84 491.968 647.76 491.968H637.296C636.688 491.968 636.128 491.816 635.616 491.512C635.12 491.208 634.72 490.808 634.416 490.312C634.112 489.8 633.96 489.232 633.96 488.608V485.056C633.96 484.448 634.112 483.896 634.416 483.4C634.72 482.888 635.12 482.48 635.616 482.176C636.128 481.872 636.688 481.72 637.296 481.72H647.904C648.512 481.72 649.064 481.872 649.56 482.176C650.072 482.48 650.48 482.888 650.784 483.4C651.088 483.896 651.24 484.448 651.24 485.056V486.376H648.048V485.2C648.048 485.12 648.016 485.056 647.952 485.008C647.904 484.944 647.84 484.912 647.76 484.912H637.416C637.336 484.912 637.264 484.944 637.2 485.008C637.152 485.056 637.128 485.12 637.128 485.2V488.488C637.128 488.568 637.152 488.632 637.2 488.68C637.264 488.728 637.336 488.752 637.416 488.752H647.904C648.512 488.752 649.064 488.904 649.56 489.208C650.072 489.512 650.48 489.92 650.784 490.432C651.088 490.928 651.24 491.488 651.24 492.112V495.664C651.24 496.272 651.088 496.832 650.784 497.344C650.48 497.84 650.072 498.24 649.56 498.544C649.064 498.848 648.512 499 647.904 499H637.296ZM657.148 499C656.54 499 655.98 498.848 655.468 498.544C654.972 498.24 654.572 497.84 654.268 497.344C653.964 496.832 653.812 496.272 653.812 495.664V485.056C653.812 484.448 653.964 483.896 654.268 483.4C654.572 482.888 654.972 482.48 655.468 482.176C655.98 481.872 656.54 481.72 657.148 481.72H667.756C668.364 481.72 668.916 481.872 669.412 482.176C669.924 482.48 670.332 482.888 670.636 483.4C670.94 483.896 671.092 484.448 671.092 485.056V495.664C671.092 496.272 670.94 496.832 670.636 497.344C670.332 497.84 669.924 498.24 669.412 498.544C668.916 498.848 668.364 499 667.756 499H657.148ZM657.268 495.808H667.588C667.668 495.808 667.74 495.784 667.804 495.736C667.868 495.672 667.9 495.6 667.9 495.52V485.2C667.9 485.12 667.868 485.056 667.804 485.008C667.74 484.944 667.668 484.912 667.588 484.912H657.268C657.188 484.912 657.116 484.944 657.052 485.008C657.004 485.056 656.98 485.12 656.98 485.2V495.52C656.98 495.6 657.004 495.672 657.052 495.736C657.116 495.784 657.188 495.808 657.268 495.808ZM677.023 499C676.415 499 675.855 498.848 675.343 498.544C674.847 498.24 674.447 497.84 674.143 497.344C673.839 496.832 673.687 496.272 673.687 495.664V485.056C673.687 484.448 673.839 483.896 674.143 483.4C674.447 482.888 674.847 482.48 675.343 482.176C675.855 481.872 676.415 481.72 677.023 481.72H687.631C688.239 481.72 688.791 481.872 689.287 482.176C689.799 482.48 690.207 482.888 690.511 483.4C690.815 483.896 690.967 484.448 690.967 485.056V495.664C690.967 496.272 690.815 496.832 690.511 497.344C690.207 497.84 689.799 498.24 689.287 498.544C688.791 498.848 688.239 499 687.631 499H677.023ZM677.143 495.808H687.463C687.543 495.808 687.615 495.784 687.679 495.736C687.743 495.672 687.775 495.6 687.775 495.52V485.2C687.775 485.12 687.743 485.056 687.679 485.008C687.615 484.944 687.543 484.912 687.463 484.912H677.143C677.063 484.912 676.991 484.944 676.927 485.008C676.879 485.056 676.855 485.12 676.855 485.2V495.52C676.855 495.6 676.879 495.672 676.927 495.736C676.991 495.784 677.063 495.808 677.143 495.808ZM693.61 499V481.72H697.09L707.698 494.344V481.72H710.89V499H707.41L696.778 486.352V499H693.61ZM713.53 499V495.856H716.674V499H713.53ZM718.968 499V495.856H722.112V499H718.968ZM724.405 499V495.856H727.549V499H724.405Z" fill="white"/>
<path d="M2.32422 27.787V540.708C2.32422 547.485 5.14477 553.998 9.99268 558.662L91.4375 636.023C96.021 640.424 102.191 642.888 108.537 642.888H1222.06C1235.72 642.888 1246.83 631.799 1246.83 618.157V351.223C1246.83 344.622 1244.18 338.374 1239.6 333.709L1221.53 315.667C1216.86 311.003 1214.3 304.754 1214.3 298.153V100.395C1214.3 93.7944 1216.94 87.5458 1221.53 82.8813L1238.72 65.7194C1243.39 61.0548 1245.94 54.806 1245.94 48.2053V27.787C1245.94 14.1455 1234.84 3.05618 1221.18 3.05618H27.0926C13.4303 2.96817 2.32422 14.0575 2.32422 27.787Z" stroke="#240339" stroke-width="4.40013" stroke-miterlimit="10"/>
<path opacity="0.14" d="M3.645 186.028L7.08262 182.596C20.833 168.866 28.5015 150.296 28.5015 130.934V102.771C28.5015 83.4089 36.17 64.8389 49.9204 51.1093C63.6709 37.3798 82.2691 29.7229 101.661 29.7229H843.743C863.134 29.7229 881.733 22.066 895.483 8.33647L900.155 3.67212H62.0736C28.7066 3.67212 1.77085 30.9353 2.17403 64.2999L3.645 186.028Z" fill="#7100B6"/>
<path opacity="0.14" d="M1223.03 317.163V489.663C1223.03 500.4 1218.8 510.697 1211.13 518.266C1203.55 525.835 1199.23 536.132 1199.23 546.869V561.743C1199.23 572.48 1195 582.777 1187.33 590.346L1174.55 603.107C1166.97 610.676 1156.65 614.989 1145.9 614.989H537.445C526.691 614.989 516.378 619.213 508.798 626.87L490.729 644.912H1216C1233.12 644.912 1247 631.033 1247 613.912V340.838L1223.03 317.163Z" fill="#7100B6"/>
<path d="M1246.91 92.2981V295.865C1246.91 298.241 1244.09 299.385 1242.42 297.713L1231.22 286.536C1229.99 285.304 1229.37 283.72 1229.37 281.959V106.732C1229.37 105.059 1229.99 103.475 1231.13 102.331L1242.42 90.4498C1243.91 88.7776 1246.91 89.9218 1246.91 92.2981Z" fill="#240041"/>
<path d="M3.6456 48.7333L28.2377 24.1784C32.9093 19.5139 39.3438 16.8738 45.9546 16.8738H459.789C473.275 16.8738 486.232 11.5051 495.84 2H31.7635C15.2806 2 2.05899 15.8177 2.85228 32.2755L3.6456 48.7333Z" fill="#240041"/>
<path d="M76.7168 622.117H117.792L138.241 642.536H98.4001L76.7168 622.117Z" fill="#240041"/>
<path d="M131.365 622.117H172.44L192.889 642.536H153.049L131.365 622.117Z" fill="#240041"/>
<path d="M186.016 622.117H227.091L247.54 642.536H207.699L186.016 622.117Z" fill="#240041"/>
<path d="M240.664 622.117H281.739L302.188 642.536H262.347L240.664 622.117Z" fill="#240041"/>
<path d="M561.223 130V104.116H582.103C583.015 104.116 583.855 104.344 584.623 104.8C585.391 105.256 586.003 105.868 586.459 106.636C586.915 107.38 587.143 108.208 587.143 109.12V116.104C587.143 117.016 586.915 117.856 586.459 118.624C586.003 119.392 585.391 120.004 584.623 120.46C583.855 120.892 583.015 121.108 582.103 121.108L565.975 121.144V130H561.223ZM566.407 116.32H581.887C582.007 116.32 582.115 116.284 582.211 116.212C582.307 116.14 582.355 116.044 582.355 115.924V109.3C582.355 109.18 582.307 109.084 582.211 109.012C582.115 108.916 582.007 108.868 581.887 108.868H566.407C566.287 108.868 566.179 108.916 566.083 109.012C566.011 109.084 565.975 109.18 565.975 109.3V115.924C565.975 116.044 566.011 116.14 566.083 116.212C566.179 116.284 566.287 116.32 566.407 116.32ZM589.556 130V114.088C589.556 113.176 589.784 112.348 590.24 111.604C590.696 110.86 591.296 110.26 592.04 109.804C592.808 109.348 593.636 109.12 594.524 109.12H606.116V113.836H594.704C594.584 113.836 594.476 113.884 594.38 113.98C594.308 114.052 594.272 114.148 594.272 114.268V130H589.556ZM608.856 130V109.12H613.572V130H608.856ZM608.856 107.032V102.28H613.572V107.032H608.856ZM617.155 130V124.852L631.411 113.836H617.155V109.12H638.359V114.268L624.103 125.284H638.359V130H617.155ZM646.238 130C645.326 130 644.498 129.772 643.754 129.316C643.01 128.86 642.41 128.26 641.954 127.516C641.498 126.772 641.27 125.944 641.27 125.032V114.088C641.27 113.176 641.498 112.348 641.954 111.604C642.41 110.86 643.01 110.26 643.754 109.804C644.498 109.348 645.326 109.12 646.238 109.12H657.506C658.418 109.12 659.246 109.348 659.99 109.804C660.758 110.26 661.358 110.86 661.79 111.604C662.246 112.348 662.474 113.176 662.474 114.088V121.936H645.986V124.852C645.986 124.972 646.022 125.08 646.094 125.176C646.19 125.248 646.298 125.284 646.418 125.284H662.474V130H646.238ZM645.986 117.688H657.758V114.268C657.758 114.148 657.71 114.052 657.614 113.98C657.542 113.884 657.446 113.836 657.326 113.836H646.418C646.298 113.836 646.19 113.884 646.094 113.98C646.022 114.052 645.986 114.148 645.986 114.268V117.688ZM670.809 130C669.897 130 669.069 129.772 668.325 129.316C667.581 128.86 666.981 128.26 666.525 127.516C666.069 126.772 665.841 125.944 665.841 125.032V124.24H670.557V124.852C670.557 124.972 670.593 125.08 670.665 125.176C670.761 125.248 670.869 125.284 670.989 125.284H681.897C682.017 125.284 682.113 125.248 682.185 125.176C682.281 125.08 682.329 124.972 682.329 124.852V122.368C682.329 122.248 682.281 122.152 682.185 122.08C682.113 121.984 682.017 121.936 681.897 121.936H670.809C669.897 121.936 669.069 121.708 668.325 121.252C667.581 120.796 666.981 120.196 666.525 119.452C666.069 118.708 665.841 117.88 665.841 116.968V114.088C665.841 113.176 666.069 112.348 666.525 111.604C666.981 110.86 667.581 110.26 668.325 109.804C669.069 109.348 669.897 109.12 670.809 109.12H682.077C683.013 109.12 683.853 109.348 684.597 109.804C685.341 110.26 685.941 110.86 686.397 111.604C686.853 112.348 687.081 113.176 687.081 114.088V114.88H682.329V114.268C682.329 114.148 682.281 114.052 682.185 113.98C682.113 113.884 682.017 113.836 681.897 113.836H670.989C670.869 113.836 670.761 113.884 670.665 113.98C670.593 114.052 670.557 114.148 670.557 114.268V116.752C670.557 116.872 670.593 116.98 670.665 117.076C670.761 117.148 670.869 117.184 670.989 117.184H682.077C683.013 117.184 683.853 117.412 684.597 117.868C685.341 118.324 685.941 118.924 686.397 119.668C686.853 120.412 687.081 121.24 687.081 122.152V125.032C687.081 125.944 686.853 126.772 686.397 127.516C685.941 128.26 685.341 128.86 684.597 129.316C683.853 129.772 683.013 130 682.077 130H670.809Z" fill="#FCFCFC"/>
<defs>
<linearGradient id="paint0_linear_1029_86741" x1="605.001" y1="527.988" x2="238.488" y2="470.588" gradientUnits="userSpaceOnUse">
<stop stop-color="#9659FB"/>
<stop offset="1" stop-color="#4D008A"/>
</linearGradient>
</defs>
</svg>
