<svg width="192" height="56" viewBox="0 0 192 56" fill="none" xmlns="http://www.w3.org/2000/svg">
<g filter="url(#filter0_d_939_83383)">
<rect x="4.5" y="0.5" width="183" height="47" rx="23.5" stroke="url(#paint0_linear_939_83383)"/>
<path d="M52.8047 29H50.2812L50.2969 26.8906H52.8047C53.3255 26.8906 53.7656 26.7656 54.125 26.5156C54.4896 26.2656 54.7656 25.8932 54.9531 25.3984C55.1458 24.8984 55.2422 24.2839 55.2422 23.5547V23.0625C55.2422 22.5156 55.1875 22.0365 55.0781 21.625C54.974 21.2083 54.8177 20.862 54.6094 20.5859C54.401 20.3047 54.1406 20.0938 53.8281 19.9531C53.5208 19.8125 53.1667 19.7422 52.7656 19.7422H50.2344V17.625H52.7656C53.5365 17.625 54.2422 17.7578 54.8828 18.0234C55.5286 18.2839 56.0859 18.6589 56.5547 19.1484C57.0286 19.6328 57.3932 20.2083 57.6484 20.875C57.9089 21.5365 58.0391 22.2708 58.0391 23.0781V23.5547C58.0391 24.3568 57.9089 25.0911 57.6484 25.7578C57.3932 26.4245 57.0312 27 56.5625 27.4844C56.0938 27.9688 55.5391 28.3438 54.8984 28.6094C54.263 28.8698 53.5651 29 52.8047 29ZM51.8516 17.625V29H49.1094V17.625H51.8516ZM69.0938 23.0859V23.5469C69.0938 24.4167 68.9714 25.1979 68.7266 25.8906C68.487 26.5781 68.1458 27.1667 67.7031 27.6562C67.2604 28.1406 66.737 28.513 66.1328 28.7734C65.5286 29.0286 64.862 29.1562 64.1328 29.1562C63.3984 29.1562 62.7266 29.0286 62.1172 28.7734C61.513 28.513 60.987 28.1406 60.5391 27.6562C60.0964 27.1667 59.7526 26.5781 59.5078 25.8906C59.2682 25.1979 59.1484 24.4167 59.1484 23.5469V23.0859C59.1484 22.2161 59.2682 21.4349 59.5078 20.7422C59.7526 20.0495 60.0938 19.4609 60.5312 18.9766C60.974 18.487 61.4974 18.1146 62.1016 17.8594C62.7109 17.599 63.3828 17.4688 64.1172 17.4688C64.8464 17.4688 65.513 17.599 66.1172 17.8594C66.7266 18.1146 67.2526 18.487 67.6953 18.9766C68.138 19.4609 68.4818 20.0495 68.7266 20.7422C68.9714 21.4349 69.0938 22.2161 69.0938 23.0859ZM66.3125 23.5469V23.0703C66.3125 22.5078 66.263 22.013 66.1641 21.5859C66.0703 21.1536 65.9297 20.7917 65.7422 20.5C65.5547 20.2083 65.3229 19.9896 65.0469 19.8438C64.776 19.6927 64.4661 19.6172 64.1172 19.6172C63.7526 19.6172 63.4349 19.6927 63.1641 19.8438C62.8932 19.9896 62.6667 20.2083 62.4844 20.5C62.3021 20.7917 62.1641 21.1536 62.0703 21.5859C61.9818 22.013 61.9375 22.5078 61.9375 23.0703V23.5469C61.9375 24.1042 61.9818 24.599 62.0703 25.0312C62.1641 25.4583 62.3021 25.8203 62.4844 26.1172C62.6719 26.4141 62.901 26.638 63.1719 26.7891C63.4479 26.9401 63.7682 27.0156 64.1328 27.0156C64.4818 27.0156 64.7917 26.9401 65.0625 26.7891C65.3333 26.638 65.5599 26.4141 65.7422 26.1172C65.9297 25.8203 66.0703 25.4583 66.1641 25.0312C66.263 24.599 66.3125 24.1042 66.3125 23.5469ZM76.9844 25.1484H79.7188C79.6823 25.9401 79.4688 26.638 79.0781 27.2422C78.6875 27.8464 78.1458 28.3177 77.4531 28.6562C76.7656 28.9896 75.9531 29.1562 75.0156 29.1562C74.2552 29.1562 73.5755 29.0286 72.9766 28.7734C72.3828 28.5182 71.8776 28.151 71.4609 27.6719C71.0495 27.1927 70.7344 26.612 70.5156 25.9297C70.3021 25.2474 70.1953 24.4792 70.1953 23.625V23.0078C70.1953 22.1536 70.3073 21.3854 70.5312 20.7031C70.7604 20.0156 71.0833 19.4323 71.5 18.9531C71.9219 18.4688 72.4271 18.099 73.0156 17.8438C73.6042 17.5885 74.2578 17.4609 74.9766 17.4609C75.9661 17.4609 76.8021 17.638 77.4844 17.9922C78.1667 18.3464 78.6953 18.8333 79.0703 19.4531C79.4453 20.0677 79.6667 20.7682 79.7344 21.5547H77C76.9896 21.1276 76.9167 20.7708 76.7812 20.4844C76.6458 20.1927 76.4323 19.974 76.1406 19.8281C75.849 19.6823 75.4609 19.6094 74.9766 19.6094C74.638 19.6094 74.3438 19.6719 74.0938 19.7969C73.8438 19.9219 73.6354 20.1198 73.4688 20.3906C73.3021 20.6615 73.1771 21.013 73.0938 21.4453C73.0156 21.8724 72.9766 22.388 72.9766 22.9922V23.625C72.9766 24.2292 73.013 24.7448 73.0859 25.1719C73.1589 25.599 73.276 25.9479 73.4375 26.2188C73.599 26.4896 73.8073 26.6901 74.0625 26.8203C74.3229 26.9453 74.6406 27.0078 75.0156 27.0078C75.4323 27.0078 75.7839 26.9427 76.0703 26.8125C76.3568 26.6771 76.5781 26.474 76.7344 26.2031C76.8906 25.9271 76.974 25.5755 76.9844 25.1484ZM87.1875 17.625H89.9297V25.0547C89.9297 25.9401 89.7448 26.6901 89.375 27.3047C89.0052 27.9141 88.487 28.375 87.8203 28.6875C87.1536 29 86.3698 29.1562 85.4688 29.1562C84.5781 29.1562 83.7943 29 83.1172 28.6875C82.4453 28.375 81.9193 27.9141 81.5391 27.3047C81.1641 26.6901 80.9766 25.9401 80.9766 25.0547V17.625H83.7266V25.0547C83.7266 25.5234 83.7943 25.9062 83.9297 26.2031C84.0651 26.4948 84.263 26.7083 84.5234 26.8438C84.7839 26.9792 85.099 27.0469 85.4688 27.0469C85.8438 27.0469 86.1589 26.9792 86.4141 26.8438C86.6693 26.7083 86.862 26.4948 86.9922 26.2031C87.1224 25.9062 87.1875 25.5234 87.1875 25.0547V17.625ZM93.0156 17.625H95.25L97.7891 25.5391L100.328 17.625H102.562L98.6953 29H96.8828L93.0156 17.625ZM91.6562 17.625H93.9688L94.3984 26.3438V29H91.6562V17.625ZM101.609 17.625H103.93V29H101.18V26.3438L101.609 17.625ZM113.516 26.8906V29H107.453V26.8906H113.516ZM108.43 17.625V29H105.688V17.625H108.43ZM112.734 22.1406V24.1797H107.453V22.1406H112.734ZM113.539 17.625V19.7422H107.453V17.625H113.539ZM124.141 17.625V29H121.406L117.383 21.9219V29H114.641V17.625H117.383L121.406 24.7031V17.625H124.141ZM131.148 17.625V29H128.406V17.625H131.148ZM134.57 17.625V19.7422H125.062V17.625H134.57ZM141.469 25.9766C141.469 25.7995 141.443 25.6406 141.391 25.5C141.339 25.3542 141.242 25.2188 141.102 25.0938C140.961 24.9688 140.758 24.8438 140.492 24.7188C140.232 24.5885 139.888 24.4531 139.461 24.3125C138.961 24.1458 138.479 23.9583 138.016 23.75C137.552 23.5365 137.138 23.2891 136.773 23.0078C136.409 22.7214 136.12 22.388 135.906 22.0078C135.693 21.6224 135.586 21.1745 135.586 20.6641C135.586 20.1745 135.695 19.7344 135.914 19.3438C136.133 18.9479 136.438 18.612 136.828 18.3359C137.224 18.0547 137.688 17.8411 138.219 17.6953C138.75 17.5443 139.331 17.4688 139.961 17.4688C140.794 17.4688 141.529 17.6146 142.164 17.9062C142.805 18.1927 143.305 18.6016 143.664 19.1328C144.029 19.6589 144.211 20.2812 144.211 21H141.484C141.484 20.7135 141.424 20.4609 141.305 20.2422C141.19 20.0234 141.016 19.8516 140.781 19.7266C140.547 19.6016 140.253 19.5391 139.898 19.5391C139.555 19.5391 139.266 19.5911 139.031 19.6953C138.797 19.7995 138.62 19.9401 138.5 20.1172C138.38 20.2891 138.32 20.4792 138.32 20.6875C138.32 20.8594 138.367 21.0156 138.461 21.1562C138.56 21.2917 138.698 21.4193 138.875 21.5391C139.057 21.6589 139.276 21.7734 139.531 21.8828C139.792 21.9922 140.083 22.099 140.406 22.2031C141.01 22.3958 141.547 22.612 142.016 22.8516C142.49 23.0859 142.888 23.3542 143.211 23.6562C143.539 23.9531 143.786 24.2917 143.953 24.6719C144.125 25.0521 144.211 25.4818 144.211 25.9609C144.211 26.4714 144.112 26.9245 143.914 27.3203C143.716 27.7161 143.432 28.0521 143.062 28.3281C142.693 28.599 142.25 28.8047 141.734 28.9453C141.219 29.0859 140.643 29.1562 140.008 29.1562C139.424 29.1562 138.849 29.0833 138.281 28.9375C137.719 28.7865 137.208 28.5573 136.75 28.25C136.292 27.9375 135.924 27.5391 135.648 27.0547C135.378 26.5651 135.242 25.9844 135.242 25.3125H137.992C137.992 25.6458 138.036 25.9271 138.125 26.1562C138.214 26.3854 138.344 26.5703 138.516 26.7109C138.688 26.8464 138.898 26.9453 139.148 27.0078C139.398 27.0651 139.685 27.0938 140.008 27.0938C140.357 27.0938 140.638 27.0443 140.852 26.9453C141.065 26.8411 141.221 26.7057 141.32 26.5391C141.419 26.3672 141.469 26.1797 141.469 25.9766Z" fill="#6608C1"/>
</g>
<defs>
<filter id="filter0_d_939_83383" x="0" y="0" width="192" height="56" filterUnits="userSpaceOnUse" color-interpolation-filters="sRGB">
<feFlood flood-opacity="0" result="BackgroundImageFix"/>
<feColorMatrix in="SourceAlpha" type="matrix" values="0 0 0 0 0 0 0 0 0 0 0 0 0 0 0 0 0 0 127 0" result="hardAlpha"/>
<feOffset dy="4"/>
<feGaussianBlur stdDeviation="2"/>
<feComposite in2="hardAlpha" operator="out"/>
<feColorMatrix type="matrix" values="0 0 0 0 0 0 0 0 0 0 0 0 0 0 0 0 0 0 0.25 0"/>
<feBlend mode="normal" in2="BackgroundImageFix" result="effect1_dropShadow_939_83383"/>
<feBlend mode="normal" in="SourceGraphic" in2="effect1_dropShadow_939_83383" result="shape"/>
</filter>
<linearGradient id="paint0_linear_939_83383" x1="7.45" y1="0.819113" x2="59.6337" y2="109.163" gradientUnits="userSpaceOnUse">
<stop stop-color="#6608C1"/>
<stop offset="0.557292" stop-color="#1F002E"/>
<stop offset="0.677083" stop-color="#2C003B"/>
<stop offset="0.770833" stop-color="#3B0060"/>
<stop offset="0.848958" stop-color="#40037D"/>
<stop offset="1" stop-color="#4F00B5"/>
</linearGradient>
</defs>
</svg>
