<svg width="48" height="48" viewBox="0 0 48 48" fill="none" xmlns="http://www.w3.org/2000/svg">
<g filter="url(#filter0_f_376_62371)">
<path d="M20.1648 17.9626C20.1648 19.232 19.1358 20.261 17.8665 20.261C16.5971 20.261 15.5681 19.232 15.5681 17.9626C15.5681 16.6933 16.5971 15.6643 17.8665 15.6643C19.1358 15.6643 20.1648 16.6933 20.1648 17.9626Z" fill="#FCFCFC" stroke="#F4DEFF" stroke-width="0.618056"/>
<path d="M36.1448 34.0571C36.1448 35.3265 35.1158 36.3555 33.8464 36.3555C32.5771 36.3555 31.548 35.3265 31.548 34.0571C31.548 32.7878 32.5771 31.7587 33.8464 31.7587C35.1158 31.7587 36.1448 32.7878 36.1448 34.0571Z" fill="#FCFCFC" stroke="#F4DEFF" stroke-width="0.618056"/>
<path d="M28.0489 24.1666C28.0489 26.4319 26.2378 28.2612 24.0122 28.2612C21.7867 28.2612 19.9755 26.4319 19.9755 24.1666C19.9755 21.9013 21.7867 20.072 24.0122 20.072C26.2378 20.072 28.0489 21.9013 28.0489 24.1666Z" fill="#FCFCFC" stroke="#F4DEFF" stroke-width="0.618056"/>
<path d="M24.0123 9.64228C16.0157 9.64228 9.48798 16.1728 9.48798 24.1666C9.48798 32.2238 16.081 38.6812 24.0123 38.6901V9.64228ZM24.0123 9.64228C35.2518 9.64228 41.9345 21.6853 36.6969 31.1886L35.7262 30.6283C40.5344 21.8681 34.3936 10.7625 24.0123 10.7625C16.6372 10.7625 10.6082 16.7895 10.6082 24.1666C10.6082 31.5303 16.592 37.5361 24.0119 37.5454C26.2004 37.5482 28.4045 37.0379 30.416 35.9382L30.9763 36.9089C28.8004 38.1049 26.4108 38.6897 24.0358 38.6909M24.0123 9.64228L24.0358 38.6909M24.0358 38.6909L24.0326 38.6907C24.0278 38.6904 24.0209 38.6901 24.0126 38.6901L24.0358 38.6909ZM24.042 38.6913L24.0406 38.6912L24.042 38.6913Z" fill="#FCFCFC" stroke="#F4DEFF" stroke-width="0.618056"/>
<path d="M15.1399 21.4781C14.868 22.378 14.7112 23.3075 14.7094 24.1671L15.1399 21.4781ZM15.1399 21.4781L16.2037 21.8316C15.9737 22.5998 15.8303 23.4098 15.8289 24.1659C15.8209 28.505 19.3855 32.3515 24.0125 32.3521C28.5101 32.3526 32.1982 28.6619 32.1982 24.1665C32.1982 19.6801 28.5184 15.9778 24.0119 15.9867H24.0119C23.2561 15.9882 22.491 16.0835 21.7361 16.3012L21.3825 15.237C22.2492 14.9827 23.1332 14.8704 24.0131 14.8689C29.1471 14.8597 33.3178 19.0686 33.3178 24.1664C33.3178 29.285 29.1261 33.4717 24.0125 33.4717C18.7614 33.4717 14.6996 29.1115 14.7094 24.1671L15.1399 21.4781Z" fill="#FCFCFC" stroke="#F4DEFF" stroke-width="0.618056"/>
</g>
<g filter="url(#filter1_d_376_62371)">
<path d="M20.1648 17.9626C20.1648 19.232 19.1358 20.261 17.8665 20.261C16.5971 20.261 15.5681 19.232 15.5681 17.9626C15.5681 16.6933 16.5971 15.6643 17.8665 15.6643C19.1358 15.6643 20.1648 16.6933 20.1648 17.9626Z" fill="#F7E6FF" stroke="#C381F6" stroke-width="0.618056"/>
<path d="M36.1448 34.0571C36.1448 35.3265 35.1158 36.3555 33.8464 36.3555C32.5771 36.3555 31.548 35.3265 31.548 34.0571C31.548 32.7878 32.5771 31.7587 33.8464 31.7587C35.1158 31.7587 36.1448 32.7878 36.1448 34.0571Z" fill="#F7E5FF" stroke="#C381F6" stroke-width="0.618056"/>
<path d="M28.0489 24.1666C28.0489 26.4319 26.2378 28.2612 24.0122 28.2612C21.7867 28.2612 19.9755 26.4319 19.9755 24.1666C19.9755 21.9013 21.7867 20.072 24.0122 20.072C26.2378 20.072 28.0489 21.9013 28.0489 24.1666Z" fill="#F7E5FF" stroke="#C381F6" stroke-width="0.618056"/>
<path d="M24.0123 9.64228C16.0157 9.64228 9.48798 16.1728 9.48798 24.1666C9.48798 32.2238 16.081 38.6812 24.0123 38.6901V9.64228ZM24.0123 9.64228C35.2518 9.64228 41.9345 21.6853 36.6969 31.1886L35.7262 30.6283C40.5344 21.8681 34.3936 10.7625 24.0123 10.7625C16.6372 10.7625 10.6082 16.7895 10.6082 24.1666C10.6082 31.5303 16.592 37.5361 24.0119 37.5454C26.2004 37.5482 28.4045 37.0379 30.416 35.9382L30.9763 36.9089C28.8004 38.1049 26.4108 38.6897 24.0359 38.6909M24.0123 9.64228L24.0359 38.6909M24.0359 38.6909L24.0326 38.6907C24.0278 38.6904 24.0209 38.6901 24.0126 38.6901L24.0359 38.6909ZM24.0421 38.6913L24.0406 38.6912L24.0421 38.6913Z" fill="#F7E6FF" stroke="#C381F6" stroke-width="0.618056"/>
<path d="M15.1399 21.4781C14.868 22.378 14.7112 23.3075 14.7094 24.1671L15.1399 21.4781ZM15.1399 21.4781L16.2037 21.8316C15.9737 22.5998 15.8303 23.4098 15.8289 24.1659C15.8209 28.505 19.3855 32.3515 24.0125 32.3521C28.5101 32.3526 32.1982 28.6619 32.1982 24.1665C32.1982 19.6801 28.5184 15.9778 24.0119 15.9867H24.0119C23.2561 15.9882 22.491 16.0835 21.7361 16.3012L21.3825 15.237C22.2492 14.9827 23.1332 14.8704 24.0131 14.8689C29.1471 14.8597 33.3178 19.0686 33.3178 24.1664C33.3178 29.285 29.1261 33.4717 24.0125 33.4717C18.7614 33.4717 14.6996 29.1115 14.7094 24.1671L15.1399 21.4781Z" fill="#F7E6FF" stroke="#C381F6" stroke-width="0.618056"/>
</g>
<defs>
<filter id="filter0_f_376_62371" x="7.67896" y="7.83325" width="32.6401" height="32.6667" filterUnits="userSpaceOnUse" color-interpolation-filters="sRGB">
<feFlood flood-opacity="0" result="BackgroundImageFix"/>
<feBlend mode="normal" in="SourceGraphic" in2="BackgroundImageFix" result="shape"/>
<feGaussianBlur stdDeviation="0.75" result="effect1_foregroundBlur_376_62371"/>
</filter>
<filter id="filter1_d_376_62371" x="0.178955" y="0.333252" width="47.6401" height="47.6667" filterUnits="userSpaceOnUse" color-interpolation-filters="sRGB">
<feFlood flood-opacity="0" result="BackgroundImageFix"/>
<feColorMatrix in="SourceAlpha" type="matrix" values="0 0 0 0 0 0 0 0 0 0 0 0 0 0 0 0 0 0 127 0" result="hardAlpha"/>
<feOffset/>
<feGaussianBlur stdDeviation="4.5"/>
<feComposite in2="hardAlpha" operator="out"/>
<feColorMatrix type="matrix" values="0 0 0 0 0.512333 0 0 0 0 0.129167 0 0 0 0 1 0 0 0 1 0"/>
<feBlend mode="normal" in2="BackgroundImageFix" result="effect1_dropShadow_376_62371"/>
<feBlend mode="normal" in="SourceGraphic" in2="effect1_dropShadow_376_62371" result="shape"/>
</filter>
</defs>
</svg>
