<svg width="32" height="32" viewBox="0 0 32 32" fill="none" xmlns="http://www.w3.org/2000/svg">
<path d="M12.3314 9.96265C12.3314 11.232 11.3023 12.261 10.033 12.261C8.76359 12.261 7.73456 11.232 7.73456 9.96265C7.73456 8.69328 8.76359 7.66425 10.033 7.66425C11.3023 7.66425 12.3314 8.69328 12.3314 9.96265Z" fill="#7643AA" stroke="#534296" stroke-width="0.618056"/>
<path d="M28.3113 26.0571C28.3113 27.3265 27.2823 28.3555 26.0129 28.3555C24.7436 28.3555 23.7145 27.3265 23.7145 26.0571C23.7145 24.7878 24.7436 23.7587 26.0129 23.7587C27.2823 23.7587 28.3113 24.7878 28.3113 26.0571Z" fill="#7643AA" stroke="#534296" stroke-width="0.618056"/>
<path d="M20.2154 16.1666C20.2154 18.4319 18.4043 20.2612 16.1787 20.2612C13.9532 20.2612 12.142 18.4319 12.142 16.1666C12.142 13.9013 13.9532 12.072 16.1787 12.072C18.4043 12.072 20.2154 13.9013 20.2154 16.1666Z" fill="#7643AA" stroke="#534296" stroke-width="0.618056"/>
<path d="M16.1788 1.64228C8.18219 1.64228 1.65449 8.1728 1.65449 16.1666C1.65449 24.2238 8.24755 30.6812 16.1788 30.6901V1.64228ZM16.1788 1.64228C27.4183 1.64228 34.101 13.6853 28.8634 23.1886L27.8927 22.6283C32.7009 13.8681 26.5601 2.76251 16.1788 2.76251C8.80367 2.76251 2.77471 8.78949 2.77471 16.1666C2.77471 23.5303 8.7585 29.5361 16.1784 29.5454C18.3669 29.5482 20.571 29.0379 22.5825 27.9382L23.1428 28.9089C20.9669 30.1049 18.5773 30.6897 16.2024 30.6909M16.1788 1.64228L16.2024 30.6909M16.2024 30.6909L16.1991 30.6907C16.1944 30.6904 16.1874 30.6901 16.1791 30.6901L16.2024 30.6909ZM16.2086 30.6913L16.2072 30.6912L16.2086 30.6913Z" fill="#7643AA" stroke="#534296" stroke-width="0.618056"/>
<path d="M7.30636 13.4781C7.03455 14.378 6.8777 15.3075 6.87594 16.1671L7.30636 13.4781ZM7.30636 13.4781L8.3702 13.8316C8.1402 14.5998 7.99676 15.4098 7.99536 16.1659C7.98741 20.505 11.552 24.3515 16.179 24.3521C20.6766 24.3526 24.3647 20.6619 24.3647 16.1665C24.3647 11.6801 20.6849 7.97779 16.1784 7.98671H16.1784C15.4226 7.98825 14.6575 8.08345 13.9026 8.30115L13.549 7.23698C14.4158 6.98273 15.2997 6.87042 16.1796 6.86886C21.3136 6.85972 25.4843 11.0686 25.4843 16.1664C25.4843 21.285 21.2926 25.4717 16.179 25.4717C10.9279 25.4717 6.86608 21.1115 6.87594 16.1671L7.30636 13.4781Z" fill="#7643AA" stroke="#534296" stroke-width="0.618056"/>
</svg>
