<svg width="48" height="49" viewBox="0 0 48 49" fill="none" xmlns="http://www.w3.org/2000/svg">
<g filter="url(#filter0_f_376_62486)">
<mask id="path-1-inside-1_376_62486" fill="white">
<path d="M38.5008 19.2222V16.7907C38.5008 16.7109 38.4675 16.5091 38.4157 16.3687C38.328 16.1337 38.5488 16.6103 35.8788 11.2614C35.4024 10.3098 34.4448 9.71875 33.381 9.71875H14.2882C13.2244 9.71875 12.2668 10.3098 11.7904 11.2614L9.29619 16.2432C9.23141 16.3696 9.16724 16.6731 9.16724 16.7907V19.2222C9.16724 20.5508 9.74422 21.7388 10.6502 22.5766C10.6483 43.0328 10.6492 32.9009 10.649 35.8303C10.649 37.7329 12.1963 39.2809 14.0995 39.2809H33.5673C35.4705 39.2809 37.0179 37.7329 37.0179 35.8303C37.0177 34.3213 37.0183 40.9943 37.0167 22.5775C37.9232 21.7396 38.5008 20.5512 38.5008 19.2222ZM36.0555 19.2222C36.0555 20.4012 35.0968 21.3606 33.9171 21.3606C32.7375 21.3606 31.7787 20.4012 31.7787 19.2222V18.0133H36.0555V19.2222ZM29.3334 19.2222C29.3334 20.4012 28.3747 21.3606 27.195 21.3606C26.0154 21.3606 25.0566 20.4012 25.0566 19.2222V18.0133H29.3334V19.2222ZM22.6114 19.2222C22.6114 20.4012 21.6526 21.3606 20.473 21.3606C19.2933 21.3606 18.3346 20.4012 18.3346 19.2222V18.0133H22.6114V19.2222ZM15.8893 19.2222C15.8893 20.4012 14.9305 21.3606 13.7509 21.3606C12.5713 21.3606 11.6125 20.4012 11.6125 19.2222V18.0133H15.8893V19.2222ZM13.9778 11.9168C14.0363 11.798 14.1557 11.7246 14.2882 11.7246H33.381C33.5112 11.7246 33.6329 11.7998 33.6914 11.9168L35.7549 15.8904C35.3227 15.8904 11.9136 15.8904 11.9136 15.8904L13.9778 11.9168ZM20.8013 36.8357L20.7998 31.0084C20.7997 30.6426 21.0962 30.346 21.4621 30.346H26.1964C26.5642 30.346 26.8615 30.6456 26.8587 31.0134L26.8144 36.7515L20.8013 36.8357ZM34.7734 35.8303C34.7734 36.3849 34.3221 36.8357 33.7681 36.8357H29.3108V30.676C29.3108 29.3274 28.2135 28.2307 26.8655 28.2307H20.8013C19.4533 28.2307 18.3561 29.3274 18.3561 30.676V36.8357H13.9123C13.3583 36.8357 12.907 36.3849 12.907 35.8303V23.2753C13.1231 23.3067 13.5258 23.3417 13.7509 23.3417C15.0831 23.3417 16.2738 22.7611 17.1119 21.8507C18.943 23.8395 22.0041 23.8383 23.834 21.8507C25.665 23.8395 28.7261 23.8383 30.5561 21.8507C31.3942 22.7611 32.5849 23.3417 33.9171 23.3417C34.1416 23.3417 34.5576 23.3068 34.7734 23.2754V35.8303Z"/>
</mask>
<path d="M38.5008 19.2222V16.7907C38.5008 16.7109 38.4675 16.5091 38.4157 16.3687C38.328 16.1337 38.5488 16.6103 35.8788 11.2614C35.4024 10.3098 34.4448 9.71875 33.381 9.71875H14.2882C13.2244 9.71875 12.2668 10.3098 11.7904 11.2614L9.29619 16.2432C9.23141 16.3696 9.16724 16.6731 9.16724 16.7907V19.2222C9.16724 20.5508 9.74422 21.7388 10.6502 22.5766C10.6483 43.0328 10.6492 32.9009 10.649 35.8303C10.649 37.7329 12.1963 39.2809 14.0995 39.2809H33.5673C35.4705 39.2809 37.0179 37.7329 37.0179 35.8303C37.0177 34.3213 37.0183 40.9943 37.0167 22.5775C37.9232 21.7396 38.5008 20.5512 38.5008 19.2222ZM36.0555 19.2222C36.0555 20.4012 35.0968 21.3606 33.9171 21.3606C32.7375 21.3606 31.7787 20.4012 31.7787 19.2222V18.0133H36.0555V19.2222ZM29.3334 19.2222C29.3334 20.4012 28.3747 21.3606 27.195 21.3606C26.0154 21.3606 25.0566 20.4012 25.0566 19.2222V18.0133H29.3334V19.2222ZM22.6114 19.2222C22.6114 20.4012 21.6526 21.3606 20.473 21.3606C19.2933 21.3606 18.3346 20.4012 18.3346 19.2222V18.0133H22.6114V19.2222ZM15.8893 19.2222C15.8893 20.4012 14.9305 21.3606 13.7509 21.3606C12.5713 21.3606 11.6125 20.4012 11.6125 19.2222V18.0133H15.8893V19.2222ZM13.9778 11.9168C14.0363 11.798 14.1557 11.7246 14.2882 11.7246H33.381C33.5112 11.7246 33.6329 11.7998 33.6914 11.9168L35.7549 15.8904C35.3227 15.8904 11.9136 15.8904 11.9136 15.8904L13.9778 11.9168ZM20.8013 36.8357L20.7998 31.0084C20.7997 30.6426 21.0962 30.346 21.4621 30.346H26.1964C26.5642 30.346 26.8615 30.6456 26.8587 31.0134L26.8144 36.7515L20.8013 36.8357ZM34.7734 35.8303C34.7734 36.3849 34.3221 36.8357 33.7681 36.8357H29.3108V30.676C29.3108 29.3274 28.2135 28.2307 26.8655 28.2307H20.8013C19.4533 28.2307 18.3561 29.3274 18.3561 30.676V36.8357H13.9123C13.3583 36.8357 12.907 36.3849 12.907 35.8303V23.2753C13.1231 23.3067 13.5258 23.3417 13.7509 23.3417C15.0831 23.3417 16.2738 22.7611 17.1119 21.8507C18.943 23.8395 22.0041 23.8383 23.834 21.8507C25.665 23.8395 28.7261 23.8383 30.5561 21.8507C31.3942 22.7611 32.5849 23.3417 33.9171 23.3417C34.1416 23.3417 34.5576 23.3068 34.7734 23.2754V35.8303Z" fill="#FCFCFC"/>
<path d="M38.4157 16.3687L39.037 16.1395L39.0362 16.1374L38.4157 16.3687ZM35.8788 11.2614L36.4713 10.9656L36.471 10.9649L35.8788 11.2614ZM11.7904 11.2614L12.3826 11.5578L12.3826 11.5578L11.7904 11.2614ZM9.29619 16.2432L9.88562 16.5452L9.88837 16.5397L9.29619 16.2432ZM10.6502 22.5766L11.3124 22.5767L11.3124 22.2871L11.0998 22.0905L10.6502 22.5766ZM10.649 35.8303L9.9867 35.8303V35.8303H10.649ZM37.0179 35.8303H37.6801V35.8303L37.0179 35.8303ZM37.0167 22.5775L36.5671 22.0912L36.3544 22.2879L36.3544 22.5776L37.0167 22.5775ZM31.7787 18.0133V17.351H31.1164V18.0133H31.7787ZM36.0555 18.0133H36.7178V17.351H36.0555V18.0133ZM25.0566 18.0133V17.351H24.3944V18.0133H25.0566ZM29.3334 18.0133H29.9957V17.351H29.3334V18.0133ZM18.3346 18.0133V17.351H17.6723V18.0133H18.3346ZM22.6114 18.0133H23.2736V17.351H22.6114V18.0133ZM11.6125 18.0133V17.351H10.9502V18.0133H11.6125ZM15.8893 18.0133H16.5516V17.351H15.8893V18.0133ZM13.9778 11.9168L14.5654 12.2221L14.5687 12.2158L14.5719 12.2094L13.9778 11.9168ZM33.6914 11.9168L33.099 12.213L33.1037 12.222L33.6914 11.9168ZM35.7549 15.8904V16.5526H36.845L36.3426 15.5852L35.7549 15.8904ZM11.9136 15.8904L11.3259 15.5851L10.8233 16.5526H11.9136V15.8904ZM20.8013 36.8357L20.1391 36.8358L20.1392 37.5073L20.8106 37.4979L20.8013 36.8357ZM26.8144 36.7515L26.8237 37.4137L27.4716 37.4046L27.4766 36.7566L26.8144 36.7515ZM29.3108 36.8357H28.6485V37.4979H29.3108V36.8357ZM18.3561 36.8357V37.4979H19.0183V36.8357H18.3561ZM12.907 23.2753L13.0023 22.6199L12.2447 22.5098V23.2753H12.907ZM17.1119 21.8507L17.5992 21.4021L17.1119 20.8729L16.6247 21.4021L17.1119 21.8507ZM23.834 21.8507L24.3212 21.4021L23.834 20.8729L23.3468 21.4021L23.834 21.8507ZM30.5561 21.8507L31.0433 21.4021L30.5561 20.8729L30.0689 21.4021L30.5561 21.8507ZM34.7734 23.2754H35.4357V22.51L34.6782 22.62L34.7734 23.2754ZM26.8587 31.0134L26.1964 31.0083L26.8587 31.0134ZM39.163 19.2222V16.7907H37.8385V19.2222H39.163ZM39.163 16.7907C39.163 16.6233 39.1124 16.3439 39.037 16.1395L37.7944 16.598C37.8033 16.6221 37.8163 16.6692 37.827 16.7259C37.832 16.752 37.8354 16.7745 37.8373 16.7908C37.8398 16.811 37.8385 16.8089 37.8385 16.7907H39.163ZM39.0362 16.1374C38.9322 15.8584 39.1198 16.2713 36.4713 10.9656L35.2863 11.5571C37.9778 16.9493 37.7239 16.4089 37.7952 16.6001L39.0362 16.1374ZM36.471 10.9649C35.8823 9.78896 34.6954 9.05649 33.381 9.05649V10.381C34.1943 10.381 34.9225 10.8306 35.2866 11.5578L36.471 10.9649ZM33.381 9.05649H14.2882V10.381H33.381V9.05649ZM14.2882 9.05649C12.9738 9.05649 11.7869 9.78896 11.1982 10.9649L12.3826 11.5578C12.7467 10.8306 13.4749 10.381 14.2882 10.381V9.05649ZM11.1982 10.9649L8.704 15.9467L9.88837 16.5397L12.3826 11.5578L11.1982 10.9649ZM8.70678 15.9413C8.63459 16.0822 8.58795 16.2575 8.56159 16.3737C8.535 16.4908 8.50498 16.6551 8.50498 16.7907H9.82949C9.82949 16.8097 9.82802 16.8062 9.83324 16.7713C9.83755 16.7425 9.84439 16.7059 9.85325 16.6668C9.86215 16.6276 9.87172 16.592 9.88042 16.5644C9.89069 16.5317 9.89384 16.5291 9.88559 16.5452L8.70678 15.9413ZM8.50498 16.7907V19.2222H9.82949V16.7907H8.50498ZM8.50498 19.2222C8.50498 20.7482 9.16875 22.1086 10.2005 23.0628L11.0998 22.0905C10.3197 21.3689 9.82949 20.3533 9.82949 19.2222H8.50498ZM9.98789 22.5766C9.98697 32.8047 9.98674 35.3857 9.9867 35.776C9.9867 35.8004 9.9867 35.8162 9.9867 35.8248C9.9867 35.8291 9.9867 35.8316 9.9867 35.8325C9.9867 35.8327 9.9867 35.8328 9.9867 35.8328C10.649 35.1706 11.3112 35.8329 11.3112 35.8329C11.3112 35.8328 11.3112 35.8327 11.3112 35.8327C11.3112 35.8323 11.3112 35.8315 11.3112 35.8304C11.3112 35.8214 11.3112 35.7888 11.3112 35.7432C11.3112 35.6522 11.3112 35.5095 11.3113 35.4003C11.3113 35.3458 11.3113 35.2996 11.3113 35.2724C11.3113 35.2589 11.3113 35.2501 11.3113 35.2474C11.3113 35.247 11.3113 35.2468 11.3113 35.2467C11.3113 35.2466 11.3113 35.2465 11.3113 35.2465C10.649 35.9087 9.98675 35.2464 9.98675 35.2464C9.98675 35.2465 9.98675 35.247 9.98675 35.2479C9.98675 35.2498 9.98675 35.2533 9.98675 35.2588C9.98675 35.302 9.98673 35.4641 9.9867 35.8303L11.3112 35.8304C11.3112 35.4642 11.3113 35.3021 11.3113 35.2589C11.3113 35.2535 11.3113 35.2499 11.3113 35.2481C11.3113 35.2471 11.3113 35.2466 11.3113 35.2465C11.3113 35.2465 10.6491 34.5842 9.98675 35.2464C9.98675 35.2464 9.98675 35.2465 9.98675 35.2465C9.98675 35.2467 9.98675 35.2469 9.98675 35.2473C9.98675 35.25 9.98675 35.2588 9.98675 35.2723C9.98675 35.2995 9.98674 35.3456 9.98674 35.4002C9.98673 35.5093 9.98672 35.6521 9.98671 35.7431C9.9867 35.7886 9.9867 35.8212 9.9867 35.8303C9.9867 35.8314 9.9867 35.8322 9.9867 35.8325C9.9867 35.8326 9.9867 35.8327 9.9867 35.8327C9.9867 35.8328 10.6489 36.4951 11.3112 35.8329C11.3112 35.8329 11.3112 35.8328 11.3112 35.8326C11.3112 35.8317 11.3112 35.8292 11.3112 35.8249C11.3112 35.8163 11.3112 35.8005 11.3112 35.7761C11.3113 35.3859 11.3115 32.8048 11.3124 22.5767L9.98789 22.5766ZM9.9867 35.8303C9.9867 38.0986 11.8305 39.9432 14.0995 39.9432V38.6187C12.5622 38.6187 11.3112 37.3673 11.3112 35.8303H9.9867ZM14.0995 39.9432H33.5673V38.6187H14.0995V39.9432ZM33.5673 39.9432C35.8363 39.9432 37.6801 38.0986 37.6801 35.8303H36.3556C36.3556 37.3673 35.1046 38.6187 33.5673 38.6187V39.9432ZM37.6801 35.8303C37.6801 35.736 37.6801 35.6736 37.6801 35.6351C37.6801 35.6158 37.6801 35.6025 37.6801 35.5942C37.6801 35.59 37.6801 35.5871 37.6801 35.5852C37.6801 35.5843 37.6801 35.5837 37.6801 35.5833C37.6801 35.5831 37.6801 35.583 37.6801 35.5829C37.6801 35.5829 37.018 34.9207 36.3556 35.5826C36.3556 35.5828 36.3556 35.583 36.3556 35.583C36.3556 35.5851 36.3556 35.6501 36.3556 35.7129C36.3556 35.7443 36.3556 35.7751 36.3556 35.7974C36.3556 35.8085 36.3556 35.8174 36.3556 35.8232C36.3556 35.8261 36.3556 35.8282 36.3556 35.8293C36.3556 35.8296 36.3556 35.8298 36.3556 35.83C36.3556 35.8301 36.3556 35.8302 36.3556 35.8302C36.3556 35.8303 36.3556 35.8303 36.3556 35.8303C36.3556 35.8303 37.0176 35.1681 37.6801 35.8298C37.6801 35.83 37.6801 35.8302 37.6801 35.8302C37.6801 35.8301 37.6801 35.83 37.6801 35.8298C37.6801 35.8234 37.6801 35.7499 37.6801 35.5443C37.68 34.7218 37.6797 31.7859 37.6789 22.5775L36.3544 22.5776C36.3552 31.786 36.3555 34.7219 36.3556 35.5444C36.3556 35.75 36.3556 35.8235 36.3556 35.83C36.3556 35.8302 36.3556 35.8303 36.3556 35.8304C36.3556 35.8305 36.3556 35.8307 36.3556 35.8309C37.0181 36.4926 37.6801 35.8304 37.6801 35.8303C37.6801 35.8302 37.6801 35.8298 37.6801 35.8292C37.6801 35.8281 37.6801 35.826 37.6801 35.8231C37.6801 35.8173 37.6801 35.8084 37.6801 35.7972C37.6801 35.775 37.6801 35.7442 37.6801 35.7127C37.6801 35.6499 37.6801 35.585 37.6801 35.583C37.6801 35.5829 37.6801 35.5831 37.6801 35.5833C37.0177 36.2452 36.3556 35.583 36.3556 35.5831C36.3556 35.5831 36.3556 35.5832 36.3556 35.5834C36.3556 35.5838 36.3556 35.5844 36.3556 35.5853C36.3556 35.5872 36.3556 35.5901 36.3556 35.5943C36.3556 35.6027 36.3556 35.616 36.3556 35.6352C36.3556 35.6737 36.3556 35.7361 36.3556 35.8304L37.6801 35.8303ZM37.4662 23.0639C38.4985 22.1096 39.163 20.7488 39.163 19.2222H37.8385C37.8385 20.3536 37.3478 21.3696 36.5671 22.0912L37.4662 23.0639ZM35.3933 19.2222C35.3933 20.0356 34.7309 20.6983 33.9171 20.6983V22.0228C35.4626 22.0228 36.7178 20.7669 36.7178 19.2222H35.3933ZM33.9171 20.6983C33.1033 20.6983 32.441 20.0356 32.441 19.2222H31.1164C31.1164 20.7669 32.3716 22.0228 33.9171 22.0228V20.6983ZM32.441 19.2222V18.0133H31.1164V19.2222H32.441ZM31.7787 18.6755H36.0555V17.351H31.7787V18.6755ZM35.3933 18.0133V19.2222H36.7178V18.0133H35.3933ZM28.6712 19.2222C28.6712 20.0356 28.0088 20.6983 27.195 20.6983V22.0228C28.7406 22.0228 29.9957 20.7669 29.9957 19.2222H28.6712ZM27.195 20.6983C26.3813 20.6983 25.7189 20.0356 25.7189 19.2222H24.3944C24.3944 20.7669 25.6495 22.0228 27.195 22.0228V20.6983ZM25.7189 19.2222V18.0133H24.3944V19.2222H25.7189ZM25.0566 18.6755H29.3334V17.351H25.0566V18.6755ZM28.6712 18.0133V19.2222H29.9957V18.0133H28.6712ZM21.9491 19.2222C21.9491 20.0356 21.2867 20.6983 20.473 20.6983V22.0228C22.0185 22.0228 23.2736 20.7669 23.2736 19.2222H21.9491ZM20.473 20.6983C19.6592 20.6983 18.9968 20.0356 18.9968 19.2222H17.6723C17.6723 20.7669 18.9274 22.0228 20.473 22.0228V20.6983ZM18.9968 19.2222V18.0133H17.6723V19.2222H18.9968ZM18.3346 18.6755H22.6114V17.351H18.3346V18.6755ZM21.9491 18.0133V19.2222H23.2736V18.0133H21.9491ZM15.227 19.2222C15.227 20.0356 14.5647 20.6983 13.7509 20.6983V22.0228C15.2964 22.0228 16.5516 20.7669 16.5516 19.2222H15.227ZM13.7509 20.6983C12.9371 20.6983 12.2748 20.0356 12.2748 19.2222H10.9502C10.9502 20.7669 12.2054 22.0228 13.7509 22.0228V20.6983ZM12.2748 19.2222V18.0133H10.9502V19.2222H12.2748ZM11.6125 18.6755H15.8893V17.351H11.6125V18.6755ZM15.227 18.0133V19.2222H16.5516V18.0133H15.227ZM14.5719 12.2094C14.5175 12.3198 14.4048 12.3869 14.2882 12.3869V11.0624C13.9065 11.0624 13.555 11.2763 13.3836 11.6243L14.5719 12.2094ZM14.2882 12.3869H33.381V11.0624H14.2882V12.3869ZM33.381 12.3869C33.2597 12.3869 33.1525 12.3199 33.0991 12.213L34.2838 11.6207C34.1134 11.2798 33.7626 11.0624 33.381 11.0624V12.3869ZM33.1037 12.222L35.1671 16.1956L36.3426 15.5852L34.2792 11.6116L33.1037 12.222ZM35.7549 15.2281C35.754 15.2281 35.7531 15.2281 35.7521 15.2281C35.751 15.2281 35.7499 15.2281 35.7487 15.2281C35.7475 15.2281 35.7463 15.2281 35.7449 15.2281C35.7435 15.2281 35.7421 15.2281 35.7405 15.2281C35.739 15.2281 35.7374 15.2281 35.7357 15.2281C35.734 15.2281 35.7322 15.2281 35.7303 15.2281C35.7284 15.2281 35.7264 15.2281 35.7244 15.2281C35.7223 15.2281 35.7202 15.2281 35.7179 15.2281C35.7157 15.2281 35.7134 15.2281 35.711 15.2281C35.7086 15.2281 35.7061 15.2281 35.7036 15.2281C35.701 15.2281 35.6984 15.2281 35.6956 15.2281C35.6929 15.2281 35.6901 15.2281 35.6872 15.2281C35.6843 15.2281 35.6813 15.2281 35.6783 15.2281C35.6752 15.2281 35.672 15.2281 35.6688 15.2281C35.6656 15.2281 35.6623 15.2281 35.6589 15.2281C35.6555 15.2281 35.652 15.2281 35.6484 15.2281C35.6449 15.2281 35.6412 15.2281 35.6375 15.2281C35.6338 15.2281 35.63 15.2281 35.6261 15.2281C35.6222 15.2281 35.6182 15.2281 35.6142 15.2281C35.6101 15.2281 35.606 15.2281 35.6018 15.2281C35.5976 15.2281 35.5933 15.2281 35.5889 15.2281C35.5845 15.2281 35.5801 15.2281 35.5756 15.2281C35.571 15.2281 35.5664 15.2281 35.5617 15.2281C35.557 15.2281 35.5523 15.2281 35.5474 15.2281C35.5426 15.2281 35.5376 15.2281 35.5326 15.2281C35.5276 15.2281 35.5225 15.2281 35.5173 15.2281C35.5122 15.2281 35.5069 15.2281 35.5016 15.2281C35.4963 15.2281 35.4909 15.2281 35.4854 15.2281C35.4799 15.2281 35.4744 15.2281 35.4687 15.2281C35.4631 15.2281 35.4574 15.2281 35.4516 15.2281C35.4458 15.2281 35.4399 15.2281 35.434 15.2281C35.428 15.2281 35.422 15.2281 35.4159 15.2281C35.4098 15.2281 35.4036 15.2281 35.3974 15.2281C35.3911 15.2281 35.3848 15.2281 35.3784 15.2281C35.372 15.2281 35.3655 15.2281 35.3589 15.2281C35.3524 15.2281 35.3458 15.2281 35.339 15.2281C35.3323 15.2281 35.3256 15.2281 35.3187 15.2281C35.3118 15.2281 35.3049 15.2281 35.2979 15.2281C35.2909 15.2281 35.2838 15.2281 35.2767 15.2281C35.2695 15.2281 35.2623 15.2281 35.255 15.2281C35.2477 15.2281 35.2403 15.2281 35.2328 15.2281C35.2254 15.2281 35.2179 15.2281 35.2103 15.2281C35.2027 15.2281 35.195 15.2281 35.1873 15.2281C35.1795 15.2281 35.1717 15.2281 35.1638 15.2281C35.1559 15.2281 35.148 15.2281 35.1399 15.2281C35.1319 15.2281 35.1238 15.2281 35.1156 15.2281C35.1074 15.2281 35.0992 15.2281 35.0909 15.2281C35.0826 15.2281 35.0742 15.2281 35.0657 15.2281C35.0572 15.2281 35.0487 15.2281 35.0401 15.2281C35.0315 15.2281 35.0228 15.2281 35.0141 15.2281C35.0053 15.2281 34.9965 15.2281 34.9876 15.2281C34.9787 15.2281 34.9698 15.2281 34.9608 15.2281C34.9517 15.2281 34.9426 15.2281 34.9335 15.2281C34.9243 15.2281 34.9151 15.2281 34.9058 15.2281C34.8965 15.2281 34.8871 15.2281 34.8777 15.2281C34.8682 15.2281 34.8587 15.2281 34.8491 15.2281C34.8396 15.2281 34.8299 15.2281 34.8202 15.2281C34.8105 15.2281 34.8007 15.2281 34.7909 15.2281C34.781 15.2281 34.7711 15.2281 34.7611 15.2281C34.7511 15.2281 34.7411 15.2281 34.731 15.2281C34.7208 15.2281 34.7107 15.2281 34.7004 15.2281C34.6902 15.2281 34.6798 15.2281 34.6695 15.2281C34.6591 15.2281 34.6486 15.2281 34.6381 15.2281C34.6276 15.2281 34.617 15.2281 34.6064 15.2281C34.5957 15.2281 34.585 15.2281 34.5742 15.2281C34.5634 15.2281 34.5526 15.2281 34.5417 15.2281C34.5308 15.2281 34.5198 15.2281 34.5088 15.2281C34.4977 15.2281 34.4866 15.2281 34.4755 15.2281C34.4643 15.2281 34.4531 15.2281 34.4418 15.2281C34.4305 15.2281 34.4191 15.2281 34.4077 15.2281C34.3963 15.2281 34.3848 15.2281 34.3732 15.2281C34.3617 15.2281 34.3501 15.2281 34.3384 15.2281C34.3267 15.2281 34.315 15.2281 34.3032 15.2281C34.2914 15.2281 34.2795 15.2281 34.2676 15.2281C34.2557 15.2281 34.2437 15.2281 34.2317 15.2281C34.2196 15.2281 34.2075 15.2281 34.1953 15.2281C34.1832 15.2281 34.1709 15.2281 34.1586 15.2281C34.1463 15.2281 34.134 15.2281 34.1216 15.2281C34.1092 15.2281 34.0967 15.2281 34.0841 15.2281C34.0716 15.2281 34.059 15.2281 34.0464 15.2281C34.0337 15.2281 34.021 15.2281 34.0082 15.2281C33.9954 15.2281 33.9826 15.2281 33.9697 15.2281C33.9568 15.2281 33.9439 15.2281 33.9308 15.2281C33.9178 15.2281 33.9048 15.2281 33.8916 15.2281C33.8785 15.2281 33.8653 15.2281 33.8521 15.2281C33.8388 15.2281 33.8255 15.2281 33.8121 15.2281C33.7988 15.2281 33.7854 15.2281 33.7719 15.2281C33.7584 15.2281 33.7449 15.2281 33.7313 15.2281C33.7177 15.2281 33.704 15.2281 33.6903 15.2281C33.6766 15.2281 33.6628 15.2281 33.649 15.2281C33.6352 15.2281 33.6213 15.2281 33.6074 15.2281C33.5935 15.2281 33.5795 15.2281 33.5654 15.2281C33.5514 15.2281 33.5373 15.2281 33.5231 15.2281C33.5089 15.2281 33.4947 15.2281 33.4805 15.2281C33.4662 15.2281 33.4519 15.2281 33.4375 15.2281C33.4231 15.2281 33.4087 15.2281 33.3942 15.2281C33.3797 15.2281 33.3652 15.2281 33.3506 15.2281C33.336 15.2281 33.3213 15.2281 33.3066 15.2281C33.2919 15.2281 33.2772 15.2281 33.2623 15.2281C33.2475 15.2281 33.2327 15.2281 33.2178 15.2281C33.2028 15.2281 33.1879 15.2281 33.1728 15.2281C33.1578 15.2281 33.1427 15.2281 33.1276 15.2281C33.1125 15.2281 33.0973 15.2281 33.0821 15.2281C33.0668 15.2281 33.0515 15.2281 33.0362 15.2281C33.0209 15.2281 33.0055 15.2281 32.99 15.2281C32.9746 15.2281 32.9591 15.2281 32.9436 15.2281C32.928 15.2281 32.9124 15.2281 32.8968 15.2281C32.8811 15.2281 32.8654 15.2281 32.8497 15.2281C32.834 15.2281 32.8182 15.2281 32.8023 15.2281C32.7865 15.2281 32.7706 15.2281 32.7546 15.2281C32.7387 15.2281 32.7227 15.2281 32.7066 15.2281C32.6906 15.2281 32.6745 15.2281 32.6584 15.2281C32.6422 15.2281 32.626 15.2281 32.6098 15.2281C32.5935 15.2281 32.5773 15.2281 32.5609 15.2281C32.5446 15.2281 32.5282 15.2281 32.5118 15.2281C32.4953 15.2281 32.4789 15.2281 32.4623 15.2281C32.4458 15.2281 32.4292 15.2281 32.4126 15.2281C32.396 15.2281 32.3793 15.2281 32.3626 15.2281C32.3459 15.2281 32.3291 15.2281 32.3123 15.2281C32.2955 15.2281 32.2786 15.2281 32.2617 15.2281C32.2448 15.2281 32.2279 15.2281 32.2109 15.2281C32.1939 15.2281 32.1768 15.2281 32.1598 15.2281C32.1427 15.2281 32.1255 15.2281 32.1084 15.2281C32.0912 15.2281 32.074 15.2281 32.0567 15.2281C32.0394 15.2281 32.0221 15.2281 32.0048 15.2281C31.9874 15.2281 31.97 15.2281 31.9526 15.2281C31.9351 15.2281 31.9176 15.2281 31.9001 15.2281C31.8826 15.2281 31.865 15.2281 31.8474 15.2281C31.8297 15.2281 31.8121 15.2281 31.7944 15.2281C31.7767 15.2281 31.7589 15.2281 31.7411 15.2281C31.7233 15.2281 31.7055 15.2281 31.6876 15.2281C31.6697 15.2281 31.6518 15.2281 31.6339 15.2281C31.6159 15.2281 31.5979 15.2281 31.5798 15.2281C31.5618 15.2281 31.5437 15.2281 31.5256 15.2281C31.5075 15.2281 31.4893 15.2281 31.4711 15.2281C31.4529 15.2281 31.4346 15.2281 31.4163 15.2281C31.398 15.2281 31.3797 15.2281 31.3613 15.2281C31.3429 15.2281 31.3245 15.2281 31.3061 15.2281C31.2876 15.2281 31.2691 15.2281 31.2506 15.2281C31.2321 15.2281 31.2135 15.2281 31.1949 15.2281C31.1763 15.2281 31.1576 15.2281 31.1389 15.2281C31.1202 15.2281 31.1015 15.2281 31.0827 15.2281C31.064 15.2281 31.0452 15.2281 31.0263 15.2281C31.0075 15.2281 30.9886 15.2281 30.9697 15.2281C30.9507 15.2281 30.9318 15.2281 30.9128 15.2281C30.8938 15.2281 30.8748 15.2281 30.8557 15.2281C30.8366 15.2281 30.8175 15.2281 30.7984 15.2281C30.7792 15.2281 30.76 15.2281 30.7408 15.2281C30.7216 15.2281 30.7023 15.2281 30.6831 15.2281C30.6638 15.2281 30.6444 15.2281 30.6251 15.2281C30.6057 15.2281 30.5863 15.2281 30.5669 15.2281C30.5474 15.2281 30.528 15.2281 30.5085 15.2281C30.489 15.2281 30.4694 15.2281 30.4498 15.2281C30.4303 15.2281 30.4107 15.2281 30.391 15.2281C30.3714 15.2281 30.3517 15.2281 30.332 15.2281C30.3123 15.2281 30.2925 15.2281 30.2727 15.2281C30.253 15.2281 30.2332 15.2281 30.2133 15.2281C30.1935 15.2281 30.1736 15.2281 30.1537 15.2281C30.1337 15.2281 30.1138 15.2281 30.0938 15.2281C30.0738 15.2281 30.0538 15.2281 30.0338 15.2281C30.0137 15.2281 29.9937 15.2281 29.9736 15.2281C29.9534 15.2281 29.9333 15.2281 29.9131 15.2281C29.893 15.2281 29.8728 15.2281 29.8525 15.2281C29.8323 15.2281 29.812 15.2281 29.7917 15.2281C29.7714 15.2281 29.7511 15.2281 29.7307 15.2281C29.7104 15.2281 29.69 15.2281 29.6696 15.2281C29.6491 15.2281 29.6287 15.2281 29.6082 15.2281C29.5877 15.2281 29.5672 15.2281 29.5467 15.2281C29.5261 15.2281 29.5056 15.2281 29.485 15.2281C29.4644 15.2281 29.4437 15.2281 29.4231 15.2281C29.4024 15.2281 29.3817 15.2281 29.361 15.2281C29.3403 15.2281 29.3196 15.2281 29.2988 15.2281C29.278 15.2281 29.2572 15.2281 29.2364 15.2281C29.2156 15.2281 29.1947 15.2281 29.1738 15.2281C29.153 15.2281 29.132 15.2281 29.1111 15.2281C29.0902 15.2281 29.0692 15.2281 29.0482 15.2281C29.0272 15.2281 29.0062 15.2281 28.9852 15.2281C28.9641 15.2281 28.943 15.2281 28.9219 15.2281C28.9008 15.2281 28.8797 15.2281 28.8586 15.2281C28.8374 15.2281 28.8162 15.2281 28.795 15.2281C28.7738 15.2281 28.7526 15.2281 28.7314 15.2281C28.7101 15.2281 28.6888 15.2281 28.6675 15.2281C28.6462 15.2281 28.6249 15.2281 28.6036 15.2281C28.5822 15.2281 28.5608 15.2281 28.5394 15.2281C28.518 15.2281 28.4966 15.2281 28.4752 15.2281C28.4537 15.2281 28.4323 15.2281 28.4108 15.2281C28.3893 15.2281 28.3678 15.2281 28.3462 15.2281C28.3247 15.2281 28.3031 15.2281 28.2815 15.2281C28.2599 15.2281 28.2383 15.2281 28.2167 15.2281C28.1951 15.2281 28.1734 15.2281 28.1517 15.2281C28.1301 15.2281 28.1084 15.2281 28.0867 15.2281C28.0649 15.2281 28.0432 15.2281 28.0214 15.2281C27.9997 15.2281 27.9779 15.2281 27.9561 15.2281C27.9343 15.2281 27.9125 15.2281 27.8906 15.2281C27.8688 15.2281 27.8469 15.2281 27.825 15.2281C27.8031 15.2281 27.7812 15.2281 27.7593 15.2281C27.7374 15.2281 27.7154 15.2281 27.6935 15.2281C27.6715 15.2281 27.6495 15.2281 27.6275 15.2281C27.6055 15.2281 27.5835 15.2281 27.5614 15.2281C27.5394 15.2281 27.5173 15.2281 27.4952 15.2281C27.4732 15.2281 27.4511 15.2281 27.429 15.2281C27.4068 15.2281 27.3847 15.2281 27.3625 15.2281C27.3404 15.2281 27.3182 15.2281 27.296 15.2281C27.2738 15.2281 27.2516 15.2281 27.2294 15.2281C27.2072 15.2281 27.185 15.2281 27.1627 15.2281C27.1404 15.2281 27.1182 15.2281 27.0959 15.2281C27.0736 15.2281 27.0513 15.2281 27.029 15.2281C27.0066 15.2281 26.9843 15.2281 26.9619 15.2281C26.9396 15.2281 26.9172 15.2281 26.8948 15.2281C26.8725 15.2281 26.8501 15.2281 26.8276 15.2281C26.8052 15.2281 26.7828 15.2281 26.7603 15.2281C26.7379 15.2281 26.7154 15.2281 26.693 15.2281C26.6705 15.2281 26.648 15.2281 26.6255 15.2281C26.603 15.2281 26.5805 15.2281 26.5579 15.2281C26.5354 15.2281 26.5129 15.2281 26.4903 15.2281C26.4678 15.2281 26.4452 15.2281 26.4226 15.2281C26.4 15.2281 26.3774 15.2281 26.3548 15.2281C26.3322 15.2281 26.3096 15.2281 26.2869 15.2281C26.2643 15.2281 26.2417 15.2281 26.219 15.2281C26.1963 15.2281 26.1737 15.2281 26.151 15.2281C26.1283 15.2281 26.1056 15.2281 26.0829 15.2281C26.0602 15.2281 26.0375 15.2281 26.0147 15.2281C25.992 15.2281 25.9693 15.2281 25.9465 15.2281C25.9238 15.2281 25.901 15.2281 25.8782 15.2281C25.8555 15.2281 25.8327 15.2281 25.8099 15.2281C25.7871 15.2281 25.7643 15.2281 25.7415 15.2281C25.7187 15.2281 25.6959 15.2281 25.673 15.2281C25.6502 15.2281 25.6274 15.2281 25.6045 15.2281C25.5817 15.2281 25.5588 15.2281 25.536 15.2281C25.5131 15.2281 25.4902 15.2281 25.4674 15.2281C25.4445 15.2281 25.4216 15.2281 25.3987 15.2281C25.3758 15.2281 25.3529 15.2281 25.33 15.2281C25.3071 15.2281 25.2841 15.2281 25.2612 15.2281C25.2383 15.2281 25.2154 15.2281 25.1924 15.2281C25.1695 15.2281 25.1465 15.2281 25.1236 15.2281C25.1006 15.2281 25.0777 15.2281 25.0547 15.2281C25.0317 15.2281 25.0088 15.2281 24.9858 15.2281C24.9628 15.2281 24.9398 15.2281 24.9168 15.2281C24.8938 15.2281 24.8708 15.2281 24.8478 15.2281C24.8248 15.2281 24.8018 15.2281 24.7788 15.2281C24.7558 15.2281 24.7328 15.2281 24.7098 15.2281C24.6868 15.2281 24.6637 15.2281 24.6407 15.2281C24.6177 15.2281 24.5947 15.2281 24.5716 15.2281C24.5486 15.2281 24.5256 15.2281 24.5025 15.2281C24.4795 15.2281 24.4564 15.2281 24.4334 15.2281C24.4103 15.2281 24.3873 15.2281 24.3642 15.2281C24.3412 15.2281 24.3181 15.2281 24.2951 15.2281C24.272 15.2281 24.2489 15.2281 24.2259 15.2281C24.2028 15.2281 24.1797 15.2281 24.1567 15.2281C24.1336 15.2281 24.1105 15.2281 24.0875 15.2281C24.0644 15.2281 24.0413 15.2281 24.0183 15.2281C23.9952 15.2281 23.9721 15.2281 23.9491 15.2281C23.926 15.2281 23.9029 15.2281 23.8798 15.2281C23.8568 15.2281 23.8337 15.2281 23.8106 15.2281C23.7875 15.2281 23.7645 15.2281 23.7414 15.2281C23.7183 15.2281 23.6953 15.2281 23.6722 15.2281C23.6491 15.2281 23.626 15.2281 23.603 15.2281C23.5799 15.2281 23.5568 15.2281 23.5338 15.2281C23.5107 15.2281 23.4876 15.2281 23.4646 15.2281C23.4415 15.2281 23.4184 15.2281 23.3954 15.2281C23.3723 15.2281 23.3493 15.2281 23.3262 15.2281C23.3032 15.2281 23.2801 15.2281 23.2571 15.2281C23.234 15.2281 23.211 15.2281 23.1879 15.2281C23.1649 15.2281 23.1418 15.2281 23.1188 15.2281C23.0958 15.2281 23.0727 15.2281 23.0497 15.2281C23.0267 15.2281 23.0036 15.2281 22.9806 15.2281C22.9576 15.2281 22.9346 15.2281 22.9116 15.2281C22.8886 15.2281 22.8656 15.2281 22.8426 15.2281C22.8196 15.2281 22.7966 15.2281 22.7736 15.2281C22.7506 15.2281 22.7276 15.2281 22.7046 15.2281C22.6816 15.2281 22.6587 15.2281 22.6357 15.2281C22.6127 15.2281 22.5898 15.2281 22.5668 15.2281C22.5438 15.2281 22.5209 15.2281 22.4979 15.2281C22.475 15.2281 22.4521 15.2281 22.4291 15.2281C22.4062 15.2281 22.3833 15.2281 22.3604 15.2281C22.3375 15.2281 22.3145 15.2281 22.2916 15.2281C22.2687 15.2281 22.2459 15.2281 22.223 15.2281C22.2001 15.2281 22.1772 15.2281 22.1543 15.2281C22.1315 15.2281 22.1086 15.2281 22.0858 15.2281C22.0629 15.2281 22.0401 15.2281 22.0172 15.2281C21.9944 15.2281 21.9716 15.2281 21.9488 15.2281C21.926 15.2281 21.9031 15.2281 21.8804 15.2281C21.8576 15.2281 21.8348 15.2281 21.812 15.2281C21.7892 15.2281 21.7665 15.2281 21.7437 15.2281C21.7209 15.2281 21.6982 15.2281 21.6755 15.2281C21.6527 15.2281 21.63 15.2281 21.6073 15.2281C21.5846 15.2281 21.5619 15.2281 21.5392 15.2281C21.5165 15.2281 21.4938 15.2281 21.4712 15.2281C21.4485 15.2281 21.4259 15.2281 21.4032 15.2281C21.3806 15.2281 21.3579 15.2281 21.3353 15.2281C21.3127 15.2281 21.2901 15.2281 21.2675 15.2281C21.2449 15.2281 21.2224 15.2281 21.1998 15.2281C21.1772 15.2281 21.1547 15.2281 21.1321 15.2281C21.1096 15.2281 21.0871 15.2281 21.0646 15.2281C21.0421 15.2281 21.0196 15.2281 20.9971 15.2281C20.9746 15.2281 20.9521 15.2281 20.9297 15.2281C20.9072 15.2281 20.8848 15.2281 20.8624 15.2281C20.8399 15.2281 20.8175 15.2281 20.7951 15.2281C20.7727 15.2281 20.7504 15.2281 20.728 15.2281C20.7056 15.2281 20.6833 15.2281 20.661 15.2281C20.6386 15.2281 20.6163 15.2281 20.594 15.2281C20.5717 15.2281 20.5495 15.2281 20.5272 15.2281C20.5049 15.2281 20.4827 15.2281 20.4604 15.2281C20.4382 15.2281 20.416 15.2281 20.3938 15.2281C20.3716 15.2281 20.3494 15.2281 20.3273 15.2281C20.3051 15.2281 20.283 15.2281 20.2608 15.2281C20.2387 15.2281 20.2166 15.2281 20.1945 15.2281C20.1724 15.2281 20.1504 15.2281 20.1283 15.2281C20.1063 15.2281 20.0842 15.2281 20.0622 15.2281C20.0402 15.2281 20.0182 15.2281 19.9962 15.2281C19.9743 15.2281 19.9523 15.2281 19.9304 15.2281C19.9084 15.2281 19.8865 15.2281 19.8646 15.2281C19.8427 15.2281 19.8208 15.2281 19.799 15.2281C19.7771 15.2281 19.7553 15.2281 19.7335 15.2281C19.7117 15.2281 19.6899 15.2281 19.6681 15.2281C19.6463 15.2281 19.6246 15.2281 19.6029 15.2281C19.5811 15.2281 19.5594 15.2281 19.5377 15.2281C19.5161 15.2281 19.4944 15.2281 19.4728 15.2281C19.4511 15.2281 19.4295 15.2281 19.4079 15.2281C19.3863 15.2281 19.3647 15.2281 19.3432 15.2281C19.3216 15.2281 19.3001 15.2281 19.2786 15.2281C19.2571 15.2281 19.2356 15.2281 19.2142 15.2281C19.1927 15.2281 19.1713 15.2281 19.1499 15.2281C19.1284 15.2281 19.1071 15.2281 19.0857 15.2281C19.0643 15.2281 19.043 15.2281 19.0217 15.2281C19.0004 15.2281 18.9791 15.2281 18.9578 15.2281C18.9366 15.2281 18.9153 15.2281 18.8941 15.2281C18.8729 15.2281 18.8517 15.2281 18.8306 15.2281C18.8094 15.2281 18.7883 15.2281 18.7671 15.2281C18.746 15.2281 18.725 15.2281 18.7039 15.2281C18.6828 15.2281 18.6618 15.2281 18.6408 15.2281C18.6198 15.2281 18.5988 15.2281 18.5779 15.2281C18.5569 15.2281 18.536 15.2281 18.5151 15.2281C18.4942 15.2281 18.4733 15.2281 18.4525 15.2281C18.4317 15.2281 18.4109 15.2281 18.3901 15.2281C18.3693 15.2281 18.3485 15.2281 18.3278 15.2281C18.3071 15.2281 18.2864 15.2281 18.2657 15.2281C18.245 15.2281 18.2244 15.2281 18.2038 15.2281C18.1832 15.2281 18.1626 15.2281 18.142 15.2281C18.1215 15.2281 18.1009 15.2281 18.0805 15.2281C18.06 15.2281 18.0395 15.2281 18.0191 15.2281C17.9986 15.2281 17.9782 15.2281 17.9578 15.2281C17.9375 15.2281 17.9171 15.2281 17.8968 15.2281C17.8765 15.2281 17.8562 15.2281 17.836 15.2281C17.8157 15.2281 17.7955 15.2281 17.7753 15.2281C17.7551 15.2281 17.735 15.2281 17.7149 15.2281C17.6947 15.2281 17.6746 15.2281 17.6546 15.2281C17.6345 15.2281 17.6145 15.2281 17.5945 15.2281C17.5745 15.2281 17.5545 15.2281 17.5346 15.2281C17.5147 15.2281 17.4948 15.2281 17.4749 15.2281C17.4551 15.2281 17.4352 15.2281 17.4154 15.2281C17.3956 15.2281 17.3759 15.2281 17.3561 15.2281C17.3364 15.2281 17.3167 15.2281 17.2971 15.2281C17.2774 15.2281 17.2578 15.2281 17.2382 15.2281C17.2186 15.2281 17.199 15.2281 17.1795 15.2281C17.16 15.2281 17.1405 15.2281 17.1211 15.2281C17.1016 15.2281 17.0822 15.2281 17.0628 15.2281C17.0434 15.2281 17.0241 15.2281 17.0048 15.2281C16.9855 15.2281 16.9662 15.2281 16.947 15.2281C16.9277 15.2281 16.9085 15.2281 16.8894 15.2281C16.8702 15.2281 16.8511 15.2281 16.832 15.2281C16.8129 15.2281 16.7939 15.2281 16.7749 15.2281C16.7558 15.2281 16.7369 15.2281 16.7179 15.2281C16.699 15.2281 16.6801 15.2281 16.6612 15.2281C16.6424 15.2281 16.6235 15.2281 16.6048 15.2281C16.586 15.2281 16.5672 15.2281 16.5485 15.2281C16.5298 15.2281 16.5111 15.2281 16.4925 15.2281C16.4739 15.2281 16.4553 15.2281 16.4367 15.2281C16.4182 15.2281 16.3997 15.2281 16.3812 15.2281C16.3627 15.2281 16.3443 15.2281 16.3259 15.2281C16.3075 15.2281 16.2892 15.2281 16.2708 15.2281C16.2525 15.2281 16.2343 15.2281 16.216 15.2281C16.1978 15.2281 16.1796 15.2281 16.1615 15.2281C16.1433 15.2281 16.1252 15.2281 16.1071 15.2281C16.0891 15.2281 16.0711 15.2281 16.0531 15.2281C16.0351 15.2281 16.0172 15.2281 15.9993 15.2281C15.9814 15.2281 15.9635 15.2281 15.9457 15.2281C15.9279 15.2281 15.9101 15.2281 15.8924 15.2281C15.8747 15.2281 15.857 15.2281 15.8393 15.2281C15.8217 15.2281 15.8041 15.2281 15.7865 15.2281C15.769 15.2281 15.7515 15.2281 15.734 15.2281C15.7166 15.2281 15.6991 15.2281 15.6818 15.2281C15.6644 15.2281 15.647 15.2281 15.6298 15.2281C15.6125 15.2281 15.5952 15.2281 15.578 15.2281C15.5608 15.2281 15.5437 15.2281 15.5266 15.2281C15.5095 15.2281 15.4924 15.2281 15.4754 15.2281C15.4584 15.2281 15.4414 15.2281 15.4245 15.2281C15.4075 15.2281 15.3907 15.2281 15.3738 15.2281C15.357 15.2281 15.3402 15.2281 15.3235 15.2281C15.3067 15.2281 15.29 15.2281 15.2734 15.2281C15.2568 15.2281 15.2402 15.2281 15.2236 15.2281C15.2071 15.2281 15.1906 15.2281 15.1741 15.2281C15.1576 15.2281 15.1412 15.2281 15.1249 15.2281C15.1085 15.2281 15.0922 15.2281 15.0759 15.2281C15.0597 15.2281 15.0435 15.2281 15.0273 15.2281C15.0111 15.2281 14.995 15.2281 14.979 15.2281C14.9629 15.2281 14.9469 15.2281 14.9309 15.2281C14.9149 15.2281 14.899 15.2281 14.8832 15.2281C14.8673 15.2281 14.8515 15.2281 14.8357 15.2281C14.8199 15.2281 14.8042 15.2281 14.7885 15.2281C14.7729 15.2281 14.7573 15.2281 14.7417 15.2281C14.7261 15.2281 14.7106 15.2281 14.6951 15.2281C14.6797 15.2281 14.6643 15.2281 14.6489 15.2281C14.6335 15.2281 14.6182 15.2281 14.603 15.2281C14.5877 15.2281 14.5725 15.2281 14.5574 15.2281C14.5422 15.2281 14.5271 15.2281 14.5121 15.2281C14.497 15.2281 14.482 15.2281 14.4671 15.2281C14.4521 15.2281 14.4372 15.2281 14.4224 15.2281C14.4076 15.2281 14.3928 15.2281 14.3781 15.2281C14.3633 15.2281 14.3487 15.2281 14.334 15.2281C14.3194 15.2281 14.3048 15.2281 14.2903 15.2281C14.2758 15.2281 14.2614 15.2281 14.247 15.2281C14.2326 15.2281 14.2182 15.2281 14.2039 15.2281C14.1896 15.2281 14.1754 15.2281 14.1612 15.2281C14.147 15.2281 14.1329 15.2281 14.1188 15.2281C14.1047 15.2281 14.0907 15.2281 14.0768 15.2281C14.0628 15.2281 14.0489 15.2281 14.035 15.2281C14.0212 15.2281 14.0074 15.2281 13.9937 15.2281C13.9799 15.2281 13.9663 15.2281 13.9526 15.2281C13.939 15.2281 13.9255 15.2281 13.912 15.2281C13.8984 15.2281 13.885 15.2281 13.8716 15.2281C13.8582 15.2281 13.8449 15.2281 13.8316 15.2281C13.8183 15.2281 13.8051 15.2281 13.792 15.2281C13.7788 15.2281 13.7657 15.2281 13.7527 15.2281C13.7396 15.2281 13.7266 15.2281 13.7137 15.2281C13.7008 15.2281 13.6879 15.2281 13.6751 15.2281C13.6623 15.2281 13.6496 15.2281 13.6369 15.2281C13.6242 15.2281 13.6116 15.2281 13.599 15.2281C13.5865 15.2281 13.574 15.2281 13.5615 15.2281C13.5491 15.2281 13.5367 15.2281 13.5244 15.2281C13.5121 15.2281 13.4998 15.2281 13.4876 15.2281C13.4754 15.2281 13.4633 15.2281 13.4512 15.2281C13.4391 15.2281 13.4271 15.2281 13.4151 15.2281C13.4032 15.2281 13.3913 15.2281 13.3795 15.2281C13.3676 15.2281 13.3559 15.2281 13.3442 15.2281C13.3325 15.2281 13.3208 15.2281 13.3093 15.2281C13.2977 15.2281 13.2862 15.2281 13.2747 15.2281C13.2633 15.2281 13.2519 15.2281 13.2406 15.2281C13.2292 15.2281 13.218 15.2281 13.2068 15.2281C13.1956 15.2281 13.1844 15.2281 13.1734 15.2281C13.1623 15.2281 13.1513 15.2281 13.1404 15.2281C13.1294 15.2281 13.1186 15.2281 13.1077 15.2281C13.0969 15.2281 13.0862 15.2281 13.0755 15.2281C13.0648 15.2281 13.0542 15.2281 13.0437 15.2281C13.0331 15.2281 13.0227 15.2281 13.0122 15.2281C13.0018 15.2281 12.9915 15.2281 12.9812 15.2281C12.9709 15.2281 12.9607 15.2281 12.9505 15.2281C12.9404 15.2281 12.9303 15.2281 12.9203 15.2281C12.9103 15.2281 12.9003 15.2281 12.8905 15.2281C12.8806 15.2281 12.8708 15.2281 12.861 15.2281C12.8513 15.2281 12.8416 15.2281 12.832 15.2281C12.8224 15.2281 12.8128 15.2281 12.8034 15.2281C12.7939 15.2281 12.7845 15.2281 12.7752 15.2281C12.7658 15.2281 12.7566 15.2281 12.7474 15.2281C12.7382 15.2281 12.729 15.2281 12.72 15.2281C12.7109 15.2281 12.7019 15.2281 12.693 15.2281C12.6841 15.2281 12.6753 15.2281 12.6665 15.2281C12.6577 15.2281 12.649 15.2281 12.6404 15.2281C12.6317 15.2281 12.6232 15.2281 12.6147 15.2281C12.6062 15.2281 12.5977 15.2281 12.5894 15.2281C12.581 15.2281 12.5728 15.2281 12.5646 15.2281C12.5563 15.2281 12.5482 15.2281 12.5401 15.2281C12.5321 15.2281 12.5241 15.2281 12.5162 15.2281C12.5082 15.2281 12.5004 15.2281 12.4926 15.2281C12.4848 15.2281 12.4771 15.2281 12.4695 15.2281C12.4619 15.2281 12.4543 15.2281 12.4468 15.2281C12.4393 15.2281 12.4319 15.2281 12.4246 15.2281C12.4173 15.2281 12.41 15.2281 12.4028 15.2281C12.3956 15.2281 12.3885 15.2281 12.3815 15.2281C12.3744 15.2281 12.3675 15.2281 12.3606 15.2281C12.3537 15.2281 12.3469 15.2281 12.3401 15.2281C12.3334 15.2281 12.3267 15.2281 12.3201 15.2281C12.3135 15.2281 12.307 15.2281 12.3006 15.2281C12.2941 15.2281 12.2878 15.2281 12.2815 15.2281C12.2752 15.2281 12.269 15.2281 12.2628 15.2281C12.2567 15.2281 12.2506 15.2281 12.2447 15.2281C12.2387 15.2281 12.2328 15.2281 12.227 15.2281C12.2211 15.2281 12.2154 15.2281 12.2097 15.2281C12.204 15.2281 12.1984 15.2281 12.1929 15.2281C12.1874 15.2281 12.182 15.2281 12.1766 15.2281C12.1712 15.2281 12.166 15.2281 12.1608 15.2281C12.1555 15.2281 12.1504 15.2281 12.1454 15.2281C12.1403 15.2281 12.1354 15.2281 12.1305 15.2281C12.1256 15.2281 12.1208 15.2281 12.116 15.2281C12.1113 15.2281 12.1067 15.2281 12.1021 15.2281C12.0975 15.2281 12.093 15.2281 12.0886 15.2281C12.0842 15.2281 12.0799 15.2281 12.0756 15.2281C12.0714 15.2281 12.0672 15.2281 12.0631 15.2281C12.059 15.2281 12.055 15.2281 12.0511 15.2281C12.0472 15.2281 12.0433 15.2281 12.0396 15.2281C12.0358 15.2281 12.0321 15.2281 12.0285 15.2281C12.0249 15.2281 12.0214 15.2281 12.018 15.2281C12.0146 15.2281 12.0112 15.2281 12.0079 15.2281C12.0047 15.2281 12.0015 15.2281 11.9984 15.2281C11.9953 15.2281 11.9923 15.2281 11.9893 15.2281C11.9864 15.2281 11.9835 15.2281 11.9808 15.2281C11.978 15.2281 11.9753 15.2281 11.9727 15.2281C11.9701 15.2281 11.9676 15.2281 11.9652 15.2281C11.9627 15.2281 11.9604 15.2281 11.9581 15.2281C11.9559 15.2281 11.9537 15.2281 11.9516 15.2281C11.9495 15.2281 11.9475 15.2281 11.9456 15.2281C11.9436 15.2281 11.9418 15.2281 11.94 15.2281C11.9383 15.2281 11.9366 15.2281 11.935 15.2281C11.9335 15.2281 11.932 15.2281 11.9306 15.2281C11.9292 15.2281 11.9278 15.2281 11.9266 15.2281C11.9254 15.2281 11.9242 15.2281 11.9232 15.2281C11.9221 15.2281 11.9211 15.2281 11.9203 15.2281C11.9194 15.2281 11.9186 15.2281 11.9179 15.2281C11.9172 15.2281 11.9165 15.2281 11.916 15.2281C11.9155 15.2281 11.915 15.2281 11.9147 15.2281C11.9143 15.2281 11.914 15.2281 11.9139 15.2281C11.9137 15.2281 11.9136 15.2281 11.9136 15.8904C11.9136 16.5526 11.9137 16.5526 11.9139 16.5526C11.914 16.5526 11.9143 16.5526 11.9147 16.5526C11.915 16.5526 11.9155 16.5526 11.916 16.5526C11.9165 16.5526 11.9172 16.5526 11.9179 16.5526C11.9186 16.5526 11.9194 16.5526 11.9203 16.5526C11.9211 16.5526 11.9221 16.5526 11.9232 16.5526C11.9242 16.5526 11.9254 16.5526 11.9266 16.5526C11.9278 16.5526 11.9292 16.5526 11.9306 16.5526C11.932 16.5526 11.9335 16.5526 11.935 16.5526C11.9366 16.5526 11.9383 16.5526 11.94 16.5526C11.9418 16.5526 11.9436 16.5526 11.9456 16.5526C11.9475 16.5526 11.9495 16.5526 11.9516 16.5526C11.9537 16.5526 11.9559 16.5526 11.9581 16.5526C11.9604 16.5526 11.9627 16.5526 11.9652 16.5526C11.9676 16.5526 11.9701 16.5526 11.9727 16.5526C11.9753 16.5526 11.978 16.5526 11.9808 16.5526C11.9835 16.5526 11.9864 16.5526 11.9893 16.5526C11.9923 16.5526 11.9953 16.5526 11.9984 16.5526C12.0015 16.5526 12.0047 16.5526 12.0079 16.5526C12.0112 16.5526 12.0146 16.5526 12.018 16.5526C12.0214 16.5526 12.0249 16.5526 12.0285 16.5526C12.0321 16.5526 12.0358 16.5526 12.0396 16.5526C12.0433 16.5526 12.0472 16.5526 12.0511 16.5526C12.055 16.5526 12.059 16.5526 12.0631 16.5526C12.0672 16.5526 12.0714 16.5526 12.0756 16.5526C12.0799 16.5526 12.0842 16.5526 12.0886 16.5526C12.093 16.5526 12.0975 16.5526 12.1021 16.5526C12.1067 16.5526 12.1113 16.5526 12.116 16.5526C12.1208 16.5526 12.1256 16.5526 12.1305 16.5526C12.1354 16.5526 12.1403 16.5526 12.1454 16.5526C12.1504 16.5526 12.1555 16.5526 12.1608 16.5526C12.166 16.5526 12.1712 16.5526 12.1766 16.5526C12.182 16.5526 12.1874 16.5526 12.1929 16.5526C12.1984 16.5526 12.204 16.5526 12.2097 16.5526C12.2154 16.5526 12.2211 16.5526 12.227 16.5526C12.2328 16.5526 12.2387 16.5526 12.2447 16.5526C12.2506 16.5526 12.2567 16.5526 12.2628 16.5526C12.269 16.5526 12.2752 16.5526 12.2815 16.5526C12.2878 16.5526 12.2941 16.5526 12.3006 16.5526C12.307 16.5526 12.3135 16.5526 12.3201 16.5526C12.3267 16.5526 12.3334 16.5526 12.3401 16.5526C12.3469 16.5526 12.3537 16.5526 12.3606 16.5526C12.3675 16.5526 12.3744 16.5526 12.3815 16.5526C12.3885 16.5526 12.3956 16.5526 12.4028 16.5526C12.41 16.5526 12.4173 16.5526 12.4246 16.5526C12.4319 16.5526 12.4393 16.5526 12.4468 16.5526C12.4543 16.5526 12.4619 16.5526 12.4695 16.5526C12.4771 16.5526 12.4848 16.5526 12.4926 16.5526C12.5004 16.5526 12.5082 16.5526 12.5162 16.5526C12.5241 16.5526 12.5321 16.5526 12.5401 16.5526C12.5482 16.5526 12.5563 16.5526 12.5646 16.5526C12.5728 16.5526 12.581 16.5526 12.5894 16.5526C12.5977 16.5526 12.6062 16.5526 12.6147 16.5526C12.6232 16.5526 12.6317 16.5526 12.6404 16.5526C12.649 16.5526 12.6577 16.5526 12.6665 16.5526C12.6753 16.5526 12.6841 16.5526 12.693 16.5526C12.7019 16.5526 12.7109 16.5526 12.72 16.5526C12.729 16.5526 12.7382 16.5526 12.7474 16.5526C12.7566 16.5526 12.7658 16.5526 12.7752 16.5526C12.7845 16.5526 12.7939 16.5526 12.8034 16.5526C12.8128 16.5526 12.8224 16.5526 12.832 16.5526C12.8416 16.5526 12.8513 16.5526 12.861 16.5526C12.8708 16.5526 12.8806 16.5526 12.8905 16.5526C12.9003 16.5526 12.9103 16.5526 12.9203 16.5526C12.9303 16.5526 12.9404 16.5526 12.9505 16.5526C12.9607 16.5526 12.9709 16.5526 12.9812 16.5526C12.9915 16.5526 13.0018 16.5526 13.0122 16.5526C13.0227 16.5526 13.0331 16.5526 13.0437 16.5526C13.0542 16.5526 13.0648 16.5526 13.0755 16.5526C13.0862 16.5526 13.0969 16.5526 13.1077 16.5526C13.1186 16.5526 13.1294 16.5526 13.1404 16.5526C13.1513 16.5526 13.1623 16.5526 13.1734 16.5526C13.1844 16.5526 13.1956 16.5526 13.2068 16.5526C13.218 16.5526 13.2292 16.5526 13.2406 16.5526C13.2519 16.5526 13.2633 16.5526 13.2747 16.5526C13.2862 16.5526 13.2977 16.5526 13.3093 16.5526C13.3208 16.5526 13.3325 16.5526 13.3442 16.5526C13.3559 16.5526 13.3676 16.5526 13.3795 16.5526C13.3913 16.5526 13.4032 16.5526 13.4151 16.5526C13.4271 16.5526 13.4391 16.5526 13.4512 16.5526C13.4633 16.5526 13.4754 16.5526 13.4876 16.5526C13.4998 16.5526 13.5121 16.5526 13.5244 16.5526C13.5367 16.5526 13.5491 16.5526 13.5615 16.5526C13.574 16.5526 13.5865 16.5526 13.599 16.5526C13.6116 16.5526 13.6242 16.5526 13.6369 16.5526C13.6496 16.5526 13.6623 16.5526 13.6751 16.5526C13.6879 16.5526 13.7008 16.5526 13.7137 16.5526C13.7266 16.5526 13.7396 16.5526 13.7527 16.5526C13.7657 16.5526 13.7788 16.5526 13.792 16.5526C13.8051 16.5526 13.8183 16.5526 13.8316 16.5526C13.8449 16.5526 13.8582 16.5526 13.8716 16.5526C13.885 16.5526 13.8984 16.5526 13.912 16.5526C13.9255 16.5526 13.939 16.5526 13.9526 16.5526C13.9663 16.5526 13.9799 16.5526 13.9937 16.5526C14.0074 16.5526 14.0212 16.5526 14.035 16.5526C14.0489 16.5526 14.0628 16.5526 14.0768 16.5526C14.0907 16.5526 14.1047 16.5526 14.1188 16.5526C14.1329 16.5526 14.147 16.5526 14.1612 16.5526C14.1754 16.5526 14.1896 16.5526 14.2039 16.5526C14.2182 16.5526 14.2326 16.5526 14.247 16.5526C14.2614 16.5526 14.2758 16.5526 14.2903 16.5526C14.3048 16.5526 14.3194 16.5526 14.334 16.5526C14.3487 16.5526 14.3633 16.5526 14.3781 16.5526C14.3928 16.5526 14.4076 16.5526 14.4224 16.5526C14.4372 16.5526 14.4521 16.5526 14.4671 16.5526C14.482 16.5526 14.497 16.5526 14.5121 16.5526C14.5271 16.5526 14.5422 16.5526 14.5574 16.5526C14.5725 16.5526 14.5877 16.5526 14.603 16.5526C14.6182 16.5526 14.6335 16.5526 14.6489 16.5526C14.6643 16.5526 14.6797 16.5526 14.6951 16.5526C14.7106 16.5526 14.7261 16.5526 14.7417 16.5526C14.7573 16.5526 14.7729 16.5526 14.7885 16.5526C14.8042 16.5526 14.8199 16.5526 14.8357 16.5526C14.8515 16.5526 14.8673 16.5526 14.8832 16.5526C14.899 16.5526 14.9149 16.5526 14.9309 16.5526C14.9469 16.5526 14.9629 16.5526 14.979 16.5526C14.995 16.5526 15.0111 16.5526 15.0273 16.5526C15.0435 16.5526 15.0597 16.5526 15.0759 16.5526C15.0922 16.5526 15.1085 16.5526 15.1249 16.5526C15.1412 16.5526 15.1576 16.5526 15.1741 16.5526C15.1906 16.5526 15.2071 16.5526 15.2236 16.5526C15.2402 16.5526 15.2568 16.5526 15.2734 16.5526C15.29 16.5526 15.3067 16.5526 15.3235 16.5526C15.3402 16.5526 15.357 16.5526 15.3738 16.5526C15.3907 16.5526 15.4075 16.5526 15.4245 16.5526C15.4414 16.5526 15.4584 16.5526 15.4754 16.5526C15.4924 16.5526 15.5095 16.5526 15.5266 16.5526C15.5437 16.5526 15.5608 16.5526 15.578 16.5526C15.5952 16.5526 15.6125 16.5526 15.6298 16.5526C15.647 16.5526 15.6644 16.5526 15.6818 16.5526C15.6991 16.5526 15.7166 16.5526 15.734 16.5526C15.7515 16.5526 15.769 16.5526 15.7865 16.5526C15.8041 16.5526 15.8217 16.5526 15.8393 16.5526C15.857 16.5526 15.8747 16.5526 15.8924 16.5526C15.9101 16.5526 15.9279 16.5526 15.9457 16.5526C15.9635 16.5526 15.9814 16.5526 15.9993 16.5526C16.0172 16.5526 16.0351 16.5526 16.0531 16.5526C16.0711 16.5526 16.0891 16.5526 16.1071 16.5526C16.1252 16.5526 16.1433 16.5526 16.1615 16.5526C16.1796 16.5526 16.1978 16.5526 16.216 16.5526C16.2343 16.5526 16.2525 16.5526 16.2708 16.5526C16.2892 16.5526 16.3075 16.5526 16.3259 16.5526C16.3443 16.5526 16.3627 16.5526 16.3812 16.5526C16.3997 16.5526 16.4182 16.5526 16.4367 16.5526C16.4553 16.5526 16.4739 16.5526 16.4925 16.5526C16.5111 16.5526 16.5298 16.5526 16.5485 16.5526C16.5672 16.5526 16.586 16.5526 16.6048 16.5526C16.6235 16.5526 16.6424 16.5526 16.6612 16.5526C16.6801 16.5526 16.699 16.5526 16.7179 16.5526C16.7369 16.5526 16.7558 16.5526 16.7749 16.5526C16.7939 16.5526 16.8129 16.5526 16.832 16.5526C16.8511 16.5526 16.8702 16.5526 16.8894 16.5526C16.9085 16.5526 16.9277 16.5526 16.947 16.5526C16.9662 16.5526 16.9855 16.5526 17.0048 16.5526C17.0241 16.5526 17.0434 16.5526 17.0628 16.5526C17.0822 16.5526 17.1016 16.5526 17.1211 16.5526C17.1405 16.5526 17.16 16.5526 17.1795 16.5526C17.199 16.5526 17.2186 16.5526 17.2382 16.5526C17.2578 16.5526 17.2774 16.5526 17.2971 16.5526C17.3167 16.5526 17.3364 16.5526 17.3561 16.5526C17.3759 16.5526 17.3956 16.5526 17.4154 16.5526C17.4352 16.5526 17.4551 16.5526 17.4749 16.5526C17.4948 16.5526 17.5147 16.5526 17.5346 16.5526C17.5545 16.5526 17.5745 16.5526 17.5945 16.5526C17.6145 16.5526 17.6345 16.5526 17.6546 16.5526C17.6746 16.5526 17.6947 16.5526 17.7149 16.5526C17.735 16.5526 17.7551 16.5526 17.7753 16.5526C17.7955 16.5526 17.8157 16.5526 17.836 16.5526C17.8562 16.5526 17.8765 16.5526 17.8968 16.5526C17.9171 16.5526 17.9375 16.5526 17.9578 16.5526C17.9782 16.5526 17.9986 16.5526 18.0191 16.5526C18.0395 16.5526 18.06 16.5526 18.0805 16.5526C18.1009 16.5526 18.1215 16.5526 18.142 16.5526C18.1626 16.5526 18.1832 16.5526 18.2038 16.5526C18.2244 16.5526 18.245 16.5526 18.2657 16.5526C18.2864 16.5526 18.3071 16.5526 18.3278 16.5526C18.3485 16.5526 18.3693 16.5526 18.3901 16.5526C18.4109 16.5526 18.4317 16.5526 18.4525 16.5526C18.4733 16.5526 18.4942 16.5526 18.5151 16.5526C18.536 16.5526 18.5569 16.5526 18.5779 16.5526C18.5988 16.5526 18.6198 16.5526 18.6408 16.5526C18.6618 16.5526 18.6828 16.5526 18.7039 16.5526C18.725 16.5526 18.746 16.5526 18.7671 16.5526C18.7883 16.5526 18.8094 16.5526 18.8306 16.5526C18.8517 16.5526 18.8729 16.5526 18.8941 16.5526C18.9153 16.5526 18.9366 16.5526 18.9578 16.5526C18.9791 16.5526 19.0004 16.5526 19.0217 16.5526C19.043 16.5526 19.0643 16.5526 19.0857 16.5526C19.1071 16.5526 19.1284 16.5526 19.1499 16.5526C19.1713 16.5526 19.1927 16.5526 19.2142 16.5526C19.2356 16.5526 19.2571 16.5526 19.2786 16.5526C19.3001 16.5526 19.3216 16.5526 19.3432 16.5526C19.3647 16.5526 19.3863 16.5526 19.4079 16.5526C19.4295 16.5526 19.4511 16.5526 19.4728 16.5526C19.4944 16.5526 19.5161 16.5526 19.5377 16.5526C19.5594 16.5526 19.5811 16.5526 19.6029 16.5526C19.6246 16.5526 19.6463 16.5526 19.6681 16.5526C19.6899 16.5526 19.7117 16.5526 19.7335 16.5526C19.7553 16.5526 19.7771 16.5526 19.799 16.5526C19.8208 16.5526 19.8427 16.5526 19.8646 16.5526C19.8865 16.5526 19.9084 16.5526 19.9304 16.5526C19.9523 16.5526 19.9743 16.5526 19.9962 16.5526C20.0182 16.5526 20.0402 16.5526 20.0622 16.5526C20.0842 16.5526 20.1063 16.5526 20.1283 16.5526C20.1504 16.5526 20.1724 16.5526 20.1945 16.5526C20.2166 16.5526 20.2387 16.5526 20.2608 16.5526C20.283 16.5526 20.3051 16.5526 20.3273 16.5526C20.3494 16.5526 20.3716 16.5526 20.3938 16.5526C20.416 16.5526 20.4382 16.5526 20.4604 16.5526C20.4827 16.5526 20.5049 16.5526 20.5272 16.5526C20.5495 16.5526 20.5717 16.5526 20.594 16.5526C20.6163 16.5526 20.6386 16.5526 20.661 16.5526C20.6833 16.5526 20.7056 16.5526 20.728 16.5526C20.7504 16.5526 20.7727 16.5526 20.7951 16.5526C20.8175 16.5526 20.8399 16.5526 20.8624 16.5526C20.8848 16.5526 20.9072 16.5526 20.9297 16.5526C20.9521 16.5526 20.9746 16.5526 20.9971 16.5526C21.0196 16.5526 21.0421 16.5526 21.0646 16.5526C21.0871 16.5526 21.1096 16.5526 21.1321 16.5526C21.1547 16.5526 21.1772 16.5526 21.1998 16.5526C21.2224 16.5526 21.2449 16.5526 21.2675 16.5526C21.2901 16.5526 21.3127 16.5526 21.3353 16.5526C21.3579 16.5526 21.3806 16.5526 21.4032 16.5526C21.4259 16.5526 21.4485 16.5526 21.4712 16.5526C21.4938 16.5526 21.5165 16.5526 21.5392 16.5526C21.5619 16.5526 21.5846 16.5526 21.6073 16.5526C21.63 16.5526 21.6527 16.5526 21.6755 16.5526C21.6982 16.5526 21.7209 16.5526 21.7437 16.5526C21.7665 16.5526 21.7892 16.5526 21.812 16.5526C21.8348 16.5526 21.8576 16.5526 21.8804 16.5526C21.9031 16.5526 21.926 16.5526 21.9488 16.5526C21.9716 16.5526 21.9944 16.5526 22.0172 16.5526C22.0401 16.5526 22.0629 16.5526 22.0858 16.5526C22.1086 16.5526 22.1315 16.5526 22.1543 16.5526C22.1772 16.5526 22.2001 16.5526 22.223 16.5526C22.2459 16.5526 22.2687 16.5526 22.2916 16.5526C22.3145 16.5526 22.3375 16.5526 22.3604 16.5526C22.3833 16.5526 22.4062 16.5526 22.4291 16.5526C22.4521 16.5526 22.475 16.5526 22.4979 16.5526C22.5209 16.5526 22.5438 16.5526 22.5668 16.5526C22.5898 16.5526 22.6127 16.5526 22.6357 16.5526C22.6587 16.5526 22.6816 16.5526 22.7046 16.5526C22.7276 16.5526 22.7506 16.5526 22.7736 16.5526C22.7966 16.5526 22.8196 16.5526 22.8426 16.5526C22.8656 16.5526 22.8886 16.5526 22.9116 16.5526C22.9346 16.5526 22.9576 16.5526 22.9806 16.5526C23.0036 16.5526 23.0267 16.5526 23.0497 16.5526C23.0727 16.5526 23.0958 16.5526 23.1188 16.5526C23.1418 16.5526 23.1649 16.5526 23.1879 16.5526C23.211 16.5526 23.234 16.5526 23.2571 16.5526C23.2801 16.5526 23.3032 16.5526 23.3262 16.5526C23.3493 16.5526 23.3723 16.5526 23.3954 16.5526C23.4184 16.5526 23.4415 16.5526 23.4646 16.5526C23.4876 16.5526 23.5107 16.5526 23.5338 16.5526C23.5568 16.5526 23.5799 16.5526 23.603 16.5526C23.626 16.5526 23.6491 16.5526 23.6722 16.5526C23.6953 16.5526 23.7183 16.5526 23.7414 16.5526C23.7645 16.5526 23.7875 16.5526 23.8106 16.5526C23.8337 16.5526 23.8568 16.5526 23.8798 16.5526C23.9029 16.5526 23.926 16.5526 23.9491 16.5526C23.9721 16.5526 23.9952 16.5526 24.0183 16.5526C24.0413 16.5526 24.0644 16.5526 24.0875 16.5526C24.1105 16.5526 24.1336 16.5526 24.1567 16.5526C24.1797 16.5526 24.2028 16.5526 24.2259 16.5526C24.2489 16.5526 24.272 16.5526 24.2951 16.5526C24.3181 16.5526 24.3412 16.5526 24.3642 16.5526C24.3873 16.5526 24.4103 16.5526 24.4334 16.5526C24.4564 16.5526 24.4795 16.5526 24.5025 16.5526C24.5256 16.5526 24.5486 16.5526 24.5716 16.5526C24.5947 16.5526 24.6177 16.5526 24.6407 16.5526C24.6637 16.5526 24.6868 16.5526 24.7098 16.5526C24.7328 16.5526 24.7558 16.5526 24.7788 16.5526C24.8018 16.5526 24.8248 16.5526 24.8478 16.5526C24.8708 16.5526 24.8938 16.5526 24.9168 16.5526C24.9398 16.5526 24.9628 16.5526 24.9858 16.5526C25.0088 16.5526 25.0317 16.5526 25.0547 16.5526C25.0777 16.5526 25.1006 16.5526 25.1236 16.5526C25.1465 16.5526 25.1695 16.5526 25.1924 16.5526C25.2154 16.5526 25.2383 16.5526 25.2612 16.5526C25.2841 16.5526 25.3071 16.5526 25.33 16.5526C25.3529 16.5526 25.3758 16.5526 25.3987 16.5526C25.4216 16.5526 25.4445 16.5526 25.4674 16.5526C25.4902 16.5526 25.5131 16.5526 25.536 16.5526C25.5588 16.5526 25.5817 16.5526 25.6045 16.5526C25.6274 16.5526 25.6502 16.5526 25.673 16.5526C25.6959 16.5526 25.7187 16.5526 25.7415 16.5526C25.7643 16.5526 25.7871 16.5526 25.8099 16.5526C25.8327 16.5526 25.8555 16.5526 25.8782 16.5526C25.901 16.5526 25.9238 16.5526 25.9465 16.5526C25.9693 16.5526 25.992 16.5526 26.0147 16.5526C26.0375 16.5526 26.0602 16.5526 26.0829 16.5526C26.1056 16.5526 26.1283 16.5526 26.151 16.5526C26.1737 16.5526 26.1963 16.5526 26.219 16.5526C26.2417 16.5526 26.2643 16.5526 26.2869 16.5526C26.3096 16.5526 26.3322 16.5526 26.3548 16.5526C26.3774 16.5526 26.4 16.5526 26.4226 16.5526C26.4452 16.5526 26.4678 16.5526 26.4903 16.5526C26.5129 16.5526 26.5354 16.5526 26.5579 16.5526C26.5805 16.5526 26.603 16.5526 26.6255 16.5526C26.648 16.5526 26.6705 16.5526 26.693 16.5526C26.7154 16.5526 26.7379 16.5526 26.7603 16.5526C26.7828 16.5526 26.8052 16.5526 26.8276 16.5526C26.8501 16.5526 26.8725 16.5526 26.8948 16.5526C26.9172 16.5526 26.9396 16.5526 26.9619 16.5526C26.9843 16.5526 27.0066 16.5526 27.029 16.5526C27.0513 16.5526 27.0736 16.5526 27.0959 16.5526C27.1182 16.5526 27.1404 16.5526 27.1627 16.5526C27.185 16.5526 27.2072 16.5526 27.2294 16.5526C27.2516 16.5526 27.2738 16.5526 27.296 16.5526C27.3182 16.5526 27.3404 16.5526 27.3625 16.5526C27.3847 16.5526 27.4068 16.5526 27.429 16.5526C27.4511 16.5526 27.4732 16.5526 27.4952 16.5526C27.5173 16.5526 27.5394 16.5526 27.5614 16.5526C27.5835 16.5526 27.6055 16.5526 27.6275 16.5526C27.6495 16.5526 27.6715 16.5526 27.6935 16.5526C27.7154 16.5526 27.7374 16.5526 27.7593 16.5526C27.7812 16.5526 27.8031 16.5526 27.825 16.5526C27.8469 16.5526 27.8688 16.5526 27.8906 16.5526C27.9125 16.5526 27.9343 16.5526 27.9561 16.5526C27.9779 16.5526 27.9997 16.5526 28.0214 16.5526C28.0432 16.5526 28.0649 16.5526 28.0867 16.5526C28.1084 16.5526 28.1301 16.5526 28.1517 16.5526C28.1734 16.5526 28.1951 16.5526 28.2167 16.5526C28.2383 16.5526 28.2599 16.5526 28.2815 16.5526C28.3031 16.5526 28.3247 16.5526 28.3462 16.5526C28.3678 16.5526 28.3893 16.5526 28.4108 16.5526C28.4323 16.5526 28.4537 16.5526 28.4752 16.5526C28.4966 16.5526 28.518 16.5526 28.5394 16.5526C28.5608 16.5526 28.5822 16.5526 28.6036 16.5526C28.6249 16.5526 28.6462 16.5526 28.6675 16.5526C28.6888 16.5526 28.7101 16.5526 28.7314 16.5526C28.7526 16.5526 28.7738 16.5526 28.795 16.5526C28.8162 16.5526 28.8374 16.5526 28.8586 16.5526C28.8797 16.5526 28.9008 16.5526 28.9219 16.5526C28.943 16.5526 28.9641 16.5526 28.9852 16.5526C29.0062 16.5526 29.0272 16.5526 29.0482 16.5526C29.0692 16.5526 29.0902 16.5526 29.1111 16.5526C29.132 16.5526 29.153 16.5526 29.1738 16.5526C29.1947 16.5526 29.2156 16.5526 29.2364 16.5526C29.2572 16.5526 29.278 16.5526 29.2988 16.5526C29.3196 16.5526 29.3403 16.5526 29.361 16.5526C29.3817 16.5526 29.4024 16.5526 29.4231 16.5526C29.4437 16.5526 29.4644 16.5526 29.485 16.5526C29.5056 16.5526 29.5261 16.5526 29.5467 16.5526C29.5672 16.5526 29.5877 16.5526 29.6082 16.5526C29.6287 16.5526 29.6491 16.5526 29.6696 16.5526C29.69 16.5526 29.7104 16.5526 29.7307 16.5526C29.7511 16.5526 29.7714 16.5526 29.7917 16.5526C29.812 16.5526 29.8323 16.5526 29.8525 16.5526C29.8728 16.5526 29.893 16.5526 29.9131 16.5526C29.9333 16.5526 29.9534 16.5526 29.9736 16.5526C29.9937 16.5526 30.0137 16.5526 30.0338 16.5526C30.0538 16.5526 30.0738 16.5526 30.0938 16.5526C30.1138 16.5526 30.1337 16.5526 30.1537 16.5526C30.1736 16.5526 30.1935 16.5526 30.2133 16.5526C30.2332 16.5526 30.253 16.5526 30.2727 16.5526C30.2925 16.5526 30.3123 16.5526 30.332 16.5526C30.3517 16.5526 30.3714 16.5526 30.391 16.5526C30.4107 16.5526 30.4303 16.5526 30.4498 16.5526C30.4694 16.5526 30.489 16.5526 30.5085 16.5526C30.528 16.5526 30.5474 16.5526 30.5669 16.5526C30.5863 16.5526 30.6057 16.5526 30.6251 16.5526C30.6444 16.5526 30.6638 16.5526 30.6831 16.5526C30.7023 16.5526 30.7216 16.5526 30.7408 16.5526C30.76 16.5526 30.7792 16.5526 30.7984 16.5526C30.8175 16.5526 30.8366 16.5526 30.8557 16.5526C30.8748 16.5526 30.8938 16.5526 30.9128 16.5526C30.9318 16.5526 30.9507 16.5526 30.9697 16.5526C30.9886 16.5526 31.0075 16.5526 31.0263 16.5526C31.0452 16.5526 31.064 16.5526 31.0827 16.5526C31.1015 16.5526 31.1202 16.5526 31.1389 16.5526C31.1576 16.5526 31.1763 16.5526 31.1949 16.5526C31.2135 16.5526 31.2321 16.5526 31.2506 16.5526C31.2691 16.5526 31.2876 16.5526 31.3061 16.5526C31.3245 16.5526 31.3429 16.5526 31.3613 16.5526C31.3797 16.5526 31.398 16.5526 31.4163 16.5526C31.4346 16.5526 31.4529 16.5526 31.4711 16.5526C31.4893 16.5526 31.5075 16.5526 31.5256 16.5526C31.5437 16.5526 31.5618 16.5526 31.5798 16.5526C31.5979 16.5526 31.6159 16.5526 31.6339 16.5526C31.6518 16.5526 31.6697 16.5526 31.6876 16.5526C31.7055 16.5526 31.7233 16.5526 31.7411 16.5526C31.7589 16.5526 31.7767 16.5526 31.7944 16.5526C31.8121 16.5526 31.8297 16.5526 31.8474 16.5526C31.865 16.5526 31.8826 16.5526 31.9001 16.5526C31.9176 16.5526 31.9351 16.5526 31.9526 16.5526C31.97 16.5526 31.9874 16.5526 32.0048 16.5526C32.0221 16.5526 32.0394 16.5526 32.0567 16.5526C32.074 16.5526 32.0912 16.5526 32.1084 16.5526C32.1255 16.5526 32.1427 16.5526 32.1598 16.5526C32.1768 16.5526 32.1939 16.5526 32.2109 16.5526C32.2279 16.5526 32.2448 16.5526 32.2617 16.5526C32.2786 16.5526 32.2955 16.5526 32.3123 16.5526C32.3291 16.5526 32.3459 16.5526 32.3626 16.5526C32.3793 16.5526 32.396 16.5526 32.4126 16.5526C32.4292 16.5526 32.4458 16.5526 32.4623 16.5526C32.4789 16.5526 32.4953 16.5526 32.5118 16.5526C32.5282 16.5526 32.5446 16.5526 32.5609 16.5526C32.5773 16.5526 32.5935 16.5526 32.6098 16.5526C32.626 16.5526 32.6422 16.5526 32.6584 16.5526C32.6745 16.5526 32.6906 16.5526 32.7066 16.5526C32.7227 16.5526 32.7387 16.5526 32.7546 16.5526C32.7706 16.5526 32.7865 16.5526 32.8023 16.5526C32.8182 16.5526 32.834 16.5526 32.8497 16.5526C32.8654 16.5526 32.8811 16.5526 32.8968 16.5526C32.9124 16.5526 32.928 16.5526 32.9436 16.5526C32.9591 16.5526 32.9746 16.5526 32.99 16.5526C33.0055 16.5526 33.0209 16.5526 33.0362 16.5526C33.0515 16.5526 33.0668 16.5526 33.0821 16.5526C33.0973 16.5526 33.1125 16.5526 33.1276 16.5526C33.1427 16.5526 33.1578 16.5526 33.1728 16.5526C33.1879 16.5526 33.2028 16.5526 33.2178 16.5526C33.2327 16.5526 33.2475 16.5526 33.2623 16.5526C33.2772 16.5526 33.2919 16.5526 33.3066 16.5526C33.3213 16.5526 33.336 16.5526 33.3506 16.5526C33.3652 16.5526 33.3797 16.5526 33.3942 16.5526C33.4087 16.5526 33.4231 16.5526 33.4375 16.5526C33.4519 16.5526 33.4662 16.5526 33.4805 16.5526C33.4947 16.5526 33.5089 16.5526 33.5231 16.5526C33.5373 16.5526 33.5514 16.5526 33.5654 16.5526C33.5795 16.5526 33.5935 16.5526 33.6074 16.5526C33.6213 16.5526 33.6352 16.5526 33.649 16.5526C33.6628 16.5526 33.6766 16.5526 33.6903 16.5526C33.704 16.5526 33.7177 16.5526 33.7313 16.5526C33.7449 16.5526 33.7584 16.5526 33.7719 16.5526C33.7854 16.5526 33.7988 16.5526 33.8121 16.5526C33.8255 16.5526 33.8388 16.5526 33.8521 16.5526C33.8653 16.5526 33.8785 16.5526 33.8916 16.5526C33.9048 16.5526 33.9178 16.5526 33.9308 16.5526C33.9439 16.5526 33.9568 16.5526 33.9697 16.5526C33.9826 16.5526 33.9954 16.5526 34.0082 16.5526C34.021 16.5526 34.0337 16.5526 34.0464 16.5526C34.059 16.5526 34.0716 16.5526 34.0841 16.5526C34.0967 16.5526 34.1092 16.5526 34.1216 16.5526C34.134 16.5526 34.1463 16.5526 34.1586 16.5526C34.1709 16.5526 34.1832 16.5526 34.1953 16.5526C34.2075 16.5526 34.2196 16.5526 34.2317 16.5526C34.2437 16.5526 34.2557 16.5526 34.2676 16.5526C34.2795 16.5526 34.2914 16.5526 34.3032 16.5526C34.315 16.5526 34.3267 16.5526 34.3384 16.5526C34.3501 16.5526 34.3617 16.5526 34.3732 16.5526C34.3848 16.5526 34.3963 16.5526 34.4077 16.5526C34.4191 16.5526 34.4305 16.5526 34.4418 16.5526C34.4531 16.5526 34.4643 16.5526 34.4755 16.5526C34.4866 16.5526 34.4977 16.5526 34.5088 16.5526C34.5198 16.5526 34.5308 16.5526 34.5417 16.5526C34.5526 16.5526 34.5634 16.5526 34.5742 16.5526C34.585 16.5526 34.5957 16.5526 34.6064 16.5526C34.617 16.5526 34.6276 16.5526 34.6381 16.5526C34.6486 16.5526 34.6591 16.5526 34.6695 16.5526C34.6798 16.5526 34.6902 16.5526 34.7004 16.5526C34.7107 16.5526 34.7208 16.5526 34.731 16.5526C34.7411 16.5526 34.7511 16.5526 34.7611 16.5526C34.7711 16.5526 34.781 16.5526 34.7909 16.5526C34.8007 16.5526 34.8105 16.5526 34.8202 16.5526C34.8299 16.5526 34.8396 16.5526 34.8491 16.5526C34.8587 16.5526 34.8682 16.5526 34.8777 16.5526C34.8871 16.5526 34.8965 16.5526 34.9058 16.5526C34.9151 16.5526 34.9243 16.5526 34.9335 16.5526C34.9426 16.5526 34.9517 16.5526 34.9608 16.5526C34.9698 16.5526 34.9787 16.5526 34.9876 16.5526C34.9965 16.5526 35.0053 16.5526 35.0141 16.5526C35.0228 16.5526 35.0315 16.5526 35.0401 16.5526C35.0487 16.5526 35.0572 16.5526 35.0657 16.5526C35.0742 16.5526 35.0826 16.5526 35.0909 16.5526C35.0992 16.5526 35.1074 16.5526 35.1156 16.5526C35.1238 16.5526 35.1319 16.5526 35.1399 16.5526C35.148 16.5526 35.1559 16.5526 35.1638 16.5526C35.1717 16.5526 35.1795 16.5526 35.1873 16.5526C35.195 16.5526 35.2027 16.5526 35.2103 16.5526C35.2179 16.5526 35.2254 16.5526 35.2328 16.5526C35.2403 16.5526 35.2477 16.5526 35.255 16.5526C35.2623 16.5526 35.2695 16.5526 35.2767 16.5526C35.2838 16.5526 35.2909 16.5526 35.2979 16.5526C35.3049 16.5526 35.3118 16.5526 35.3187 16.5526C35.3256 16.5526 35.3323 16.5526 35.339 16.5526C35.3458 16.5526 35.3524 16.5526 35.3589 16.5526C35.3655 16.5526 35.372 16.5526 35.3784 16.5526C35.3848 16.5526 35.3911 16.5526 35.3974 16.5526C35.4036 16.5526 35.4098 16.5526 35.4159 16.5526C35.422 16.5526 35.428 16.5526 35.434 16.5526C35.4399 16.5526 35.4458 16.5526 35.4516 16.5526C35.4574 16.5526 35.4631 16.5526 35.4687 16.5526C35.4744 16.5526 35.4799 16.5526 35.4854 16.5526C35.4909 16.5526 35.4963 16.5526 35.5016 16.5526C35.5069 16.5526 35.5122 16.5526 35.5173 16.5526C35.5225 16.5526 35.5276 16.5526 35.5326 16.5526C35.5376 16.5526 35.5426 16.5526 35.5474 16.5526C35.5523 16.5526 35.557 16.5526 35.5617 16.5526C35.5664 16.5526 35.571 16.5526 35.5756 16.5526C35.5801 16.5526 35.5845 16.5526 35.5889 16.5526C35.5933 16.5526 35.5976 16.5526 35.6018 16.5526C35.606 16.5526 35.6101 16.5526 35.6142 16.5526C35.6182 16.5526 35.6222 16.5526 35.6261 16.5526C35.63 16.5526 35.6338 16.5526 35.6375 16.5526C35.6412 16.5526 35.6449 16.5526 35.6484 16.5526C35.652 16.5526 35.6555 16.5526 35.6589 16.5526C35.6623 16.5526 35.6656 16.5526 35.6688 16.5526C35.672 16.5526 35.6752 16.5526 35.6783 16.5526C35.6813 16.5526 35.6843 16.5526 35.6872 16.5526C35.6901 16.5526 35.6929 16.5526 35.6956 16.5526C35.6984 16.5526 35.701 16.5526 35.7036 16.5526C35.7061 16.5526 35.7086 16.5526 35.711 16.5526C35.7134 16.5526 35.7157 16.5526 35.7179 16.5526C35.7202 16.5526 35.7223 16.5526 35.7244 16.5526C35.7264 16.5526 35.7284 16.5526 35.7303 16.5526C35.7322 16.5526 35.734 16.5526 35.7357 16.5526C35.7374 16.5526 35.739 16.5526 35.7405 16.5526C35.7421 16.5526 35.7435 16.5526 35.7449 16.5526C35.7463 16.5526 35.7475 16.5526 35.7487 16.5526C35.7499 16.5526 35.751 16.5526 35.7521 16.5526C35.7531 16.5526 35.754 16.5526 35.7549 16.5526V15.2281ZM12.5013 16.1957L14.5654 12.2221L13.3901 11.6116L11.3259 15.5851L12.5013 16.1957ZM21.4636 36.8355L21.4621 31.0083L20.1375 31.0086L20.1391 36.8358L21.4636 36.8355ZM21.4621 31.0083H26.1964V29.6837H21.4621V31.0083ZM26.1964 31.0083L26.1521 36.7464L27.4766 36.7566L27.5209 31.0185L26.1964 31.0083ZM26.8051 36.0893L20.792 36.1735L20.8106 37.4979L26.8237 37.4137L26.8051 36.0893ZM34.1112 35.8303C34.1112 36.0189 33.9566 36.1734 33.7681 36.1734V37.4979C34.6876 37.4979 35.4357 36.751 35.4357 35.8303H34.1112ZM33.7681 36.1734H29.3108V37.4979H33.7681V36.1734ZM29.973 36.8357V30.676H28.6485V36.8357H29.973ZM29.973 30.676C29.973 28.9615 28.5791 27.5685 26.8655 27.5685V28.893C27.8478 28.893 28.6485 29.6932 28.6485 30.676H29.973ZM26.8655 27.5685H20.8013V28.893H26.8655V27.5685ZM20.8013 27.5685C19.0877 27.5685 17.6938 28.9615 17.6938 30.676H19.0183C19.0183 29.6932 19.819 28.893 20.8013 28.893V27.5685ZM17.6938 30.676V36.8357H19.0183V30.676H17.6938ZM18.3561 36.1734H13.9123V37.4979H18.3561V36.1734ZM13.9123 36.1734C13.7238 36.1734 13.5692 36.0189 13.5692 35.8303H12.2447C12.2447 36.751 12.9928 37.4979 13.9123 37.4979V36.1734ZM13.5692 35.8303V23.2753H12.2447V35.8303H13.5692ZM12.8117 23.9306C13.051 23.9654 13.4865 24.0039 13.7509 24.0039V22.6794C13.5652 22.6794 13.1952 22.6479 13.0023 22.6199L12.8117 23.9306ZM13.7509 24.0039C15.2813 24.0039 16.6447 23.336 17.5992 22.2993L16.6247 21.4021C15.9028 22.1863 14.8849 22.6794 13.7509 22.6794V24.0039ZM16.6247 22.2993C18.7182 24.5731 22.2291 24.5717 24.3212 22.2993L23.3468 21.4021C21.7791 23.105 19.1677 23.1059 17.5992 21.4021L16.6247 22.2993ZM23.3468 22.2993C25.4402 24.5731 28.9511 24.5717 31.0433 22.2993L30.0689 21.4021C28.5011 23.105 25.8898 23.1059 24.3212 21.4021L23.3468 22.2993ZM30.0689 22.2993C31.0233 23.336 32.3867 24.0039 33.9171 24.0039V22.6794C32.7831 22.6794 31.7652 22.1863 31.0433 21.4021L30.0689 22.2993ZM33.9171 24.0039C34.1795 24.0039 34.6279 23.9657 34.8686 23.9308L34.6782 22.62C34.4873 22.6478 34.1036 22.6794 33.9171 22.6794V24.0039ZM34.1112 23.2754V35.8303H35.4357V23.2754H34.1112ZM26.1964 31.0083H26.1964L27.5209 31.0185C27.5266 30.283 26.9319 29.6837 26.1964 29.6837V31.0083ZM21.4621 31.0083V29.6837C20.7304 29.6837 20.1374 30.277 20.1375 31.0086L21.4621 31.0083Z" fill="#F4DEFF" mask="url(#path-1-inside-1_376_62486)"/>
</g>
<g filter="url(#filter1_d_376_62486)">
<path d="M10.6521 35.9797C10.8391 35.9724 10.9778 35.8351 10.9801 35.8329C10.9801 35.8329 10.9801 35.8329 10.9801 35.8329V35.8328V35.8326V35.8325L10.9801 35.8304L10.9801 35.8304C10.9801 37.5501 12.3793 38.9498 14.0995 38.9498H33.5673C35.2876 38.9498 36.6867 37.5501 36.6867 35.8303V35.8306C36.8006 35.9443 36.9144 35.9799 37.0148 35.9775C36.9374 37.8121 35.4212 39.2809 33.5673 39.2809H14.0995C12.2464 39.2809 10.7306 37.8133 10.6521 35.9797ZM37.0178 35.73L37.0178 35.6833C36.9728 35.6847 36.9304 35.6937 36.8921 35.7066C36.9304 35.7196 36.9728 35.7286 37.0178 35.73ZM36.6867 35.5443L36.6867 35.5828L10.9801 35.2465L10.9813 22.5767L10.9813 22.4319L10.875 22.3336C10.032 21.5539 9.49836 20.452 9.49836 19.2222V16.7907C9.49836 16.7907 9.49836 16.7903 9.4984 16.7892L9.49859 16.7849C9.4988 16.7812 9.49917 16.7762 9.49976 16.7699C9.50097 16.7572 9.50293 16.7412 9.50576 16.7223C9.51143 16.6844 9.51987 16.6396 9.53034 16.5935C9.55337 16.4921 9.5784 16.4186 9.59089 16.3942L9.5909 16.3942L9.59228 16.3915L12.0865 11.4096L12.0865 11.4096C12.5067 10.5702 13.3496 10.0499 14.2882 10.0499H33.381C34.3196 10.0499 35.1625 10.5702 35.5827 11.4096C37.9748 16.2019 38.0433 16.3127 38.0868 16.4325C38.092 16.4469 38.0969 16.4615 38.1054 16.4844L38.4157 16.3687L38.105 16.4833C38.1224 16.5305 38.1396 16.5968 38.1523 16.6642C38.1585 16.6967 38.1631 16.7265 38.1661 16.7508C38.1675 16.7629 38.1685 16.7727 38.169 16.7803C38.1694 16.7851 38.1695 16.7881 38.1696 16.7896C38.1696 16.7906 38.1696 16.7909 38.1696 16.7907V19.2222C38.1696 20.4524 37.6355 21.5546 36.7919 22.3344L36.6855 22.4327L36.6855 22.5776L36.6867 35.5443ZM31.7787 17.6822H31.4476V18.0133V19.2222C31.4476 20.584 32.5545 21.6917 33.9171 21.6917C35.2797 21.6917 36.3866 20.584 36.3866 19.2222V18.0133V17.6822H36.0555H31.7787ZM25.0566 17.6822H24.7255V18.0133V19.2222C24.7255 20.584 25.8325 21.6917 27.195 21.6917C28.5576 21.6917 29.6646 20.584 29.6646 19.2222V18.0133V17.6822H29.3334H25.0566ZM18.3346 17.6822H18.0034V18.0133V19.2222C18.0034 20.584 19.1104 21.6917 20.473 21.6917C21.8356 21.6917 22.9425 20.584 22.9425 19.2222V18.0133V17.6822H22.6114H18.3346ZM11.6125 17.6822H11.2814V18.0133V19.2222C11.2814 20.584 12.3883 21.6917 13.7509 21.6917C15.1135 21.6917 16.2204 20.584 16.2204 19.2222V18.0133V17.6822H15.8893H11.6125ZM11.9136 15.8904C11.9136 16.2215 11.9137 16.2215 11.9139 16.2215H11.9147H11.916H11.9179H11.9203H11.9232H11.9266H11.9306H11.935H11.94H11.9456H11.9516H11.9581H11.9652H11.9727H11.9808H11.9893H11.9984H12.0079H12.018H12.0285H12.0396H12.0511H12.0631H12.0756H12.0886H12.1021H12.116H12.1305H12.1454H12.1608H12.1766H12.1929H12.2097H12.227H12.2447H12.2628H12.2815H12.3006H12.3201H12.3401H12.3606H12.3815H12.4028H12.4246H12.4468H12.4695H12.4926H12.5162H12.5401H12.5646H12.5894H12.6147H12.6404H12.6665H12.693H12.72H12.7474H12.7752H12.8034H12.832H12.861H12.8905H12.9203H12.9505H12.9812H13.0122H13.0437H13.0755H13.1077H13.1404H13.1734H13.2068H13.2406H13.2747H13.3093H13.3442H13.3795H13.4151H13.4512H13.4876H13.5244H13.5615H13.599H13.6369H13.6751H13.7137H13.7527H13.792H13.8316H13.8716H13.912H13.9526H13.9937H14.035H14.0768H14.1188H14.1612H14.2039H14.247H14.2903H14.334H14.3781H14.4224H14.4671H14.5121H14.5574H14.603H14.6489H14.6951H14.7417H14.7885H14.8357H14.8832H14.9309H14.979H15.0273H15.0759H15.1249H15.1741H15.2236H15.2734H15.3235H15.3738H15.4245H15.4754H15.5266H15.578H15.6298H15.6818H15.734H15.7865H15.8393H15.8924H15.9457H15.9993H16.0531H16.1071H16.1615H16.216H16.2708H16.3259H16.3812H16.4367H16.4925H16.5485H16.6048H16.6612H16.7179H16.7749H16.832H16.8894H16.947H17.0048H17.0628H17.1211H17.1795H17.2382H17.2971H17.3561H17.4154H17.4749H17.5346H17.5945H17.6546H17.7149H17.7753H17.836H17.8968H17.9578H18.0191H18.0805H18.142H18.2038H18.2657H18.3278H18.3901H18.4525H18.5151H18.5779H18.6408H18.7039H18.7671H18.8306H18.8941H18.9578H19.0217H19.0857H19.1499H19.2142H19.2786H19.3432H19.4079H19.4728H19.5377H19.6029H19.6681H19.7335H19.799H19.8646H19.9304H19.9962H20.0622H20.1283H20.1945H20.2608H20.3273H20.3938H20.4604H20.5272H20.594H20.661H20.728H20.7951H20.8624H20.9297H20.9971H21.0646H21.1321H21.1998H21.2675H21.3353H21.4032H21.4712H21.5392H21.6073H21.6755H21.7437H21.812H21.8803H21.9488H22.0172H22.0858H22.1543H22.223H22.2916H22.3604H22.4291H22.4979H22.5668H22.6357H22.7046H22.7736H22.8426H22.9116H22.9806H23.0497H23.1188H23.1879H23.2571H23.3262H23.3954H23.4646H23.5338H23.603H23.6722H23.7414H23.8106H23.8798H23.9491H24.0183H24.0875H24.1567H24.2259H24.2951H24.3642H24.4334H24.5025H24.5716H24.6407H24.7098H24.7788H24.8478H24.9168H24.9858H25.0547H25.1236H25.1924H25.2612H25.33H25.3987H25.4674H25.536H25.6045H25.673H25.7415H25.8099H25.8782H25.9465H26.0147H26.0829H26.151H26.219H26.2869H26.3548H26.4226H26.4903H26.5579H26.6255H26.693H26.7603H26.8276H26.8948H26.9619H27.029H27.0959H27.1627H27.2294H27.296H27.3625H27.429H27.4952H27.5614H27.6275H27.6935H27.7593H27.825H27.8906H27.9561H28.0214H28.0867H28.1517H28.2167H28.2815H28.3462H28.4108H28.4752H28.5394H28.6036H28.6675H28.7314H28.795H28.8586H28.9219H28.9852H29.0482H29.1111H29.1738H29.2364H29.2988H29.361H29.4231H29.485H29.5467H29.6082H29.6696H29.7307H29.7917H29.8525H29.9131H29.9736H30.0338H30.0938H30.1537H30.2133H30.2727H30.332H30.391H30.4498H30.5085H30.5669H30.6251H30.6831H30.7408H30.7984H30.8557H30.9128H30.9697H31.0263H31.0827H31.1389H31.1949H31.2506H31.3061H31.3613H31.4163H31.4711H31.5256H31.5798H31.6339H31.6876H31.7411H31.7944H31.8474H31.9001H31.9526H32.0048H32.0567H32.1084H32.1598H32.2109H32.2617H32.3123H32.3626H32.4126H32.4623H32.5118H32.5609H32.6098H32.6584H32.7066H32.7546H32.8023H32.8497H32.8968H32.9436H32.99H33.0362H33.0821H33.1276H33.1728H33.2178H33.2623H33.3066H33.3506H33.3942H33.4375H33.4805H33.5231H33.5654H33.6074H33.649H33.6903H33.7313H33.7719H33.8121H33.8521H33.8916H33.9308H33.9697H34.0082H34.0464H34.0841H34.1216H34.1586H34.1953H34.2317H34.2676H34.3032H34.3384H34.3732H34.4077H34.4418H34.4755H34.5088H34.5417H34.5742H34.6064H34.6381H34.6695H34.7004H34.731H34.7611H34.7909H34.8202H34.8491H34.8777H34.9058H34.9335H34.9608H34.9876H35.0141H35.0401H35.0657H35.0909H35.1156H35.1399H35.1638H35.1873H35.2103H35.2328H35.255H35.2767H35.2979H35.3187H35.339H35.3589H35.3784H35.3974H35.4159H35.434H35.4516H35.4687H35.4854H35.5016H35.5173H35.5326H35.5474H35.5617H35.5756H35.5889H35.6018H35.6142H35.6261H35.6375H35.6484H35.6589H35.6688H35.6783H35.6872H35.6956H35.7036H35.711H35.7179H35.7244H35.7303H35.7357H35.7405H35.7449H35.7487H35.7521H35.7549H36.2999L36.0487 15.7378L33.9863 11.7661C33.8713 11.5387 33.6359 11.3935 33.381 11.3935H14.2882C14.0324 11.3935 13.7981 11.5357 13.6825 11.7668L11.6198 15.7377L11.3684 16.2215H11.9136V15.8904ZM20.4702 36.8358L20.4703 37.1715L20.8059 37.1668L26.819 37.0826L27.143 37.078L27.1455 36.754L27.1898 31.0159C27.1941 30.4643 26.7481 30.0149 26.1964 30.0149H21.4621C20.9133 30.0149 20.4685 30.4598 20.4687 31.0085L20.4702 36.8358ZM28.9796 36.8357V37.1668H29.3108H33.7681C34.5048 37.1668 35.1045 36.568 35.1045 35.8303V23.2754V22.8927L34.7258 22.9477C34.5224 22.9773 34.1226 23.0105 33.9171 23.0105C32.684 23.0105 31.5797 22.4737 30.7997 21.6264L30.5561 21.3618L30.3125 21.6264C28.6136 23.4716 25.7774 23.4727 24.0776 21.6264L23.834 21.3618L23.5904 21.6264C21.8916 23.4716 19.0553 23.4727 17.3555 21.6264L17.1119 21.3618L16.8683 21.6264C16.0883 22.4737 14.984 23.0105 13.7509 23.0105C13.5455 23.0105 13.1591 22.9773 12.9546 22.9476L12.5759 22.8925V23.2753V35.8303C12.5759 36.568 13.1756 37.1668 13.9123 37.1668H18.3561H18.6872V36.8357V30.676C18.6872 29.5103 19.6361 28.5618 20.8013 28.5618H26.8655C28.0307 28.5618 28.9796 29.5103 28.9796 30.676V36.8357Z" fill="#F7E6FF" stroke="#C381F6" stroke-width="0.662257"/>
</g>
<defs>
<filter id="filter0_f_376_62486" x="7.66724" y="8.21875" width="32.3335" height="32.5623" filterUnits="userSpaceOnUse" color-interpolation-filters="sRGB">
<feFlood flood-opacity="0" result="BackgroundImageFix"/>
<feBlend mode="normal" in="SourceGraphic" in2="BackgroundImageFix" result="shape"/>
<feGaussianBlur stdDeviation="0.75" result="effect1_foregroundBlur_376_62486"/>
</filter>
<filter id="filter1_d_376_62486" x="0.167236" y="0.71875" width="47.3335" height="47.5623" filterUnits="userSpaceOnUse" color-interpolation-filters="sRGB">
<feFlood flood-opacity="0" result="BackgroundImageFix"/>
<feColorMatrix in="SourceAlpha" type="matrix" values="0 0 0 0 0 0 0 0 0 0 0 0 0 0 0 0 0 0 127 0" result="hardAlpha"/>
<feOffset/>
<feGaussianBlur stdDeviation="4.5"/>
<feComposite in2="hardAlpha" operator="out"/>
<feColorMatrix type="matrix" values="0 0 0 0 0.512333 0 0 0 0 0.129167 0 0 0 0 1 0 0 0 1 0"/>
<feBlend mode="normal" in2="BackgroundImageFix" result="effect1_dropShadow_376_62486"/>
<feBlend mode="normal" in="SourceGraphic" in2="effect1_dropShadow_376_62486" result="shape"/>
</filter>
</defs>
</svg>
