<svg width="32" height="32" viewBox="0 0 32 32" fill="none" xmlns="http://www.w3.org/2000/svg">
<path d="M2.81865 27.4797C3.00557 27.4724 3.14433 27.3351 3.14656 27.3329C3.14657 27.3329 3.14658 27.3329 3.14659 27.3329V27.3328V27.3326V27.3325L3.14659 27.3304L3.14659 27.3304C3.14659 29.0501 4.54576 30.4498 6.26604 30.4498H25.7338C27.4541 30.4498 28.8532 29.0501 28.8532 27.3303V27.3306C28.9671 27.4443 29.0809 27.4799 29.1813 27.4775C29.1039 29.3121 27.5877 30.7809 25.7338 30.7809H6.26604C4.41291 30.7809 2.89711 29.3133 2.81865 27.4797ZM29.1844 27.23L29.1843 27.1833C29.1393 27.1847 29.0969 27.1937 29.0586 27.2066C29.0969 27.2196 29.1393 27.2286 29.1844 27.23ZM28.8532 27.0443L28.8532 27.0828L3.14664 26.7465L3.14778 14.0767L3.1478 13.9319L3.04149 13.8336C2.19846 13.0539 1.66487 11.952 1.66487 10.7222V8.29065C1.66487 8.29071 1.66487 8.29026 1.6649 8.28924L1.66509 8.28495C1.6653 8.28118 1.66567 8.27617 1.66627 8.26988C1.66748 8.25715 1.66943 8.24118 1.67226 8.2223C1.67793 8.18441 1.68637 8.13965 1.69684 8.09354C1.71987 7.99206 1.74491 7.91857 1.75739 7.8942L1.75741 7.8942L1.75878 7.89146L4.25299 2.9096L4.253 2.9096C4.67324 2.07017 5.51615 1.54988 6.45469 1.54988H25.5475C26.4861 1.54988 27.329 2.07017 27.7492 2.9096C30.1413 7.70192 30.2098 7.81267 30.2533 7.93247C30.2585 7.94691 30.2634 7.96149 30.2719 7.98442L30.5822 7.86873L30.2715 7.98335C30.2889 8.03051 30.3061 8.09685 30.3188 8.16417C30.325 8.19673 30.3296 8.22652 30.3326 8.25079C30.334 8.26288 30.335 8.27275 30.3356 8.28027C30.3359 8.28507 30.3361 8.28813 30.3361 8.28964C30.3361 8.29062 30.3361 8.29094 30.3361 8.29065V10.7222C30.3361 11.9524 29.802 13.0546 28.9584 13.8344L28.852 13.9327L28.852 14.0776L28.8532 27.0443ZM23.9452 9.18215H23.6141V9.51328V10.7222C23.6141 12.084 24.721 13.1917 26.0836 13.1917C27.4462 13.1917 28.5531 12.084 28.5531 10.7222V9.51328V9.18215H28.222H23.9452ZM17.2231 9.18215H16.892V9.51328V10.7222C16.892 12.084 17.999 13.1917 19.3615 13.1917C20.7241 13.1917 21.8311 12.084 21.8311 10.7222V9.51328V9.18215H21.4999H17.2231ZM10.5011 9.18215H10.1699V9.51328V10.7222C10.1699 12.084 11.2769 13.1917 12.6395 13.1917C14.0021 13.1917 15.109 12.084 15.109 10.7222V9.51328V9.18215H14.7779H10.5011ZM3.779 9.18215H3.44787V9.51328V10.7222C3.44787 12.084 4.55482 13.1917 5.9174 13.1917C7.27999 13.1917 8.38694 12.084 8.38694 10.7222V9.51328V9.18215H8.05581H3.779ZM4.0801 7.39039C4.0801 7.72151 4.08019 7.72151 4.08037 7.72151H4.08117H4.0825H4.08437H4.08676H4.08967H4.09311H4.09707H4.10155H4.10655H4.11206H4.11808H4.12462H4.13166H4.13921H4.14727H4.15583H4.16489H4.17444H4.1845H4.19504H4.20608H4.21761H4.22963H4.24214H4.25513H4.2686H4.28255H4.29697H4.31188H4.32725H4.3431H4.35942H4.37621H4.39346H4.41117H4.42935H4.44798H4.46707H4.48662H4.50662H4.52707H4.54796H4.56931H4.5911H4.61333H4.636H4.65911H4.68266H4.70664H4.73106H4.7559H4.78117H4.80687H4.83299H4.85953H4.88649H4.91387H4.94167H4.96988H4.9985H5.02753H5.05697H5.08681H5.11705H5.1477H5.17874H5.21019H5.24202H5.27425H5.30687H5.33988H5.37328H5.40706H5.44122H5.47576H5.51068H5.54598H5.58165H5.61769H5.6541H5.69088H5.72803H5.76554H5.80341H5.84164H5.88023H5.91917H5.95847H5.99812H6.03811H6.07846H6.11915H6.16018H6.20155H6.24327H6.28532H6.3277H6.37041H6.41346H6.45684H6.50054H6.54456H6.58891H6.63358H6.67857H6.72387H6.76948H6.81541H6.86165H6.90819H6.95504H7.0022H7.04965H7.09741H7.14546H7.19381H7.24245H7.29138H7.3406H7.39011H7.43991H7.48998H7.54034H7.59097H7.64189H7.69307H7.74453H7.79626H7.84826H7.90052H7.95305H8.00584H8.05889H8.1122H8.16576H8.21958H8.27365H8.32797H8.38253H8.43734H8.4924H8.5477H8.60323H8.659H8.71501H8.77125H8.82773H8.88443H8.94136H8.99851H9.05588H9.11348H9.17129H9.22932H9.28757H9.34603H9.4047H9.46357H9.52265H9.58194H9.64143H9.70112H9.761H9.82108H9.88136H9.94182H10.0025H10.0633H10.1244H10.1856H10.247H10.3085H10.3703H10.4322H10.4943H10.5566H10.619H10.6816H10.7444H10.8073H10.8704H10.9337H10.9971H11.0606H11.1243H11.1882H11.2522H11.3164H11.3807H11.4451H11.5097H11.5744H11.6393H11.7042H11.7694H11.8346H11.9H11.9655H12.0311H12.0969H12.1627H12.2287H12.2948H12.361H12.4273H12.4938H12.5603H12.6269H12.6937H12.7605H12.8275H12.8945H12.9616H13.0289H13.0962H13.1636H13.2311H13.2986H13.3663H13.434H13.5018H13.5697H13.6377H13.7057H13.7738H13.842H13.9102H13.9785H14.0469H14.1153H14.1837H14.2523H14.3208H14.3895H14.4581H14.5269H14.5956H14.6644H14.7333H14.8022H14.8711H14.9401H15.0091H15.0781H15.1471H15.2162H15.2853H15.3544H15.4236H15.4927H15.5619H15.6311H15.7003H15.7695H15.8387H15.9079H15.9771H16.0463H16.1156H16.1848H16.254H16.3232H16.3924H16.4616H16.5307H16.5999H16.669H16.7381H16.8072H16.8763H16.9453H17.0143H17.0833H17.1523H17.2212H17.2901H17.3589H17.4277H17.4965H17.5652H17.6339H17.7025H17.771H17.8396H17.908H17.9764H18.0448H18.113H18.1812H18.2494H18.3175H18.3855H18.4534H18.5213H18.5891H18.6568H18.7244H18.792H18.8595H18.9268H18.9941H19.0613H19.1285H19.1955H19.2624H19.3292H19.3959H19.4625H19.5291H19.5955H19.6618H19.7279H19.794H19.86H19.9258H19.9915H20.0571H20.1226H20.1879H20.2532H20.3182H20.3832H20.448H20.5127H20.5773H20.6417H20.7059H20.7701H20.834H20.8979H20.9615H21.0251H21.0884H21.1517H21.2147H21.2776H21.3403H21.4029H21.4653H21.5275H21.5896H21.6515H21.7132H21.7747H21.8361H21.8972H21.9582H22.019H22.0796H22.1401H22.2003H22.2603H22.3202H22.3798H22.4392H22.4985H22.5575H22.6164H22.675H22.7334H22.7916H22.8496H22.9073H22.9649H23.0222H23.0793H23.1362H23.1928H23.2492H23.3054H23.3614H23.4171H23.4726H23.5278H23.5828H23.6376H23.6921H23.7463H23.8004H23.8541H23.9076H23.9609H24.0139H24.0666H24.1191H24.1713H24.2232H24.2749H24.3263H24.3774H24.4282H24.4788H24.5291H24.5791H24.6288H24.6783H24.7274H24.7763H24.8249H24.8731H24.9211H24.9688H25.0162H25.0633H25.1101H25.1565H25.2027H25.2486H25.2941H25.3393H25.3843H25.4288H25.4731H25.5171H25.5607H25.604H25.647H25.6896H25.7319H25.7739H25.8155H25.8568H25.8978H25.9384H25.9786H26.0186H26.0581H26.0973H26.1362H26.1747H26.2129H26.2507H26.2881H26.3251H26.3618H26.3982H26.4341H26.4697H26.5049H26.5397H26.5742H26.6083H26.642H26.6753H26.7082H26.7407H26.7729H26.8046H26.836H26.8669H26.8975H26.9276H26.9574H26.9867H27.0156H27.0442H27.0723H27.1H27.1273H27.1541H27.1806H27.2066H27.2322H27.2574H27.2821H27.3064H27.3303H27.3538H27.3768H27.3993H27.4215H27.4432H27.4644H27.4852H27.5055H27.5254H27.5449H27.5639H27.5824H27.6005H27.6181H27.6352H27.6519H27.6681H27.6838H27.6991H27.7139H27.7282H27.7421H27.7554H27.7683H27.7807H27.7926H27.804H27.8149H27.8254H27.8353H27.8448H27.8537H27.8622H27.8701H27.8775H27.8845H27.8909H27.8968H27.9022H27.907H27.9114H27.9152H27.9186H27.9214H28.4664L28.2152 7.23778L26.1528 3.26609C26.0378 3.03868 25.8024 2.89348 25.5475 2.89348H6.45469C6.19895 2.89348 5.96462 3.03566 5.84904 3.26684L3.78626 7.23774L3.53495 7.72151H4.0801V7.39039ZM12.6367 28.3358L12.6368 28.6715L12.9725 28.6668L18.9855 28.5826L19.3095 28.578L19.312 28.254L19.3563 22.5159C19.3606 21.9643 18.9146 21.5149 18.3629 21.5149H13.6286C13.0798 21.5149 12.635 21.9598 12.6352 22.5085L12.6367 28.3358ZM21.1461 28.3357V28.6668H21.4773H25.9346C26.6713 28.6668 27.271 28.068 27.271 27.3303V14.7754V14.3927L26.8923 14.4477C26.6889 14.4773 26.2891 14.5105 26.0836 14.5105C24.8505 14.5105 23.7462 13.9737 22.9662 13.1264L22.7226 12.8618L22.479 13.1264C20.7802 14.9716 17.9439 14.9727 16.2441 13.1264L16.0005 12.8618L15.7569 13.1264C14.0581 14.9716 11.2219 14.9727 9.52205 13.1264L9.27844 12.8618L9.03483 13.1264C8.2548 13.9737 7.15048 14.5105 5.9174 14.5105C5.71201 14.5105 5.32564 14.4773 5.12113 14.4476L4.74236 14.3925V14.7753V27.3303C4.74236 28.068 5.34206 28.6668 6.07881 28.6668H10.5226H10.8537V28.3357V22.176C10.8537 21.0103 11.8026 20.0618 12.9678 20.0618H19.032C20.1972 20.0618 21.1461 21.0103 21.1461 22.176V28.3357Z" fill="#7643AA" stroke="#534296" stroke-width="0.662257"/>
</svg>
