<svg width="32" height="32" viewBox="0 0 32 32" fill="none" xmlns="http://www.w3.org/2000/svg">
<path d="M15.9996 30.3612C8.1717 30.3612 1.63892 23.8273 1.63892 16.0024C1.63892 8.18143 8.32055 1.63916 16.1524 1.63916C23.9761 1.63916 30.3609 8.17325 30.3609 16.0024C30.3609 23.8273 23.8275 30.3612 15.9996 30.3612ZM16.1524 2.75134C9.00427 2.75134 2.75235 8.84793 2.75235 16.0024C2.75235 23.1526 8.8472 29.2421 15.9996 29.2421C23.1514 29.2421 29.243 23.1776 29.243 16.0268C29.243 8.88251 23.3107 2.75134 16.1524 2.75134Z" fill="#7643AA" stroke="#534296" stroke-width="0.611333"/>
<path d="M17.2525 8.83201H16.9469V9.13768V11.964H15.0517V9.13768V8.83201H14.746H13.7394L15.9993 5.31804L18.2591 8.83201H17.2525Z" fill="#7643AA" stroke="#534296" stroke-width="0.611333"/>
<mask id="path-3-inside-1_1256_7880" fill="white">
<path d="M22.3372 18.4198C22.3372 19.8514 21.8416 21.1588 21.0373 22.2209H23.647C24.8693 22.1109 25.4806 21.0217 25.4806 19.972H24.258V19.3609C25.4806 19.3609 26.182 18.2043 26.182 17.1527H24.1098V16.3921H24.2723C24.926 16.3921 25.6128 16.3136 26.1176 15.8983C26.5464 15.5455 26.7413 15.1284 26.8158 14.6186V13.9851H20.5142C21.6388 15.129 22.3372 16.6932 22.3372 18.4198Z"/>
</mask>
<path d="M22.3372 18.4198C22.3372 19.8514 21.8416 21.1588 21.0373 22.2209H23.647C24.8693 22.1109 25.4806 21.0217 25.4806 19.972H24.258V19.3609C25.4806 19.3609 26.182 18.2043 26.182 17.1527H24.1098V16.3921H24.2723C24.926 16.3921 25.6128 16.3136 26.1176 15.8983C26.5464 15.5455 26.7413 15.1284 26.8158 14.6186V13.9851H20.5142C21.6388 15.129 22.3372 16.6932 22.3372 18.4198Z" fill="#7643AA"/>
<path d="M21.0373 22.2209L20.5499 21.8518L19.8075 22.8322H21.0373V22.2209ZM23.647 22.2209V22.8322H23.6744L23.7018 22.8297L23.647 22.2209ZM25.4806 19.972H26.092V19.3607H25.4806V19.972ZM24.258 19.972H23.6466V20.5834H24.258V19.972ZM24.258 19.3609V18.7496C23.9204 18.7496 23.6466 19.0233 23.6466 19.3609H24.258ZM26.182 17.1527H26.7934V16.5414H26.182V17.1527ZM24.1098 17.1527H23.4985V17.764H24.1098V17.1527ZM24.1098 16.3921V15.7808C23.7722 15.7808 23.4985 16.0545 23.4985 16.3921H24.1098ZM26.8158 14.6186L27.4207 14.707L27.4271 14.663V14.6186H26.8158ZM26.8158 13.9851H27.4271V13.3738H26.8158V13.9851ZM20.5142 13.9851V13.3738H19.0558L20.0782 14.4137L20.5142 13.9851ZM21.7259 18.4198C21.7259 19.7065 21.2812 20.8862 20.5499 21.8518L21.5247 22.5899C22.4021 21.4313 22.9486 19.9964 22.9486 18.4198H21.7259ZM21.0373 22.8322H23.647V21.6095H21.0373V22.8322ZM23.7018 22.8297C25.3511 22.6813 26.092 21.2116 26.092 19.972H24.8693C24.8693 20.8318 24.3875 21.5404 23.5922 21.612L23.7018 22.8297ZM25.4806 19.3607H24.258V20.5834H25.4806V19.3607ZM24.8693 19.972V19.3609H23.6466V19.972H24.8693ZM24.258 19.9723C25.0837 19.9723 25.7335 19.5745 26.1605 19.0272C26.5785 18.4915 26.7934 17.8046 26.7934 17.1527H25.5707C25.5707 17.5524 25.4348 17.9697 25.1965 18.2751C24.9672 18.569 24.655 18.7496 24.258 18.7496V19.9723ZM26.182 16.5414H24.1098V17.764H26.182V16.5414ZM24.7212 17.1527V16.3921H23.4985V17.1527H24.7212ZM24.1098 17.0035H24.2723V15.7808H24.1098V17.0035ZM26.506 16.3704C27.0711 15.9055 27.3281 15.341 27.4207 14.707L26.2109 14.5303C26.1546 14.9159 26.0217 15.1856 25.7292 15.4262L26.506 16.3704ZM27.4271 14.6186V13.9851H26.2044V14.6186H27.4271ZM26.8158 13.3738H20.5142V14.5964H26.8158V13.3738ZM20.0782 14.4137C21.0964 15.4493 21.7259 16.8618 21.7259 18.4198H22.9486C22.9486 16.5246 22.1812 14.8088 20.9501 13.5565L20.0782 14.4137ZM24.2723 17.0035C24.9445 17.0035 25.8243 16.9312 26.506 16.3704L25.7292 15.4262C25.4013 15.696 24.9075 15.7808 24.2723 15.7808V17.0035Z" fill="#534296" mask="url(#path-3-inside-1_1256_7880)"/>
<path d="M7.76185 18.7476C6.97626 18.7476 6.30422 18.1887 6.15489 17.4584H7.12857C7.99715 17.4584 8.70128 16.7543 8.70128 15.8857V15.58H8.39561H6.45209C5.96283 15.58 5.49024 15.1764 5.49024 14.6186V14.2908H10.8072C9.90222 15.4243 9.35746 16.8585 9.35746 18.4198C9.35746 19.7096 9.74059 20.9016 10.38 21.9152H8.39561C7.61888 21.9152 6.97192 21.3605 6.82928 20.626H7.12857C7.99715 20.626 8.70128 19.9219 8.70128 19.0533V18.7476H8.39561H7.76185Z" fill="#7643AA" stroke="#534296" stroke-width="0.611333"/>
<path d="M17.9278 21.4131L18.4138 21.6204L18.3513 21.0958L18.1164 19.1228L19.4569 17.3854L19.7791 16.9679L19.2566 16.8959L17.2977 16.626L16.2642 14.8496L15.9796 14.3605L15.7266 14.8666L14.8468 16.6265L12.7905 16.8956L12.2725 16.9634L12.5854 17.3818L13.8852 19.1193L13.6382 21.094L13.5723 21.6207L14.0609 21.4133L15.9997 20.5903L17.9278 21.4131ZM11.2356 18.42C11.2356 15.7898 13.3685 13.6575 16 13.6575C18.6314 13.6575 20.7644 15.7898 20.7644 18.42C20.7644 21.0501 18.6314 23.1825 16 23.1825C13.3686 23.1825 11.2356 21.0501 11.2356 18.42Z" fill="#7643AA" stroke="#534296" stroke-width="0.611333"/>
</svg>
