<svg width="48" height="48" viewBox="0 0 48 48" fill="none" xmlns="http://www.w3.org/2000/svg">
<g filter="url(#filter0_f_376_62592)">
<path d="M23.8331 38.3612C16.0052 38.3612 9.47241 31.8273 9.47241 24.0024C9.47241 16.1814 16.154 9.63916 23.9859 9.63916C31.8096 9.63916 38.1944 16.1733 38.1944 24.0024C38.1944 31.8273 31.661 38.3612 23.8331 38.3612ZM23.9859 10.7513C16.8378 10.7513 10.5859 16.8479 10.5859 24.0024C10.5859 31.1526 16.6807 37.2421 23.8331 37.2421C30.9849 37.2421 37.0765 31.1776 37.0765 24.0268C37.0765 16.8825 31.1442 10.7513 23.9859 10.7513Z" fill="#FCFCFC" stroke="#F4DEFF" stroke-width="0.611333"/>
<path d="M25.086 16.832H24.7803V17.1377V19.964H22.8852V17.1377V16.832H22.5795H21.5729L23.8328 13.318L26.0926 16.832H25.086Z" fill="#FCFCFC" stroke="#F4DEFF" stroke-width="0.611333"/>
<path d="M31.1748 28.3203V28.626H31.4805H33.0468C32.9042 29.3605 32.2572 29.9152 31.4805 29.9152H29.4539C30.0933 28.9016 30.4764 27.7096 30.4764 26.4198C30.4764 24.8585 29.9316 23.4243 29.0266 22.2908H34.3436V22.6186C34.3436 23.1764 33.871 23.58 33.3818 23.58H31.4805H31.1748V23.8857V25.1527V25.4584H31.4805H33.6808C33.5387 26.1942 32.8929 26.7476 32.1142 26.7476H31.4805H31.1748V27.0533V28.3203Z" fill="#FCFCFC" stroke="#F4DEFF" stroke-width="0.611333"/>
<path d="M16.5348 23.8857V23.58H16.2291H14.2856C13.7963 23.58 13.3237 23.1764 13.3237 22.6186V22.2908H18.6407C17.7357 23.4243 17.191 24.8585 17.191 26.4198C17.191 27.7096 17.5741 28.9016 18.2135 29.9152H16.2291C15.4524 29.9152 14.8054 29.3605 14.6628 28.626H16.2291H16.5348V28.3203V27.0533V26.7476H16.2291H15.5953C14.8098 26.7476 14.1377 26.1887 13.9884 25.4584H16.2291H16.5348V25.1527V23.8857Z" fill="#FCFCFC" stroke="#F4DEFF" stroke-width="0.611333"/>
<path d="M25.7613 29.4131L26.2473 29.6204L26.1848 29.0958L25.9499 27.1228L27.2904 25.3854L27.6126 24.9679L27.0901 24.8959L25.1312 24.626L24.0977 22.8496L23.8131 22.3605L23.5601 22.8666L22.6803 24.6265L20.624 24.8956L20.106 24.9634L20.4189 25.3818L21.7187 27.1193L21.4717 29.094L21.4058 29.6207L21.8944 29.4133L23.8332 28.5903L25.7613 29.4131ZM19.0691 26.42C19.0691 23.7898 21.202 21.6575 23.8335 21.6575C26.4649 21.6575 28.5979 23.7898 28.5979 26.42C28.5979 29.0501 26.4649 31.1825 23.8335 31.1825C21.202 31.1825 19.0691 29.0501 19.0691 26.42Z" fill="#FCFCFC" stroke="#F4DEFF" stroke-width="0.611333"/>
</g>
<g filter="url(#filter1_d_376_62592)">
<path d="M23.8331 38.3612C16.0052 38.3612 9.47241 31.8273 9.47241 24.0024C9.47241 16.1814 16.154 9.63916 23.9859 9.63916C31.8096 9.63916 38.1944 16.1733 38.1944 24.0024C38.1944 31.8273 31.661 38.3612 23.8331 38.3612ZM23.9859 10.7513C16.8378 10.7513 10.5859 16.8479 10.5859 24.0024C10.5859 31.1526 16.6807 37.2421 23.8331 37.2421C30.9849 37.2421 37.0765 31.1776 37.0765 24.0268C37.0765 16.8825 31.1442 10.7513 23.9859 10.7513Z" fill="#F7E6FF" stroke="#C381F6" stroke-width="0.611333"/>
<path d="M25.086 16.832H24.7803V17.1377V19.964H22.8852V17.1377V16.832H22.5795H21.5729L23.8328 13.318L26.0926 16.832H25.086Z" fill="#F7E6FF" stroke="#C381F6" stroke-width="0.611333"/>
<mask id="path-8-inside-1_376_62592" fill="white">
<path d="M30.1707 26.4198C30.1707 27.8514 29.6751 29.1588 28.8708 30.2209H31.4805C32.7028 30.1109 33.3141 29.0217 33.3141 27.972H32.0915V27.3609C33.3141 27.3609 34.0155 26.2043 34.0155 25.1527H31.9433V24.3921H32.1058C32.7595 24.3921 33.4463 24.3136 33.9511 23.8983C34.3799 23.5455 34.5748 23.1284 34.6493 22.6186V21.9851H28.3477C29.4723 23.129 30.1707 24.6932 30.1707 26.4198Z"/>
</mask>
<path d="M30.1707 26.4198C30.1707 27.8514 29.6751 29.1588 28.8708 30.2209H31.4805C32.7028 30.1109 33.3141 29.0217 33.3141 27.972H32.0915V27.3609C33.3141 27.3609 34.0155 26.2043 34.0155 25.1527H31.9433V24.3921H32.1058C32.7595 24.3921 33.4463 24.3136 33.9511 23.8983C34.3799 23.5455 34.5748 23.1284 34.6493 22.6186V21.9851H28.3477C29.4723 23.129 30.1707 24.6932 30.1707 26.4198Z" fill="#F7E6FF"/>
<path d="M28.8708 30.2209L28.3834 29.8518L27.641 30.8322H28.8708V30.2209ZM31.4805 30.2209V30.8322H31.5079L31.5353 30.8297L31.4805 30.2209ZM33.3141 27.972H33.9255V27.3607H33.3141V27.972ZM32.0915 27.972H31.4801V28.5834H32.0915V27.972ZM32.0915 27.3609V26.7496C31.7538 26.7496 31.4801 27.0233 31.4801 27.3609H32.0915ZM34.0155 25.1527H34.6269V24.5414H34.0155V25.1527ZM31.9433 25.1527H31.332V25.764H31.9433V25.1527ZM31.9433 24.3921V23.7808C31.6057 23.7808 31.332 24.0545 31.332 24.3921H31.9433ZM34.6493 22.6186L35.2542 22.707L35.2606 22.663V22.6186H34.6493ZM34.6493 21.9851H35.2606V21.3738H34.6493V21.9851ZM28.3477 21.9851V21.3738H26.8893L27.9117 22.4137L28.3477 21.9851ZM29.5594 26.4198C29.5594 27.7065 29.1147 28.8862 28.3834 29.8518L29.3582 30.5899C30.2355 29.4313 30.7821 27.9964 30.7821 26.4198H29.5594ZM28.8708 30.8322H31.4805V29.6095H28.8708V30.8322ZM31.5353 30.8297C33.1846 30.6813 33.9255 29.2116 33.9255 27.972H32.7028C32.7028 28.8318 32.221 29.5404 31.4257 29.612L31.5353 30.8297ZM33.3141 27.3607H32.0915V28.5834H33.3141V27.3607ZM32.7028 27.972V27.3609H31.4801V27.972H32.7028ZM32.0915 27.9723C32.9172 27.9723 33.567 27.5745 33.994 27.0272C34.412 26.4915 34.6269 25.8046 34.6269 25.1527H33.4042C33.4042 25.5524 33.2683 25.9697 33.03 26.2751C32.8007 26.569 32.4885 26.7496 32.0915 26.7496V27.9723ZM34.0155 24.5414H31.9433V25.764H34.0155V24.5414ZM32.5547 25.1527V24.3921H31.332V25.1527H32.5547ZM31.9433 25.0035H32.1058V23.7808H31.9433V25.0035ZM34.3395 24.3704C34.9046 23.9055 35.1616 23.341 35.2542 22.707L34.0444 22.5303C33.9881 22.9159 33.8552 23.1856 33.5627 23.4262L34.3395 24.3704ZM35.2606 22.6186V21.9851H34.0379V22.6186H35.2606ZM34.6493 21.3738H28.3477V22.5964H34.6493V21.3738ZM27.9117 22.4137C28.9298 23.4493 29.5594 24.8618 29.5594 26.4198H30.7821C30.7821 24.5246 30.0147 22.8088 28.7836 21.5565L27.9117 22.4137ZM32.1058 25.0035C32.7779 25.0035 33.6578 24.9312 34.3395 24.3704L33.5627 23.4262C33.2348 23.696 32.741 23.7808 32.1058 23.7808V25.0035Z" fill="#C381F6" mask="url(#path-8-inside-1_376_62592)"/>
<path d="M15.5953 26.7476C14.8098 26.7476 14.1377 26.1887 13.9884 25.4584H14.9621C15.8306 25.4584 16.5348 24.7543 16.5348 23.8857V23.58H16.2291H14.2856C13.7963 23.58 13.3237 23.1764 13.3237 22.6186V22.2908H18.6407C17.7357 23.4243 17.191 24.8585 17.191 26.4198C17.191 27.7096 17.5741 28.9016 18.2135 29.9152H16.2291C15.4524 29.9152 14.8054 29.3605 14.6628 28.626H14.9621C15.8306 28.626 16.5348 27.9219 16.5348 27.0533V26.7476H16.2291H15.5953Z" fill="#F7E6FF" stroke="#C381F6" stroke-width="0.611333"/>
<path d="M25.7613 29.4131L26.2473 29.6204L26.1848 29.0958L25.9499 27.1228L27.2904 25.3854L27.6126 24.9679L27.0901 24.8959L25.1312 24.626L24.0977 22.8496L23.8131 22.3605L23.5601 22.8666L22.6803 24.6265L20.624 24.8956L20.106 24.9634L20.4189 25.3818L21.7187 27.1193L21.4717 29.094L21.4058 29.6207L21.8944 29.4133L23.8332 28.5903L25.7613 29.4131ZM19.0691 26.42C19.0691 23.7898 21.202 21.6575 23.8335 21.6575C26.4649 21.6575 28.5979 23.7898 28.5979 26.42C28.5979 29.0501 26.4649 31.1825 23.8335 31.1825C21.202 31.1825 19.0691 29.0501 19.0691 26.42Z" fill="#F7E6FF" stroke="#C381F6" stroke-width="0.611333"/>
</g>
<defs>
<filter id="filter0_f_376_62592" x="7.66675" y="7.8335" width="32.3333" height="32.3333" filterUnits="userSpaceOnUse" color-interpolation-filters="sRGB">
<feFlood flood-opacity="0" result="BackgroundImageFix"/>
<feBlend mode="normal" in="SourceGraphic" in2="BackgroundImageFix" result="shape"/>
<feGaussianBlur stdDeviation="0.75" result="effect1_foregroundBlur_376_62592"/>
</filter>
<filter id="filter1_d_376_62592" x="0.166748" y="0.333496" width="47.3333" height="47.3333" filterUnits="userSpaceOnUse" color-interpolation-filters="sRGB">
<feFlood flood-opacity="0" result="BackgroundImageFix"/>
<feColorMatrix in="SourceAlpha" type="matrix" values="0 0 0 0 0 0 0 0 0 0 0 0 0 0 0 0 0 0 127 0" result="hardAlpha"/>
<feOffset/>
<feGaussianBlur stdDeviation="4.5"/>
<feComposite in2="hardAlpha" operator="out"/>
<feColorMatrix type="matrix" values="0 0 0 0 0.512333 0 0 0 0 0.129167 0 0 0 0 1 0 0 0 1 0"/>
<feBlend mode="normal" in2="BackgroundImageFix" result="effect1_dropShadow_376_62592"/>
<feBlend mode="normal" in="SourceGraphic" in2="effect1_dropShadow_376_62592" result="shape"/>
</filter>
</defs>
</svg>
