<svg width="48" height="46" viewBox="0 0 48 46" fill="none" xmlns="http://www.w3.org/2000/svg">
<g filter="url(#filter0_f_376_62657)">
<mask id="path-1-inside-1_376_62657" fill="white">
<path d="M13.7498 23H29.3332V13.8333H13.7498V23ZM16.0415 16.125H27.0415V20.7083H16.0415V16.125ZM13.7498 32.1667H29.3332V29.875H13.7498V32.1667ZM13.7498 27.5833H29.3332V25.2917H13.7498V27.5833ZM35.0623 25.2917H33.9165V12.6875C33.9165 10.7921 32.3744 9.25 30.479 9.25H12.604C10.7086 9.25 9.1665 10.7921 9.1665 12.6875V33.3125C9.1665 35.2079 10.7086 36.75 12.604 36.75H35.0625C36.9579 36.7499 38.4998 35.2079 38.4998 33.3125V28.7292C38.4998 26.8337 36.9578 25.2917 35.0623 25.2917ZM12.5276 34.9167C11.8958 34.9167 11.1526 34.2395 11.1526 33.6077V12.5646C11.1526 11.9327 11.8194 11.1597 12.4512 11.1597H30.6318C31.2636 11.1597 31.7776 11.6737 31.7776 12.3056V32.3004C31.7776 32.9695 31.8997 33.633 32.1379 34.2583L32.3887 34.9167H12.5276ZM36.3609 33.3125C36.3609 33.9443 35.6941 34.4583 35.0623 34.4583C34.4305 34.4583 33.9165 33.9443 33.9165 33.3125V27.2778H35.0623C35.6941 27.2778 36.3609 27.7918 36.3609 28.4236V33.3125Z"/>
</mask>
<path d="M13.7498 23H29.3332V13.8333H13.7498V23ZM16.0415 16.125H27.0415V20.7083H16.0415V16.125ZM13.7498 32.1667H29.3332V29.875H13.7498V32.1667ZM13.7498 27.5833H29.3332V25.2917H13.7498V27.5833ZM35.0623 25.2917H33.9165V12.6875C33.9165 10.7921 32.3744 9.25 30.479 9.25H12.604C10.7086 9.25 9.1665 10.7921 9.1665 12.6875V33.3125C9.1665 35.2079 10.7086 36.75 12.604 36.75H35.0625C36.9579 36.7499 38.4998 35.2079 38.4998 33.3125V28.7292C38.4998 26.8337 36.9578 25.2917 35.0623 25.2917ZM12.5276 34.9167C11.8958 34.9167 11.1526 34.2395 11.1526 33.6077V12.5646C11.1526 11.9327 11.8194 11.1597 12.4512 11.1597H30.6318C31.2636 11.1597 31.7776 11.6737 31.7776 12.3056V32.3004C31.7776 32.9695 31.8997 33.633 32.1379 34.2583L32.3887 34.9167H12.5276ZM36.3609 33.3125C36.3609 33.9443 35.6941 34.4583 35.0623 34.4583C34.4305 34.4583 33.9165 33.9443 33.9165 33.3125V27.2778H35.0623C35.6941 27.2778 36.3609 27.7918 36.3609 28.4236V33.3125Z" fill="#FCFCFC"/>
<path d="M13.7498 23H13.1387V23.6111H13.7498V23ZM29.3332 23V23.6111H29.9443V23H29.3332ZM29.3332 13.8333H29.9443V13.2222H29.3332V13.8333ZM13.7498 13.8333V13.2222H13.1387V13.8333H13.7498ZM16.0415 16.125V15.5139H15.4304V16.125H16.0415ZM27.0415 16.125H27.6526V15.5139H27.0415V16.125ZM27.0415 20.7083V21.3194H27.6526V20.7083H27.0415ZM16.0415 20.7083H15.4304V21.3194H16.0415V20.7083ZM13.7498 32.1667H13.1387V32.7778H13.7498V32.1667ZM29.3332 32.1667V32.7778H29.9443V32.1667H29.3332ZM29.3332 29.875H29.9443V29.2639H29.3332V29.875ZM13.7498 29.875V29.2639H13.1387V29.875H13.7498ZM13.7498 27.5833H13.1387V28.1944H13.7498V27.5833ZM29.3332 27.5833V28.1944H29.9443V27.5833H29.3332ZM29.3332 25.2917H29.9443V24.6806H29.3332V25.2917ZM13.7498 25.2917V24.6806H13.1387V25.2917H13.7498ZM33.9165 25.2917H33.3054V25.9028H33.9165V25.2917ZM35.0625 36.75V37.3611H35.0625L35.0625 36.75ZM32.3887 34.9167V35.5278C32.5897 35.5278 32.7779 35.4289 32.8919 35.2634C33.006 35.0979 33.0314 34.8869 32.9598 34.6991L32.3887 34.9167ZM33.9165 27.2778V26.6667H33.3054V27.2778H33.9165ZM32.1379 34.2583L31.5669 34.4759L32.1379 34.2583ZM13.7498 23.6111H29.3332V22.3889H13.7498V23.6111ZM29.9443 23V13.8333H28.7221V23H29.9443ZM29.3332 13.2222H13.7498V14.4444H29.3332V13.2222ZM13.1387 13.8333V23H14.3609V13.8333H13.1387ZM16.0415 16.7361H27.0415V15.5139H16.0415V16.7361ZM26.4304 16.125V20.7083H27.6526V16.125H26.4304ZM27.0415 20.0972H16.0415V21.3194H27.0415V20.0972ZM16.6526 20.7083V16.125H15.4304V20.7083H16.6526ZM13.7498 32.7778H29.3332V31.5556H13.7498V32.7778ZM29.9443 32.1667V29.875H28.7221V32.1667H29.9443ZM29.3332 29.2639H13.7498V30.4861H29.3332V29.2639ZM13.1387 29.875V32.1667H14.3609V29.875H13.1387ZM13.7498 28.1944H29.3332V26.9722H13.7498V28.1944ZM29.9443 27.5833V25.2917H28.7221V27.5833H29.9443ZM29.3332 24.6806H13.7498V25.9028H29.3332V24.6806ZM13.1387 25.2917V27.5833H14.3609V25.2917H13.1387ZM35.0623 24.6806H33.9165V25.9028H35.0623V24.6806ZM34.5276 25.2917V12.6875H33.3054V25.2917H34.5276ZM34.5276 12.6875C34.5276 10.4546 32.7119 8.63889 30.479 8.63889V9.86111C32.0369 9.86111 33.3054 11.1296 33.3054 12.6875H34.5276ZM30.479 8.63889H12.604V9.86111H30.479V8.63889ZM12.604 8.63889C10.3711 8.63889 8.55539 10.4546 8.55539 12.6875H9.77762C9.77762 11.1296 11.0461 9.86111 12.604 9.86111V8.63889ZM8.55539 12.6875V33.3125H9.77762V12.6875H8.55539ZM8.55539 33.3125C8.55539 35.5454 10.3711 37.3611 12.604 37.3611V36.1389C11.0461 36.1389 9.77762 34.8704 9.77762 33.3125H8.55539ZM12.604 37.3611H35.0625V36.1389H12.604V37.3611ZM35.0625 37.3611C37.2954 37.361 39.1109 35.5454 39.1109 33.3125H37.8887C37.8887 34.8704 36.6204 36.1388 35.0625 36.1389L35.0625 37.3611ZM39.1109 33.3125V28.7292H37.8887V33.3125H39.1109ZM39.1109 28.7292C39.1109 26.4962 37.2953 24.6806 35.0623 24.6806V25.9028C36.6203 25.9028 37.8887 27.1712 37.8887 28.7292H39.1109ZM12.5276 34.3056C12.4132 34.3056 12.2116 34.2318 12.0212 34.0533C11.8288 33.8729 11.7637 33.6958 11.7637 33.6077H10.5415C10.5415 34.1514 10.848 34.6287 11.1852 34.9449C11.5243 35.2629 12.0103 35.5278 12.5276 35.5278V34.3056ZM11.7637 33.6077V12.5646H10.5415V33.6077H11.7637ZM11.7637 12.5646C11.7637 12.4442 11.8401 12.2325 12.0187 12.0346C12.2005 11.8332 12.3731 11.7708 12.4512 11.7708V10.5486C11.8976 10.5486 11.4209 10.8728 11.1113 11.2158C10.7985 11.5624 10.5415 12.0531 10.5415 12.5646H11.7637ZM12.4512 11.7708H30.6318V10.5486H12.4512V11.7708ZM30.6318 11.7708C30.9261 11.7708 31.1665 12.0113 31.1665 12.3056H32.3887C32.3887 11.3362 31.6011 10.5486 30.6318 10.5486V11.7708ZM31.1665 12.3056V32.3004H32.3887V12.3056H31.1665ZM31.5669 34.4759L31.8176 35.1342L32.9598 34.6991L32.709 34.0408L31.5669 34.4759ZM32.3887 34.3056H12.5276V35.5278H32.3887V34.3056ZM35.7498 33.3125C35.7498 33.405 35.6995 33.5328 35.5543 33.6555C35.4083 33.7787 35.2206 33.8472 35.0623 33.8472V35.0694C35.5359 35.0694 35.9975 34.8809 36.3429 34.5892C36.689 34.2969 36.9721 33.8518 36.9721 33.3125H35.7498ZM35.0623 33.8472C34.768 33.8472 34.5276 33.6068 34.5276 33.3125H33.3054C33.3054 34.2818 34.093 35.0694 35.0623 35.0694V33.8472ZM34.5276 33.3125V27.2778H33.3054V33.3125H34.5276ZM33.9165 27.8889H35.0623V26.6667H33.9165V27.8889ZM35.0623 27.8889C35.2206 27.8889 35.4083 27.9574 35.5543 28.0807C35.6995 28.2033 35.7498 28.3311 35.7498 28.4236H36.9721C36.9721 27.8843 36.689 27.4392 36.3429 27.1469C35.9975 26.8552 35.5359 26.6667 35.0623 26.6667V27.8889ZM35.7498 28.4236V33.3125H36.9721V28.4236H35.7498ZM31.1665 32.3004C31.1665 33.0439 31.3022 33.7811 31.5669 34.4759L32.709 34.0408C32.4973 33.485 32.3887 32.8952 32.3887 32.3004H31.1665Z" fill="#F4DEFF" mask="url(#path-1-inside-1_376_62657)"/>
</g>
<g filter="url(#filter1_d_376_62657)">
<mask id="path-3-inside-2_376_62657" fill="white">
<path d="M13.7498 23H29.3332V13.8333H13.7498V23ZM16.0415 16.125H27.0415V20.7083H16.0415V16.125ZM13.7498 32.1667H29.3332V29.875H13.7498V32.1667ZM13.7498 27.5833H29.3332V25.2917H13.7498V27.5833ZM35.0623 25.2917H33.9165V12.6875C33.9165 10.7921 32.3744 9.25 30.479 9.25H12.604C10.7086 9.25 9.1665 10.7921 9.1665 12.6875V33.3125C9.1665 35.2079 10.7086 36.75 12.604 36.75H35.0625C36.9579 36.7499 38.4998 35.2079 38.4998 33.3125V28.7292C38.4998 26.8337 36.9578 25.2917 35.0623 25.2917ZM12.5276 34.9167C11.8958 34.9167 11.1526 34.2395 11.1526 33.6077V12.5646C11.1526 11.9327 11.8194 11.1597 12.4512 11.1597H30.6318C31.2636 11.1597 31.7776 11.6737 31.7776 12.3056V32.3004C31.7776 32.9695 31.8997 33.633 32.1379 34.2583L32.3887 34.9167H12.5276ZM36.3609 33.3125C36.3609 33.9443 35.6941 34.4583 35.0623 34.4583C34.4305 34.4583 33.9165 33.9443 33.9165 33.3125V27.2778H35.0623C35.6941 27.2778 36.3609 27.7918 36.3609 28.4236V33.3125Z"/>
</mask>
<path d="M13.7498 23H29.3332V13.8333H13.7498V23ZM16.0415 16.125H27.0415V20.7083H16.0415V16.125ZM13.7498 32.1667H29.3332V29.875H13.7498V32.1667ZM13.7498 27.5833H29.3332V25.2917H13.7498V27.5833ZM35.0623 25.2917H33.9165V12.6875C33.9165 10.7921 32.3744 9.25 30.479 9.25H12.604C10.7086 9.25 9.1665 10.7921 9.1665 12.6875V33.3125C9.1665 35.2079 10.7086 36.75 12.604 36.75H35.0625C36.9579 36.7499 38.4998 35.2079 38.4998 33.3125V28.7292C38.4998 26.8337 36.9578 25.2917 35.0623 25.2917ZM12.5276 34.9167C11.8958 34.9167 11.1526 34.2395 11.1526 33.6077V12.5646C11.1526 11.9327 11.8194 11.1597 12.4512 11.1597H30.6318C31.2636 11.1597 31.7776 11.6737 31.7776 12.3056V32.3004C31.7776 32.9695 31.8997 33.633 32.1379 34.2583L32.3887 34.9167H12.5276ZM36.3609 33.3125C36.3609 33.9443 35.6941 34.4583 35.0623 34.4583C34.4305 34.4583 33.9165 33.9443 33.9165 33.3125V27.2778H35.0623C35.6941 27.2778 36.3609 27.7918 36.3609 28.4236V33.3125Z" fill="#F7E6FF"/>
<path d="M13.7498 23H13.1387V23.6111H13.7498V23ZM29.3332 23V23.6111H29.9443V23H29.3332ZM29.3332 13.8333H29.9443V13.2222H29.3332V13.8333ZM13.7498 13.8333V13.2222H13.1387V13.8333H13.7498ZM16.0415 16.125V15.5139H15.4304V16.125H16.0415ZM27.0415 16.125H27.6526V15.5139H27.0415V16.125ZM27.0415 20.7083V21.3194H27.6526V20.7083H27.0415ZM16.0415 20.7083H15.4304V21.3194H16.0415V20.7083ZM13.7498 32.1667H13.1387V32.7778H13.7498V32.1667ZM29.3332 32.1667V32.7778H29.9443V32.1667H29.3332ZM29.3332 29.875H29.9443V29.2639H29.3332V29.875ZM13.7498 29.875V29.2639H13.1387V29.875H13.7498ZM13.7498 27.5833H13.1387V28.1944H13.7498V27.5833ZM29.3332 27.5833V28.1944H29.9443V27.5833H29.3332ZM29.3332 25.2917H29.9443V24.6806H29.3332V25.2917ZM13.7498 25.2917V24.6806H13.1387V25.2917H13.7498ZM33.9165 25.2917H33.3054V25.9028H33.9165V25.2917ZM35.0625 36.75V37.3611H35.0625L35.0625 36.75ZM32.3887 34.9167V35.5278C32.5897 35.5278 32.7779 35.4289 32.8919 35.2634C33.006 35.0979 33.0314 34.8869 32.9598 34.6991L32.3887 34.9167ZM33.9165 27.2778V26.6667H33.3054V27.2778H33.9165ZM32.1379 34.2583L31.5669 34.4759L32.1379 34.2583ZM13.7498 23.6111H29.3332V22.3889H13.7498V23.6111ZM29.9443 23V13.8333H28.7221V23H29.9443ZM29.3332 13.2222H13.7498V14.4444H29.3332V13.2222ZM13.1387 13.8333V23H14.3609V13.8333H13.1387ZM16.0415 16.7361H27.0415V15.5139H16.0415V16.7361ZM26.4304 16.125V20.7083H27.6526V16.125H26.4304ZM27.0415 20.0972H16.0415V21.3194H27.0415V20.0972ZM16.6526 20.7083V16.125H15.4304V20.7083H16.6526ZM13.7498 32.7778H29.3332V31.5556H13.7498V32.7778ZM29.9443 32.1667V29.875H28.7221V32.1667H29.9443ZM29.3332 29.2639H13.7498V30.4861H29.3332V29.2639ZM13.1387 29.875V32.1667H14.3609V29.875H13.1387ZM13.7498 28.1944H29.3332V26.9722H13.7498V28.1944ZM29.9443 27.5833V25.2917H28.7221V27.5833H29.9443ZM29.3332 24.6806H13.7498V25.9028H29.3332V24.6806ZM13.1387 25.2917V27.5833H14.3609V25.2917H13.1387ZM35.0623 24.6806H33.9165V25.9028H35.0623V24.6806ZM34.5276 25.2917V12.6875H33.3054V25.2917H34.5276ZM34.5276 12.6875C34.5276 10.4546 32.7119 8.63889 30.479 8.63889V9.86111C32.0369 9.86111 33.3054 11.1296 33.3054 12.6875H34.5276ZM30.479 8.63889H12.604V9.86111H30.479V8.63889ZM12.604 8.63889C10.3711 8.63889 8.55539 10.4546 8.55539 12.6875H9.77762C9.77762 11.1296 11.0461 9.86111 12.604 9.86111V8.63889ZM8.55539 12.6875V33.3125H9.77762V12.6875H8.55539ZM8.55539 33.3125C8.55539 35.5454 10.3711 37.3611 12.604 37.3611V36.1389C11.0461 36.1389 9.77762 34.8704 9.77762 33.3125H8.55539ZM12.604 37.3611H35.0625V36.1389H12.604V37.3611ZM35.0625 37.3611C37.2954 37.361 39.1109 35.5454 39.1109 33.3125H37.8887C37.8887 34.8704 36.6204 36.1388 35.0625 36.1389L35.0625 37.3611ZM39.1109 33.3125V28.7292H37.8887V33.3125H39.1109ZM39.1109 28.7292C39.1109 26.4962 37.2953 24.6806 35.0623 24.6806V25.9028C36.6203 25.9028 37.8887 27.1712 37.8887 28.7292H39.1109ZM12.5276 34.3056C12.4132 34.3056 12.2116 34.2318 12.0212 34.0533C11.8288 33.8729 11.7637 33.6958 11.7637 33.6077H10.5415C10.5415 34.1514 10.848 34.6287 11.1852 34.9449C11.5243 35.2629 12.0103 35.5278 12.5276 35.5278V34.3056ZM11.7637 33.6077V12.5646H10.5415V33.6077H11.7637ZM11.7637 12.5646C11.7637 12.4442 11.8401 12.2325 12.0187 12.0346C12.2005 11.8332 12.3731 11.7708 12.4512 11.7708V10.5486C11.8976 10.5486 11.4209 10.8728 11.1113 11.2158C10.7985 11.5624 10.5415 12.0531 10.5415 12.5646H11.7637ZM12.4512 11.7708H30.6318V10.5486H12.4512V11.7708ZM30.6318 11.7708C30.9261 11.7708 31.1665 12.0113 31.1665 12.3056H32.3887C32.3887 11.3362 31.6011 10.5486 30.6318 10.5486V11.7708ZM31.1665 12.3056V32.3004H32.3887V12.3056H31.1665ZM31.5669 34.4759L31.8176 35.1342L32.9598 34.6991L32.709 34.0408L31.5669 34.4759ZM32.3887 34.3056H12.5276V35.5278H32.3887V34.3056ZM35.7498 33.3125C35.7498 33.405 35.6995 33.5328 35.5543 33.6555C35.4083 33.7787 35.2206 33.8472 35.0623 33.8472V35.0694C35.5359 35.0694 35.9975 34.8809 36.3429 34.5892C36.689 34.2969 36.9721 33.8518 36.9721 33.3125H35.7498ZM35.0623 33.8472C34.768 33.8472 34.5276 33.6068 34.5276 33.3125H33.3054C33.3054 34.2818 34.093 35.0694 35.0623 35.0694V33.8472ZM34.5276 33.3125V27.2778H33.3054V33.3125H34.5276ZM33.9165 27.8889H35.0623V26.6667H33.9165V27.8889ZM35.0623 27.8889C35.2206 27.8889 35.4083 27.9574 35.5543 28.0807C35.6995 28.2033 35.7498 28.3311 35.7498 28.4236H36.9721C36.9721 27.8843 36.689 27.4392 36.3429 27.1469C35.9975 26.8552 35.5359 26.6667 35.0623 26.6667V27.8889ZM35.7498 28.4236V33.3125H36.9721V28.4236H35.7498ZM31.1665 32.3004C31.1665 33.0439 31.3022 33.7811 31.5669 34.4759L32.709 34.0408C32.4973 33.485 32.3887 32.8952 32.3887 32.3004H31.1665Z" fill="#C381F6" mask="url(#path-3-inside-2_376_62657)"/>
</g>
<defs>
<filter id="filter0_f_376_62657" x="7.6665" y="7.75" width="32.3333" height="30.5" filterUnits="userSpaceOnUse" color-interpolation-filters="sRGB">
<feFlood flood-opacity="0" result="BackgroundImageFix"/>
<feBlend mode="normal" in="SourceGraphic" in2="BackgroundImageFix" result="shape"/>
<feGaussianBlur stdDeviation="0.75" result="effect1_foregroundBlur_376_62657"/>
</filter>
<filter id="filter1_d_376_62657" x="0.166504" y="0.25" width="47.3333" height="45.5" filterUnits="userSpaceOnUse" color-interpolation-filters="sRGB">
<feFlood flood-opacity="0" result="BackgroundImageFix"/>
<feColorMatrix in="SourceAlpha" type="matrix" values="0 0 0 0 0 0 0 0 0 0 0 0 0 0 0 0 0 0 127 0" result="hardAlpha"/>
<feOffset/>
<feGaussianBlur stdDeviation="4.5"/>
<feComposite in2="hardAlpha" operator="out"/>
<feColorMatrix type="matrix" values="0 0 0 0 0.512333 0 0 0 0 0.129167 0 0 0 0 1 0 0 0 1 0"/>
<feBlend mode="normal" in2="BackgroundImageFix" result="effect1_dropShadow_376_62657"/>
<feBlend mode="normal" in="SourceGraphic" in2="effect1_dropShadow_376_62657" result="shape"/>
</filter>
</defs>
</svg>
