<svg width="32" height="32" viewBox="0 0 32 32" fill="none" xmlns="http://www.w3.org/2000/svg">
<mask id="path-1-inside-1_1256_33361" fill="white">
<path d="M5.91634 16H21.4997V6.83333H5.91634V16ZM8.20801 9.125H19.208V13.7083H8.20801V9.125ZM5.91634 25.1667H21.4997V22.875H5.91634V25.1667ZM5.91634 20.5833H21.4997V18.2917H5.91634V20.5833ZM27.2288 18.2917H26.083V5.6875C26.083 3.79206 24.5409 2.25 22.6455 2.25H4.77051C2.87507 2.25 1.33301 3.79206 1.33301 5.6875V26.3125C1.33301 28.2079 2.87507 29.75 4.77051 29.75H27.229C29.1244 29.7499 30.6663 28.2079 30.6663 26.3125V21.7292C30.6663 19.8337 29.1243 18.2917 27.2288 18.2917ZM4.69412 27.9167C4.06231 27.9167 3.31912 27.2395 3.31912 26.6077V5.56456C3.31912 4.93274 3.98592 4.15972 4.61773 4.15972H22.7983C23.4301 4.15972 23.9441 4.67374 23.9441 5.30556V25.3004C23.9441 25.9695 24.0662 26.633 24.3044 27.2583L24.5552 27.9167H4.69412ZM28.5275 26.3125C28.5275 26.9443 27.8607 27.4583 27.2288 27.4583C26.597 27.4583 26.083 26.9443 26.083 26.3125V20.2778H27.2288C27.8607 20.2778 28.5275 20.7918 28.5275 21.4236V26.3125Z"/>
</mask>
<path d="M5.91634 16H21.4997V6.83333H5.91634V16ZM8.20801 9.125H19.208V13.7083H8.20801V9.125ZM5.91634 25.1667H21.4997V22.875H5.91634V25.1667ZM5.91634 20.5833H21.4997V18.2917H5.91634V20.5833ZM27.2288 18.2917H26.083V5.6875C26.083 3.79206 24.5409 2.25 22.6455 2.25H4.77051C2.87507 2.25 1.33301 3.79206 1.33301 5.6875V26.3125C1.33301 28.2079 2.87507 29.75 4.77051 29.75H27.229C29.1244 29.7499 30.6663 28.2079 30.6663 26.3125V21.7292C30.6663 19.8337 29.1243 18.2917 27.2288 18.2917ZM4.69412 27.9167C4.06231 27.9167 3.31912 27.2395 3.31912 26.6077V5.56456C3.31912 4.93274 3.98592 4.15972 4.61773 4.15972H22.7983C23.4301 4.15972 23.9441 4.67374 23.9441 5.30556V25.3004C23.9441 25.9695 24.0662 26.633 24.3044 27.2583L24.5552 27.9167H4.69412ZM28.5275 26.3125C28.5275 26.9443 27.8607 27.4583 27.2288 27.4583C26.597 27.4583 26.083 26.9443 26.083 26.3125V20.2778H27.2288C27.8607 20.2778 28.5275 20.7918 28.5275 21.4236V26.3125Z" fill="#7643AA"/>
<path d="M5.91634 16H5.30523V16.6111H5.91634V16ZM21.4997 16V16.6111H22.1108V16H21.4997ZM21.4997 6.83333H22.1108V6.22222H21.4997V6.83333ZM5.91634 6.83333V6.22222H5.30523V6.83333H5.91634ZM8.20801 9.125V8.51389H7.5969V9.125H8.20801ZM19.208 9.125H19.8191V8.51389H19.208V9.125ZM19.208 13.7083V14.3194H19.8191V13.7083H19.208ZM8.20801 13.7083H7.5969V14.3194H8.20801V13.7083ZM5.91634 25.1667H5.30523V25.7778H5.91634V25.1667ZM21.4997 25.1667V25.7778H22.1108V25.1667H21.4997ZM21.4997 22.875H22.1108V22.2639H21.4997V22.875ZM5.91634 22.875V22.2639H5.30523V22.875H5.91634ZM5.91634 20.5833H5.30523V21.1944H5.91634V20.5833ZM21.4997 20.5833V21.1944H22.1108V20.5833H21.4997ZM21.4997 18.2917H22.1108V17.6806H21.4997V18.2917ZM5.91634 18.2917V17.6806H5.30523V18.2917H5.91634ZM26.083 18.2917H25.4719V18.9028H26.083V18.2917ZM27.229 29.75V30.3611H27.229L27.229 29.75ZM24.5552 27.9167V28.5278C24.7562 28.5278 24.9444 28.4289 25.0584 28.2634C25.1725 28.0979 25.1979 27.8869 25.1263 27.6991L24.5552 27.9167ZM26.083 20.2778V19.6667H25.4719V20.2778H26.083ZM24.3044 27.2583L23.7334 27.4759L24.3044 27.2583ZM5.91634 16.6111H21.4997V15.3889H5.91634V16.6111ZM22.1108 16V6.83333H20.8886V16H22.1108ZM21.4997 6.22222H5.91634V7.44444H21.4997V6.22222ZM5.30523 6.83333V16H6.52745V6.83333H5.30523ZM8.20801 9.73611H19.208V8.51389H8.20801V9.73611ZM18.5969 9.125V13.7083H19.8191V9.125H18.5969ZM19.208 13.0972H8.20801V14.3194H19.208V13.0972ZM8.81912 13.7083V9.125H7.5969V13.7083H8.81912ZM5.91634 25.7778H21.4997V24.5556H5.91634V25.7778ZM22.1108 25.1667V22.875H20.8886V25.1667H22.1108ZM21.4997 22.2639H5.91634V23.4861H21.4997V22.2639ZM5.30523 22.875V25.1667H6.52745V22.875H5.30523ZM5.91634 21.1944H21.4997V19.9722H5.91634V21.1944ZM22.1108 20.5833V18.2917H20.8886V20.5833H22.1108ZM21.4997 17.6806H5.91634V18.9028H21.4997V17.6806ZM5.30523 18.2917V20.5833H6.52745V18.2917H5.30523ZM27.2288 17.6806H26.083V18.9028H27.2288V17.6806ZM26.6941 18.2917V5.6875H25.4719V18.2917H26.6941ZM26.6941 5.6875C26.6941 3.45456 24.8785 1.63889 22.6455 1.63889V2.86111C24.2034 2.86111 25.4719 4.12957 25.4719 5.6875H26.6941ZM22.6455 1.63889H4.77051V2.86111H22.6455V1.63889ZM4.77051 1.63889C2.53756 1.63889 0.721897 3.45456 0.721897 5.6875H1.94412C1.94412 4.12957 3.21258 2.86111 4.77051 2.86111V1.63889ZM0.721897 5.6875V26.3125H1.94412V5.6875H0.721897ZM0.721897 26.3125C0.721897 28.5454 2.53756 30.3611 4.77051 30.3611V29.1389C3.21258 29.1389 1.94412 27.8704 1.94412 26.3125H0.721897ZM4.77051 30.3611H27.229V29.1389H4.77051V30.3611ZM27.229 30.3611C29.4619 30.361 31.2775 28.5454 31.2775 26.3125H30.0552C30.0552 27.8704 28.7869 29.1388 27.229 29.1389L27.229 30.3611ZM31.2775 26.3125V21.7292H30.0552V26.3125H31.2775ZM31.2775 21.7292C31.2775 19.4962 29.4618 17.6806 27.2288 17.6806V18.9028C28.7868 18.9028 30.0552 20.1712 30.0552 21.7292H31.2775ZM4.69412 27.3056C4.57966 27.3056 4.37809 27.2318 4.1877 27.0533C3.99531 26.8729 3.93023 26.6958 3.93023 26.6077H2.70801C2.70801 27.1514 3.01452 27.6287 3.35168 27.9449C3.69083 28.2629 4.17676 28.5278 4.69412 28.5278V27.3056ZM3.93023 26.6077V5.56456H2.70801V26.6077H3.93023ZM3.93023 5.56456C3.93023 5.44423 4.00659 5.23252 4.18518 5.03464C4.36697 4.8332 4.53957 4.77083 4.61773 4.77083V3.54861C4.06408 3.54861 3.58738 3.87276 3.27781 4.21578C2.96505 4.56236 2.70801 5.05307 2.70801 5.56456H3.93023ZM4.61773 4.77083H22.7983V3.54861H4.61773V4.77083ZM22.7983 4.77083C23.0926 4.77083 23.333 5.01125 23.333 5.30556H24.5552C24.5552 4.33624 23.7676 3.54861 22.7983 3.54861V4.77083ZM23.333 5.30556V25.3004H24.5552V5.30556H23.333ZM23.7334 27.4759L23.9842 28.1342L25.1263 27.6991L24.8755 27.0408L23.7334 27.4759ZM24.5552 27.3056H4.69412V28.5278H24.5552V27.3056ZM27.9163 26.3125C27.9163 26.405 27.866 26.5328 27.7208 26.6555C27.5748 26.7787 27.3871 26.8472 27.2288 26.8472V28.0694C27.7024 28.0694 28.164 27.8809 28.5094 27.5892C28.8555 27.2969 29.1386 26.8518 29.1386 26.3125H27.9163ZM27.2288 26.8472C26.9345 26.8472 26.6941 26.6068 26.6941 26.3125H25.4719C25.4719 27.2818 26.2595 28.0694 27.2288 28.0694V26.8472ZM26.6941 26.3125V20.2778H25.4719V26.3125H26.6941ZM26.083 20.8889H27.2288V19.6667H26.083V20.8889ZM27.2288 20.8889C27.3871 20.8889 27.5748 20.9574 27.7208 21.0807C27.866 21.2033 27.9163 21.3311 27.9163 21.4236H29.1386C29.1386 20.8843 28.8555 20.4392 28.5094 20.1469C28.164 19.8552 27.7024 19.6667 27.2288 19.6667V20.8889ZM27.9163 21.4236V26.3125H29.1386V21.4236H27.9163ZM23.333 25.3004C23.333 26.0439 23.4687 26.7811 23.7334 27.4759L24.8755 27.0408C24.6638 26.485 24.5552 25.8952 24.5552 25.3004H23.333Z" fill="#534296" mask="url(#path-1-inside-1_1256_33361)"/>
</svg>
