<svg width="32" height="32" viewBox="0 0 32 32" fill="none" xmlns="http://www.w3.org/2000/svg">
<mask id="path-1-inside-1_1256_33351" fill="white">
<path fill-rule="evenodd" clip-rule="evenodd" d="M21.7368 2.4402H10.2289C9.28737 2.4402 8.52407 3.2035 8.52407 4.14507V11.6512C8.52407 15.2764 11.1103 18.2975 14.5384 18.9702H17.4274C20.8554 18.2975 23.4417 15.2764 23.4417 11.6512V4.14507C23.4417 3.2035 22.6784 2.4402 21.7368 2.4402ZM6.67713 11.6512C6.67713 12.253 6.73426 12.8415 6.84339 13.4115C5.46855 12.7957 4.51076 11.4155 4.51076 9.81155V5.27734C4.51076 5.23811 4.54256 5.20631 4.58179 5.20631H6.67713V11.6512ZM12.6366 20.3371C10.3679 19.4626 8.52808 17.7247 7.51979 15.5261C4.76621 15.0798 2.66382 12.6912 2.66382 9.81155V5.27734C2.66382 4.21807 3.52253 3.35937 4.58179 3.35937H6.76433C7.12192 1.77584 8.53733 0.593262 10.2289 0.593262H21.7368C23.4284 0.593262 24.8438 1.77584 25.2014 3.35937H27.419C28.4782 3.35937 29.3369 4.21807 29.3369 5.27734V9.74056C29.3369 12.6337 27.2278 15.0341 24.4632 15.4882C23.4589 17.7044 21.6113 19.4571 19.33 20.3368C19.3711 20.49 19.3931 20.651 19.3931 20.8172V23.722L19.3931 23.724H21.9498C23.0483 23.724 23.9388 24.6145 23.9388 25.713V29.4179C23.9388 30.5164 23.0483 31.4069 21.9498 31.4069H10.0158C8.91725 31.4069 8.02674 30.5164 8.02674 29.4179V25.713C8.02674 24.6145 8.91725 23.724 10.0158 23.724H12.5736L12.5736 23.722V20.8172C12.5736 20.6511 12.5955 20.4902 12.6366 20.3371ZM25.129 13.3762C26.5202 12.7565 27.49 11.3618 27.49 9.74056V5.27734C27.49 5.23811 27.4582 5.20631 27.419 5.20631H25.2886V11.6512C25.2886 12.2406 25.2338 12.8172 25.129 13.3762ZM14.4206 23.722L14.4206 20.8263C14.9285 20.9122 15.4505 20.9569 15.9829 20.9569C16.5156 20.9569 17.0379 20.9122 17.5461 20.8262L17.5461 23.722H14.4206ZM10.0158 25.5709H21.9498C22.0283 25.5709 22.0919 25.6345 22.0919 25.713V29.4179C22.0919 29.4964 22.0283 29.56 21.9498 29.56H10.0158C9.93729 29.56 9.87368 29.4964 9.87368 29.4179V25.713C9.87368 25.6345 9.93728 25.5709 10.0158 25.5709Z"/>
</mask>
<path fill-rule="evenodd" clip-rule="evenodd" d="M21.7368 2.4402H10.2289C9.28737 2.4402 8.52407 3.2035 8.52407 4.14507V11.6512C8.52407 15.2764 11.1103 18.2975 14.5384 18.9702H17.4274C20.8554 18.2975 23.4417 15.2764 23.4417 11.6512V4.14507C23.4417 3.2035 22.6784 2.4402 21.7368 2.4402ZM6.67713 11.6512C6.67713 12.253 6.73426 12.8415 6.84339 13.4115C5.46855 12.7957 4.51076 11.4155 4.51076 9.81155V5.27734C4.51076 5.23811 4.54256 5.20631 4.58179 5.20631H6.67713V11.6512ZM12.6366 20.3371C10.3679 19.4626 8.52808 17.7247 7.51979 15.5261C4.76621 15.0798 2.66382 12.6912 2.66382 9.81155V5.27734C2.66382 4.21807 3.52253 3.35937 4.58179 3.35937H6.76433C7.12192 1.77584 8.53733 0.593262 10.2289 0.593262H21.7368C23.4284 0.593262 24.8438 1.77584 25.2014 3.35937H27.419C28.4782 3.35937 29.3369 4.21807 29.3369 5.27734V9.74056C29.3369 12.6337 27.2278 15.0341 24.4632 15.4882C23.4589 17.7044 21.6113 19.4571 19.33 20.3368C19.3711 20.49 19.3931 20.651 19.3931 20.8172V23.722L19.3931 23.724H21.9498C23.0483 23.724 23.9388 24.6145 23.9388 25.713V29.4179C23.9388 30.5164 23.0483 31.4069 21.9498 31.4069H10.0158C8.91725 31.4069 8.02674 30.5164 8.02674 29.4179V25.713C8.02674 24.6145 8.91725 23.724 10.0158 23.724H12.5736L12.5736 23.722V20.8172C12.5736 20.6511 12.5955 20.4902 12.6366 20.3371ZM25.129 13.3762C26.5202 12.7565 27.49 11.3618 27.49 9.74056V5.27734C27.49 5.23811 27.4582 5.20631 27.419 5.20631H25.2886V11.6512C25.2886 12.2406 25.2338 12.8172 25.129 13.3762ZM14.4206 23.722L14.4206 20.8263C14.9285 20.9122 15.4505 20.9569 15.9829 20.9569C16.5156 20.9569 17.0379 20.9122 17.5461 20.8262L17.5461 23.722H14.4206ZM10.0158 25.5709H21.9498C22.0283 25.5709 22.0919 25.6345 22.0919 25.713V29.4179C22.0919 29.4964 22.0283 29.56 21.9498 29.56H10.0158C9.93729 29.56 9.87368 29.4964 9.87368 29.4179V25.713C9.87368 25.6345 9.93728 25.5709 10.0158 25.5709Z" fill="#7643AA"/>
<path d="M14.5384 18.9702L14.4209 19.5688L14.4791 19.5802H14.5384V18.9702ZM17.4274 18.9702V19.5802H17.4866L17.5448 19.5688L17.4274 18.9702ZM6.84339 13.4115L6.59404 13.9682L7.66268 14.4468L7.4425 13.2968L6.84339 13.4115ZM6.67713 5.20631H7.28713V4.59631H6.67713V5.20631ZM7.51979 15.5261L8.07427 15.2718L7.93861 14.9761L7.6174 14.924L7.51979 15.5261ZM12.6366 20.3371L13.2258 20.4953L13.368 19.9653L12.856 19.768L12.6366 20.3371ZM6.76433 3.35937V3.96937H7.25194L7.35935 3.49373L6.76433 3.35937ZM25.2014 3.35937L24.6064 3.49373L24.7138 3.96937H25.2014V3.35937ZM24.4632 15.4882L24.3643 14.8863L24.0423 14.9392L23.9076 15.2364L24.4632 15.4882ZM19.33 20.3368L19.1105 19.7677L18.5985 19.9651L18.7409 20.495L19.33 20.3368ZM19.3931 23.722L20.0031 23.7225V23.722H19.3931ZM19.3931 23.724L18.7831 23.7234L18.7825 24.334H19.3931V23.724ZM12.5736 23.724V24.334H13.1839L13.1836 23.7237L12.5736 23.724ZM12.5736 23.722H11.9636V23.7222L12.5736 23.722ZM25.129 13.3762L24.5295 13.2638L24.3153 14.4064L25.3772 13.9334L25.129 13.3762ZM25.2886 5.20631V4.59631H24.6786V5.20631H25.2886ZM14.4206 20.8263L14.5222 20.2249L13.8106 20.1046V20.8263H14.4206ZM14.4206 23.722H13.8106L13.8106 24.332H14.4206V23.722ZM17.5461 20.8262H18.1561L18.1561 20.1043L17.4444 20.2247L17.5461 20.8262ZM17.5461 23.722V24.332H18.1561V23.722H17.5461ZM10.2289 3.0502H21.7368V1.8302H10.2289V3.0502ZM9.13407 4.14507C9.13407 3.54039 9.62426 3.0502 10.2289 3.0502V1.8302C8.95047 1.8302 7.91407 2.8666 7.91407 4.14507H9.13407ZM9.13407 11.6512V4.14507H7.91407V11.6512H9.13407ZM14.6558 18.3716C11.5084 17.754 9.13407 14.9792 9.13407 11.6512H7.91407C7.91407 15.5735 10.7122 18.841 14.4209 19.5688L14.6558 18.3716ZM17.4274 18.3602H14.5384V19.5802H17.4274V18.3602ZM22.8317 11.6512C22.8317 14.9792 20.4573 17.754 17.3099 18.3716L17.5448 19.5688C21.2535 18.841 24.0517 15.5735 24.0517 11.6512H22.8317ZM22.8317 4.14507V11.6512H24.0517V4.14507H22.8317ZM21.7368 3.0502C22.3415 3.0502 22.8317 3.54039 22.8317 4.14507H24.0517C24.0517 2.8666 23.0153 1.8302 21.7368 1.8302V3.0502ZM7.4425 13.2968C7.34058 12.7644 7.28713 12.2143 7.28713 11.6512H6.06713C6.06713 12.2917 6.12794 12.9186 6.24427 13.5262L7.4425 13.2968ZM3.90076 9.81155C3.90076 11.6646 5.00781 13.2577 6.59404 13.9682L7.09273 12.8547C5.92929 12.3337 5.12076 11.1664 5.12076 9.81155H3.90076ZM3.90076 5.27734V9.81155H5.12076V5.27734H3.90076ZM4.58179 4.59631C4.20567 4.59631 3.90076 4.90122 3.90076 5.27734H5.12076C5.12076 5.575 4.87946 5.81631 4.58179 5.81631V4.59631ZM6.67713 4.59631H4.58179V5.81631H6.67713V4.59631ZM7.28713 11.6512V5.20631H6.06713V11.6512H7.28713ZM6.96532 15.7804C8.03964 18.1229 9.99929 19.9742 12.4172 20.9063L12.856 19.768C10.7365 18.9509 9.01652 17.3264 8.07427 15.2718L6.96532 15.7804ZM2.05382 9.81155C2.05382 12.9952 4.37798 15.6348 7.42219 16.1283L7.6174 14.924C5.15444 14.5247 3.27382 12.3872 3.27382 9.81155H2.05382ZM2.05382 5.27734V9.81155H3.27382V5.27734H2.05382ZM4.58179 2.74937C3.18563 2.74937 2.05382 3.88118 2.05382 5.27734H3.27382C3.27382 4.55497 3.85942 3.96937 4.58179 3.96937V2.74937ZM6.76433 2.74937H4.58179V3.96937H6.76433V2.74937ZM10.2289 -0.0167383C8.24603 -0.0167383 6.58834 1.36941 6.16931 3.225L7.35935 3.49373C7.6555 2.18226 8.82862 1.20326 10.2289 1.20326V-0.0167383ZM21.7368 -0.0167383H10.2289V1.20326H21.7368V-0.0167383ZM25.7964 3.225C25.3774 1.36941 23.7197 -0.0167383 21.7368 -0.0167383V1.20326C23.1371 1.20326 24.3102 2.18226 24.6064 3.49373L25.7964 3.225ZM27.419 2.74937H25.2014V3.96937H27.419V2.74937ZM29.9469 5.27734C29.9469 3.88118 28.8151 2.74937 27.419 2.74937V3.96937C28.1413 3.96937 28.7269 4.55497 28.7269 5.27734H29.9469ZM29.9469 9.74056V5.27734H28.7269V9.74056H29.9469ZM24.5621 16.0902C27.6166 15.5884 29.9469 12.9372 29.9469 9.74056H28.7269C28.7269 12.3301 26.8389 14.4798 24.3643 14.8863L24.5621 16.0902ZM19.5495 20.906C21.9808 19.9684 23.9487 18.1014 25.0188 15.74L23.9076 15.2364C22.969 17.3075 21.2419 18.9458 19.1105 19.7677L19.5495 20.906ZM20.0031 20.8172C20.0031 20.5971 19.974 20.3829 19.9191 20.1786L18.7409 20.495C18.7683 20.5971 18.7831 20.7049 18.7831 20.8172H20.0031ZM20.0031 23.722V20.8172H18.7831V23.722H20.0031ZM20.0031 23.7246L20.0031 23.7225L18.7831 23.7214L18.7831 23.7234L20.0031 23.7246ZM21.9498 23.114H19.3931V24.334H21.9498V23.114ZM24.5488 25.713C24.5488 24.2776 23.3852 23.114 21.9498 23.114V24.334C22.7114 24.334 23.3288 24.9514 23.3288 25.713H24.5488ZM24.5488 29.4179V25.713H23.3288V29.4179H24.5488ZM21.9498 32.0169C23.3852 32.0169 24.5488 30.8533 24.5488 29.4179H23.3288C23.3288 30.1795 22.7114 30.7969 21.9498 30.7969V32.0169ZM10.0158 32.0169H21.9498V30.7969H10.0158V32.0169ZM7.41674 29.4179C7.41674 30.8533 8.58036 32.0169 10.0158 32.0169V30.7969C9.25415 30.7969 8.63674 30.1795 8.63674 29.4179H7.41674ZM7.41674 25.713V29.4179H8.63674V25.713H7.41674ZM10.0158 23.114C8.58036 23.114 7.41674 24.2776 7.41674 25.713H8.63674C8.63674 24.9514 9.25414 24.334 10.0158 24.334V23.114ZM12.5736 23.114H10.0158V24.334H12.5736V23.114ZM11.9636 23.7222L11.9636 23.7243L13.1836 23.7237L13.1836 23.7217L11.9636 23.7222ZM11.9636 20.8172V23.722H13.1836V20.8172H11.9636ZM12.0475 20.179C11.9927 20.3832 11.9636 20.5972 11.9636 20.8172H13.1836C13.1836 20.705 13.1984 20.5972 13.2258 20.4953L12.0475 20.179ZM26.88 9.74056C26.88 11.1122 26.0599 12.2937 24.8808 12.819L25.3772 13.9334C26.9804 13.2193 28.1 11.6113 28.1 9.74056H26.88ZM26.88 5.27734V9.74056H28.1V5.27734H26.88ZM27.419 5.81631C27.1213 5.81631 26.88 5.575 26.88 5.27734H28.1C28.1 4.90122 27.7951 4.59631 27.419 4.59631V5.81631ZM25.2886 5.81631H27.419V4.59631H25.2886V5.81631ZM25.8986 11.6512V5.20631H24.6786V11.6512H25.8986ZM25.7286 13.4885C25.8403 12.8927 25.8986 12.2785 25.8986 11.6512H24.6786C24.6786 12.2027 24.6273 12.7417 24.5295 13.2638L25.7286 13.4885ZM13.8106 20.8263L13.8106 23.722H15.0306L15.0306 20.8263H13.8106ZM15.9829 20.3469C15.4847 20.3469 14.9967 20.3051 14.5222 20.2249L14.3189 21.4278C14.8603 21.5193 15.4163 21.5669 15.9829 21.5669V20.3469ZM17.4444 20.2247C16.9696 20.305 16.4814 20.3469 15.9829 20.3469V21.5669C16.5498 21.5669 17.1061 21.5193 17.6479 21.4276L17.4444 20.2247ZM18.1561 23.722L18.1561 20.8262H16.9361L16.9361 23.722H18.1561ZM14.4206 24.332H17.5461V23.112H14.4206V24.332ZM21.9498 24.9609H10.0158V26.1809H21.9498V24.9609ZM22.7019 25.713C22.7019 25.2977 22.3652 24.9609 21.9498 24.9609V26.1809C21.6914 26.1809 21.4819 25.9714 21.4819 25.713H22.7019ZM22.7019 29.4179V25.713H21.4819V29.4179H22.7019ZM21.9498 30.17C22.3652 30.17 22.7019 29.8333 22.7019 29.4179H21.4819C21.4819 29.1595 21.6914 28.95 21.9498 28.95V30.17ZM10.0158 30.17H21.9498V28.95H10.0158V30.17ZM9.26368 29.4179C9.26368 29.8333 9.6004 30.17 10.0158 30.17V28.95C10.2742 28.95 10.4837 29.1595 10.4837 29.4179H9.26368ZM9.26368 25.713V29.4179H10.4837V25.713H9.26368ZM10.0158 24.9609C9.60039 24.9609 9.26368 25.2976 9.26368 25.713H10.4837C10.4837 25.9714 10.2742 26.1809 10.0158 26.1809V24.9609Z" fill="#534296" mask="url(#path-1-inside-1_1256_33351)"/>
<path d="M16 6.987L16.7202 9.20367L16.7887 9.41442H17.0103H19.3411L17.4554 10.7844L17.2762 10.9147L17.3446 11.1254L18.0649 13.3421L16.1793 11.9721L16 11.8418L15.8207 11.9721L13.9351 13.3421L14.6554 11.1254L14.7238 10.9147L14.5446 10.7844L12.6589 9.41442H14.9897H15.2113L15.2798 9.20367L16 6.987Z" fill="#7643AA" stroke="#534296" stroke-width="0.61"/>
</svg>
