<svg width="46" height="50" viewBox="0 0 46 50" fill="none" xmlns="http://www.w3.org/2000/svg">
<g filter="url(#filter0_f_926_80720)">
<mask id="path-1-inside-1_926_80720" fill="white">
<path fill-rule="evenodd" clip-rule="evenodd" d="M28.5705 11.4422H17.0627C16.1211 11.4422 15.3578 12.2054 15.3578 13.147V20.6531C15.3578 24.2783 17.944 27.2995 21.3721 27.9722H24.2611C27.6892 27.2995 30.2754 24.2783 30.2754 20.6531V13.147C30.2754 12.2054 29.5121 11.4422 28.5705 11.4422ZM13.5109 20.6531C13.5109 21.255 13.568 21.8434 13.6771 22.4134C12.3023 21.7976 11.3445 20.4174 11.3445 18.8135V14.2793C11.3445 14.2401 11.3763 14.2083 11.4155 14.2083H13.5109V20.6531ZM19.4703 29.3391C17.2016 28.4645 15.3618 26.7266 14.3535 24.5281C11.6 24.0817 9.49756 21.6931 9.49756 18.8135V14.2793C9.49756 13.22 10.3563 12.3613 11.4155 12.3613H13.5981C13.9557 10.7778 15.3711 9.59521 17.0627 9.59521H28.5705C30.2621 9.59521 31.6775 10.7778 32.0351 12.3613H34.2527C35.312 12.3613 36.1707 13.22 36.1707 14.2793V18.7425C36.1707 21.6356 34.0615 24.0361 31.2969 24.4902C30.2926 26.7064 28.4451 28.459 26.1637 29.3388C26.2049 29.4919 26.2268 29.653 26.2268 29.8191V32.7239L26.2268 32.726H28.7836C29.8821 32.726 30.7726 33.6165 30.7726 34.715V38.416C30.7726 39.5145 29.8821 40.405 28.7836 40.405H16.8495C15.751 40.405 14.8605 39.5145 14.8605 38.416V34.715C14.8605 33.6165 15.751 32.726 16.8495 32.726H19.4074L19.4074 32.7239V29.8191C19.4074 29.6531 19.4293 29.4922 19.4703 29.3391ZM31.9628 22.3781C33.3539 21.7584 34.3237 20.3637 34.3237 18.7425V14.2793C34.3237 14.2401 34.2919 14.2083 34.2527 14.2083H32.1223V20.6531C32.1223 21.2425 32.0675 21.8191 31.9628 22.3781ZM21.2543 32.7239L21.2543 29.8283C21.7623 29.9142 22.2842 29.9589 22.8166 29.9589C23.3493 29.9589 23.8716 29.9141 24.3799 29.8281L24.3799 32.7239H21.2543ZM16.8495 34.5729H28.7836C28.862 34.5729 28.9256 34.6365 28.9256 34.715V38.416C28.9256 38.4944 28.862 38.558 28.7836 38.558H16.8495C16.771 38.558 16.7074 38.4944 16.7074 38.416V34.715C16.7074 34.6365 16.771 34.5729 16.8495 34.5729Z"/>
</mask>
<path fill-rule="evenodd" clip-rule="evenodd" d="M28.5705 11.4422H17.0627C16.1211 11.4422 15.3578 12.2054 15.3578 13.147V20.6531C15.3578 24.2783 17.944 27.2995 21.3721 27.9722H24.2611C27.6892 27.2995 30.2754 24.2783 30.2754 20.6531V13.147C30.2754 12.2054 29.5121 11.4422 28.5705 11.4422ZM13.5109 20.6531C13.5109 21.255 13.568 21.8434 13.6771 22.4134C12.3023 21.7976 11.3445 20.4174 11.3445 18.8135V14.2793C11.3445 14.2401 11.3763 14.2083 11.4155 14.2083H13.5109V20.6531ZM19.4703 29.3391C17.2016 28.4645 15.3618 26.7266 14.3535 24.5281C11.6 24.0817 9.49756 21.6931 9.49756 18.8135V14.2793C9.49756 13.22 10.3563 12.3613 11.4155 12.3613H13.5981C13.9557 10.7778 15.3711 9.59521 17.0627 9.59521H28.5705C30.2621 9.59521 31.6775 10.7778 32.0351 12.3613H34.2527C35.312 12.3613 36.1707 13.22 36.1707 14.2793V18.7425C36.1707 21.6356 34.0615 24.0361 31.2969 24.4902C30.2926 26.7064 28.4451 28.459 26.1637 29.3388C26.2049 29.4919 26.2268 29.653 26.2268 29.8191V32.7239L26.2268 32.726H28.7836C29.8821 32.726 30.7726 33.6165 30.7726 34.715V38.416C30.7726 39.5145 29.8821 40.405 28.7836 40.405H16.8495C15.751 40.405 14.8605 39.5145 14.8605 38.416V34.715C14.8605 33.6165 15.751 32.726 16.8495 32.726H19.4074L19.4074 32.7239V29.8191C19.4074 29.6531 19.4293 29.4922 19.4703 29.3391ZM31.9628 22.3781C33.3539 21.7584 34.3237 20.3637 34.3237 18.7425V14.2793C34.3237 14.2401 34.2919 14.2083 34.2527 14.2083H32.1223V20.6531C32.1223 21.2425 32.0675 21.8191 31.9628 22.3781ZM21.2543 32.7239L21.2543 29.8283C21.7623 29.9142 22.2842 29.9589 22.8166 29.9589C23.3493 29.9589 23.8716 29.9141 24.3799 29.8281L24.3799 32.7239H21.2543ZM16.8495 34.5729H28.7836C28.862 34.5729 28.9256 34.6365 28.9256 34.715V38.416C28.9256 38.4944 28.862 38.558 28.7836 38.558H16.8495C16.771 38.558 16.7074 38.4944 16.7074 38.416V34.715C16.7074 34.6365 16.771 34.5729 16.8495 34.5729Z" fill="#F7E5FF"/>
<path d="M21.3721 27.9722L21.2546 28.5708L21.3128 28.5822H21.3721V27.9722ZM24.2611 27.9722V28.5822H24.3204L24.3786 28.5708L24.2611 27.9722ZM13.6771 22.4134L13.4278 22.9701L14.4964 23.4487L14.2762 22.2987L13.6771 22.4134ZM13.5109 14.2083H14.1209V13.5983H13.5109V14.2083ZM14.3535 24.5281L14.908 24.2738L14.7724 23.978L14.4511 23.9259L14.3535 24.5281ZM19.4703 29.3391L20.0595 29.4972L20.2017 28.9673L19.6898 28.7699L19.4703 29.3391ZM13.5981 12.3613V12.9713H14.0857L14.1931 12.4957L13.5981 12.3613ZM32.0351 12.3613L31.4401 12.4957L31.5475 12.9713H32.0351V12.3613ZM31.2969 24.4902L31.1981 23.8883L30.876 23.9411L30.7413 24.2384L31.2969 24.4902ZM26.1637 29.3388L25.9443 28.7696L25.4323 28.967L25.5746 29.497L26.1637 29.3388ZM26.2268 32.7239L26.8368 32.7245V32.7239H26.2268ZM26.2268 32.726L25.6168 32.7254L25.6163 33.336H26.2268V32.726ZM19.4074 32.726V33.336H20.0176L20.0174 32.7257L19.4074 32.726ZM19.4074 32.7239H18.7974V32.7242L19.4074 32.7239ZM31.9628 22.3781L31.3632 22.2657L31.149 23.4084L32.211 22.9353L31.9628 22.3781ZM32.1223 14.2083V13.5983H31.5123V14.2083H32.1223ZM21.2543 29.8283L21.356 29.2268L20.6443 29.1065V29.8283H21.2543ZM21.2543 32.7239H20.6443L20.6443 33.3339H21.2543V32.7239ZM24.3799 29.8281H24.9899L24.9899 29.1063L24.2781 29.2267L24.3799 29.8281ZM24.3799 32.7239V33.3339H24.9899V32.7239H24.3799ZM17.0627 12.0522H28.5705V10.8322H17.0627V12.0522ZM15.9678 13.147C15.9678 12.5423 16.458 12.0522 17.0627 12.0522V10.8322C15.7842 10.8322 14.7478 11.8686 14.7478 13.147H15.9678ZM15.9678 20.6531V13.147H14.7478V20.6531H15.9678ZM21.4896 27.3736C18.3422 26.756 15.9678 23.9812 15.9678 20.6531H14.7478C14.7478 24.5755 17.5459 27.843 21.2546 28.5708L21.4896 27.3736ZM24.2611 27.3622H21.3721V28.5822H24.2611V27.3622ZM29.6654 20.6531C29.6654 23.9812 27.291 26.756 24.1436 27.3736L24.3786 28.5708C28.0873 27.843 30.8854 24.5755 30.8854 20.6531H29.6654ZM29.6654 13.147V20.6531H30.8854V13.147H29.6654ZM28.5705 12.0522C29.1752 12.0522 29.6654 12.5423 29.6654 13.147H30.8854C30.8854 11.8686 29.849 10.8322 28.5705 10.8322V12.0522ZM14.2762 22.2987C14.1743 21.7663 14.1209 21.2163 14.1209 20.6531H12.9009C12.9009 21.2936 12.9617 21.9205 13.078 22.5281L14.2762 22.2987ZM10.7345 18.8135C10.7345 20.6665 11.8415 22.2597 13.4278 22.9701L13.9265 21.8567C12.763 21.3356 11.9545 20.1683 11.9545 18.8135H10.7345ZM10.7345 14.2793V18.8135H11.9545V14.2793H10.7345ZM11.4155 13.5983C11.0394 13.5983 10.7345 13.9032 10.7345 14.2793H11.9545C11.9545 14.577 11.7132 14.8183 11.4155 14.8183V13.5983ZM13.5109 13.5983H11.4155V14.8183H13.5109V13.5983ZM14.1209 20.6531V14.2083H12.9009V20.6531H14.1209ZM13.7991 24.7824C14.8734 27.1249 16.833 28.9762 19.2509 29.9083L19.6898 28.7699C17.5702 27.9528 15.8503 26.3284 14.908 24.2738L13.7991 24.7824ZM8.88756 18.8135C8.88756 21.9971 11.2117 24.6368 14.2559 25.1302L14.4511 23.9259C11.9882 23.5267 10.1076 21.3891 10.1076 18.8135H8.88756ZM8.88756 14.2793V18.8135H10.1076V14.2793H8.88756ZM11.4155 11.7513C10.0194 11.7513 8.88756 12.8831 8.88756 14.2793H10.1076C10.1076 13.5569 10.6932 12.9713 11.4155 12.9713V11.7513ZM13.5981 11.7513H11.4155V12.9713H13.5981V11.7513ZM17.0627 8.98521C15.0798 8.98521 13.4221 10.3714 13.0031 12.227L14.1931 12.4957C14.4892 11.1842 15.6624 10.2052 17.0627 10.2052V8.98521ZM28.5705 8.98521H17.0627V10.2052H28.5705V8.98521ZM32.6301 12.227C32.2111 10.3714 30.5534 8.98521 28.5705 8.98521V10.2052C29.9708 10.2052 31.144 11.1842 31.4401 12.4957L32.6301 12.227ZM34.2527 11.7513H32.0351V12.9713H34.2527V11.7513ZM36.7807 14.2793C36.7807 12.8831 35.6489 11.7513 34.2527 11.7513V12.9713C34.9751 12.9713 35.5607 13.5569 35.5607 14.2793H36.7807ZM36.7807 18.7425V14.2793H35.5607V18.7425H36.7807ZM31.3958 25.0921C34.4504 24.5904 36.7807 21.9392 36.7807 18.7425H35.5607C35.5607 21.3321 33.6726 23.4818 31.1981 23.8883L31.3958 25.0921ZM26.3832 29.9079C28.8145 28.9703 30.7824 27.1033 31.8526 24.742L30.7413 24.2384C29.8028 26.3094 28.0756 27.9477 25.9443 28.7696L26.3832 29.9079ZM26.8368 29.8191C26.8368 29.599 26.8077 29.3848 26.7529 29.1805L25.5746 29.497C25.602 29.599 25.6168 29.7069 25.6168 29.8191H26.8368ZM26.8368 32.7239V29.8191H25.6168V32.7239H26.8368ZM26.8368 32.7265L26.8368 32.7245L25.6168 32.7233L25.6168 32.7254L26.8368 32.7265ZM28.7836 32.116H26.2268V33.336H28.7836V32.116ZM31.3826 34.715C31.3826 33.2796 30.219 32.116 28.7836 32.116V33.336C29.5452 33.336 30.1626 33.9534 30.1626 34.715H31.3826ZM31.3826 38.416V34.715H30.1626V38.416H31.3826ZM28.7836 41.015C30.219 41.015 31.3826 39.8514 31.3826 38.416H30.1626C30.1626 39.1776 29.5452 39.795 28.7836 39.795V41.015ZM16.8495 41.015H28.7836V39.795H16.8495V41.015ZM14.2505 38.416C14.2505 39.8514 15.4141 41.015 16.8495 41.015V39.795C16.0879 39.795 15.4705 39.1776 15.4705 38.416H14.2505ZM14.2505 34.715V38.416H15.4705V34.715H14.2505ZM16.8495 32.116C15.4141 32.116 14.2505 33.2796 14.2505 34.715H15.4705C15.4705 33.9534 16.0879 33.336 16.8495 33.336V32.116ZM19.4074 32.116H16.8495V33.336H19.4074V32.116ZM18.7974 32.7242L18.7974 32.7262L20.0174 32.7257L20.0174 32.7236L18.7974 32.7242ZM18.7974 29.8191V32.7239H20.0174V29.8191H18.7974ZM18.8812 29.181C18.8264 29.3851 18.7974 29.5992 18.7974 29.8191H20.0174C20.0174 29.707 20.0321 29.5992 20.0595 29.4972L18.8812 29.181ZM33.7137 18.7425C33.7137 20.1142 32.8937 21.2957 31.7146 21.8209L32.211 22.9353C33.8141 22.2212 34.9337 20.6133 34.9337 18.7425H33.7137ZM33.7137 14.2793V18.7425H34.9337V14.2793H33.7137ZM34.2527 14.8183C33.955 14.8183 33.7137 14.577 33.7137 14.2793H34.9337C34.9337 13.9032 34.6288 13.5983 34.2527 13.5983V14.8183ZM32.1223 14.8183H34.2527V13.5983H32.1223V14.8183ZM32.7323 20.6531V14.2083H31.5123V20.6531H32.7323ZM32.5623 22.4905C32.674 21.8946 32.7323 21.2804 32.7323 20.6531H31.5123C31.5123 21.2047 31.4611 21.7436 31.3632 22.2657L32.5623 22.4905ZM20.6443 29.8283L20.6443 32.7239H21.8643L21.8643 29.8283H20.6443ZM22.8166 29.3489C22.3184 29.3489 21.8305 29.307 21.356 29.2268L21.1526 30.4298C21.694 30.5213 22.25 30.5689 22.8166 30.5689V29.3489ZM24.2781 29.2267C23.8034 29.307 23.3151 29.3489 22.8166 29.3489V30.5689C23.3836 30.5689 23.9399 30.5212 24.4816 30.4296L24.2781 29.2267ZM24.9899 32.7239L24.9899 29.8281H23.7699L23.7699 32.7239H24.9899ZM21.2543 33.3339H24.3799V32.1139H21.2543V33.3339ZM28.7836 33.9629H16.8495V35.1829H28.7836V33.9629ZM29.5356 34.715C29.5356 34.2996 29.1989 33.9629 28.7836 33.9629V35.1829C28.5251 35.1829 28.3156 34.9734 28.3156 34.715H29.5356ZM29.5356 38.416V34.715H28.3156V38.416H29.5356ZM28.7836 39.168C29.1989 39.168 29.5356 38.8313 29.5356 38.416H28.3156C28.3156 38.1576 28.5251 37.948 28.7836 37.948V39.168ZM16.8495 39.168H28.7836V37.948H16.8495V39.168ZM16.0974 38.416C16.0974 38.8313 16.4341 39.168 16.8495 39.168V37.948C17.1079 37.948 17.3174 38.1575 17.3174 38.416H16.0974ZM16.0974 34.715V38.416H17.3174V34.715H16.0974ZM16.8495 33.9629C16.4341 33.9629 16.0974 34.2996 16.0974 34.715H17.3174C17.3174 34.9734 17.1079 35.1829 16.8495 35.1829V33.9629Z" fill="#C381F6" mask="url(#path-1-inside-1_926_80720)"/>
</g>
<g filter="url(#filter1_d_926_80720)">
<mask id="path-3-inside-2_926_80720" fill="white">
<path fill-rule="evenodd" clip-rule="evenodd" d="M28.5705 11.4422H17.0627C16.1211 11.4422 15.3578 12.2054 15.3578 13.147V20.6531C15.3578 24.2783 17.944 27.2995 21.3721 27.9722H24.2611C27.6892 27.2995 30.2754 24.2783 30.2754 20.6531V13.147C30.2754 12.2054 29.5121 11.4422 28.5705 11.4422ZM13.5109 20.6531C13.5109 21.255 13.568 21.8434 13.6771 22.4134C12.3023 21.7976 11.3445 20.4174 11.3445 18.8135V14.2793C11.3445 14.2401 11.3763 14.2083 11.4155 14.2083H13.5109V20.6531ZM19.4703 29.3391C17.2016 28.4645 15.3618 26.7266 14.3535 24.5281C11.6 24.0817 9.49756 21.6931 9.49756 18.8135V14.2793C9.49756 13.22 10.3563 12.3613 11.4155 12.3613H13.5981C13.9557 10.7778 15.3711 9.59521 17.0627 9.59521H28.5705C30.2621 9.59521 31.6775 10.7778 32.0351 12.3613H34.2527C35.312 12.3613 36.1707 13.22 36.1707 14.2793V18.7425C36.1707 21.6356 34.0615 24.0361 31.2969 24.4902C30.2926 26.7064 28.4451 28.459 26.1637 29.3388C26.2049 29.4919 26.2268 29.653 26.2268 29.8191V32.7239L26.2268 32.726H28.7836C29.8821 32.726 30.7726 33.6165 30.7726 34.715V38.416C30.7726 39.5145 29.8821 40.405 28.7836 40.405H16.8495C15.751 40.405 14.8605 39.5145 14.8605 38.416V34.715C14.8605 33.6165 15.751 32.726 16.8495 32.726H19.4074L19.4074 32.7239V29.8191C19.4074 29.6531 19.4293 29.4922 19.4703 29.3391ZM31.9628 22.3781C33.3539 21.7584 34.3237 20.3637 34.3237 18.7425V14.2793C34.3237 14.2401 34.2919 14.2083 34.2527 14.2083H32.1223V20.6531C32.1223 21.2425 32.0675 21.8191 31.9628 22.3781ZM21.2543 32.7239L21.2543 29.8283C21.7623 29.9142 22.2842 29.9589 22.8166 29.9589C23.3493 29.9589 23.8716 29.9141 24.3799 29.8281L24.3799 32.7239H21.2543ZM16.8495 34.5729H28.7836C28.862 34.5729 28.9256 34.6365 28.9256 34.715V38.416C28.9256 38.4944 28.862 38.558 28.7836 38.558H16.8495C16.771 38.558 16.7074 38.4944 16.7074 38.416V34.715C16.7074 34.6365 16.771 34.5729 16.8495 34.5729Z"/>
</mask>
<path fill-rule="evenodd" clip-rule="evenodd" d="M28.5705 11.4422H17.0627C16.1211 11.4422 15.3578 12.2054 15.3578 13.147V20.6531C15.3578 24.2783 17.944 27.2995 21.3721 27.9722H24.2611C27.6892 27.2995 30.2754 24.2783 30.2754 20.6531V13.147C30.2754 12.2054 29.5121 11.4422 28.5705 11.4422ZM13.5109 20.6531C13.5109 21.255 13.568 21.8434 13.6771 22.4134C12.3023 21.7976 11.3445 20.4174 11.3445 18.8135V14.2793C11.3445 14.2401 11.3763 14.2083 11.4155 14.2083H13.5109V20.6531ZM19.4703 29.3391C17.2016 28.4645 15.3618 26.7266 14.3535 24.5281C11.6 24.0817 9.49756 21.6931 9.49756 18.8135V14.2793C9.49756 13.22 10.3563 12.3613 11.4155 12.3613H13.5981C13.9557 10.7778 15.3711 9.59521 17.0627 9.59521H28.5705C30.2621 9.59521 31.6775 10.7778 32.0351 12.3613H34.2527C35.312 12.3613 36.1707 13.22 36.1707 14.2793V18.7425C36.1707 21.6356 34.0615 24.0361 31.2969 24.4902C30.2926 26.7064 28.4451 28.459 26.1637 29.3388C26.2049 29.4919 26.2268 29.653 26.2268 29.8191V32.7239L26.2268 32.726H28.7836C29.8821 32.726 30.7726 33.6165 30.7726 34.715V38.416C30.7726 39.5145 29.8821 40.405 28.7836 40.405H16.8495C15.751 40.405 14.8605 39.5145 14.8605 38.416V34.715C14.8605 33.6165 15.751 32.726 16.8495 32.726H19.4074L19.4074 32.7239V29.8191C19.4074 29.6531 19.4293 29.4922 19.4703 29.3391ZM31.9628 22.3781C33.3539 21.7584 34.3237 20.3637 34.3237 18.7425V14.2793C34.3237 14.2401 34.2919 14.2083 34.2527 14.2083H32.1223V20.6531C32.1223 21.2425 32.0675 21.8191 31.9628 22.3781ZM21.2543 32.7239L21.2543 29.8283C21.7623 29.9142 22.2842 29.9589 22.8166 29.9589C23.3493 29.9589 23.8716 29.9141 24.3799 29.8281L24.3799 32.7239H21.2543ZM16.8495 34.5729H28.7836C28.862 34.5729 28.9256 34.6365 28.9256 34.715V38.416C28.9256 38.4944 28.862 38.558 28.7836 38.558H16.8495C16.771 38.558 16.7074 38.4944 16.7074 38.416V34.715C16.7074 34.6365 16.771 34.5729 16.8495 34.5729Z" fill="#F7E5FF"/>
<path d="M21.3721 27.9722L21.2546 28.5708L21.3128 28.5822H21.3721V27.9722ZM24.2611 27.9722V28.5822H24.3204L24.3786 28.5708L24.2611 27.9722ZM13.6771 22.4134L13.4278 22.9701L14.4964 23.4487L14.2762 22.2987L13.6771 22.4134ZM13.5109 14.2083H14.1209V13.5983H13.5109V14.2083ZM14.3535 24.5281L14.908 24.2738L14.7724 23.978L14.4511 23.9259L14.3535 24.5281ZM19.4703 29.3391L20.0595 29.4972L20.2017 28.9673L19.6898 28.7699L19.4703 29.3391ZM13.5981 12.3613V12.9713H14.0857L14.1931 12.4957L13.5981 12.3613ZM32.0351 12.3613L31.4401 12.4957L31.5475 12.9713H32.0351V12.3613ZM31.2969 24.4902L31.1981 23.8883L30.876 23.9411L30.7413 24.2384L31.2969 24.4902ZM26.1637 29.3388L25.9443 28.7696L25.4323 28.967L25.5746 29.497L26.1637 29.3388ZM26.2268 32.7239L26.8368 32.7245V32.7239H26.2268ZM26.2268 32.726L25.6168 32.7254L25.6163 33.336H26.2268V32.726ZM19.4074 32.726V33.336H20.0176L20.0174 32.7257L19.4074 32.726ZM19.4074 32.7239H18.7974V32.7242L19.4074 32.7239ZM31.9628 22.3781L31.3632 22.2657L31.149 23.4084L32.211 22.9353L31.9628 22.3781ZM32.1223 14.2083V13.5983H31.5123V14.2083H32.1223ZM21.2543 29.8283L21.356 29.2268L20.6443 29.1065V29.8283H21.2543ZM21.2543 32.7239H20.6443L20.6443 33.3339H21.2543V32.7239ZM24.3799 29.8281H24.9899L24.9899 29.1063L24.2781 29.2267L24.3799 29.8281ZM24.3799 32.7239V33.3339H24.9899V32.7239H24.3799ZM17.0627 12.0522H28.5705V10.8322H17.0627V12.0522ZM15.9678 13.147C15.9678 12.5423 16.458 12.0522 17.0627 12.0522V10.8322C15.7842 10.8322 14.7478 11.8686 14.7478 13.147H15.9678ZM15.9678 20.6531V13.147H14.7478V20.6531H15.9678ZM21.4896 27.3736C18.3422 26.756 15.9678 23.9812 15.9678 20.6531H14.7478C14.7478 24.5755 17.5459 27.843 21.2546 28.5708L21.4896 27.3736ZM24.2611 27.3622H21.3721V28.5822H24.2611V27.3622ZM29.6654 20.6531C29.6654 23.9812 27.291 26.756 24.1436 27.3736L24.3786 28.5708C28.0873 27.843 30.8854 24.5755 30.8854 20.6531H29.6654ZM29.6654 13.147V20.6531H30.8854V13.147H29.6654ZM28.5705 12.0522C29.1752 12.0522 29.6654 12.5423 29.6654 13.147H30.8854C30.8854 11.8686 29.849 10.8322 28.5705 10.8322V12.0522ZM14.2762 22.2987C14.1743 21.7663 14.1209 21.2163 14.1209 20.6531H12.9009C12.9009 21.2936 12.9617 21.9205 13.078 22.5281L14.2762 22.2987ZM10.7345 18.8135C10.7345 20.6665 11.8415 22.2597 13.4278 22.9701L13.9265 21.8567C12.763 21.3356 11.9545 20.1683 11.9545 18.8135H10.7345ZM10.7345 14.2793V18.8135H11.9545V14.2793H10.7345ZM11.4155 13.5983C11.0394 13.5983 10.7345 13.9032 10.7345 14.2793H11.9545C11.9545 14.577 11.7132 14.8183 11.4155 14.8183V13.5983ZM13.5109 13.5983H11.4155V14.8183H13.5109V13.5983ZM14.1209 20.6531V14.2083H12.9009V20.6531H14.1209ZM13.7991 24.7824C14.8734 27.1249 16.833 28.9762 19.2509 29.9083L19.6898 28.7699C17.5702 27.9528 15.8503 26.3284 14.908 24.2738L13.7991 24.7824ZM8.88756 18.8135C8.88756 21.9971 11.2117 24.6368 14.2559 25.1302L14.4511 23.9259C11.9882 23.5267 10.1076 21.3891 10.1076 18.8135H8.88756ZM8.88756 14.2793V18.8135H10.1076V14.2793H8.88756ZM11.4155 11.7513C10.0194 11.7513 8.88756 12.8831 8.88756 14.2793H10.1076C10.1076 13.5569 10.6932 12.9713 11.4155 12.9713V11.7513ZM13.5981 11.7513H11.4155V12.9713H13.5981V11.7513ZM17.0627 8.98521C15.0798 8.98521 13.4221 10.3714 13.0031 12.227L14.1931 12.4957C14.4892 11.1842 15.6624 10.2052 17.0627 10.2052V8.98521ZM28.5705 8.98521H17.0627V10.2052H28.5705V8.98521ZM32.6301 12.227C32.2111 10.3714 30.5534 8.98521 28.5705 8.98521V10.2052C29.9708 10.2052 31.144 11.1842 31.4401 12.4957L32.6301 12.227ZM34.2527 11.7513H32.0351V12.9713H34.2527V11.7513ZM36.7807 14.2793C36.7807 12.8831 35.6489 11.7513 34.2527 11.7513V12.9713C34.9751 12.9713 35.5607 13.5569 35.5607 14.2793H36.7807ZM36.7807 18.7425V14.2793H35.5607V18.7425H36.7807ZM31.3958 25.0921C34.4504 24.5904 36.7807 21.9392 36.7807 18.7425H35.5607C35.5607 21.3321 33.6726 23.4818 31.1981 23.8883L31.3958 25.0921ZM26.3832 29.9079C28.8145 28.9703 30.7824 27.1033 31.8526 24.742L30.7413 24.2384C29.8028 26.3094 28.0756 27.9477 25.9443 28.7696L26.3832 29.9079ZM26.8368 29.8191C26.8368 29.599 26.8077 29.3848 26.7529 29.1805L25.5746 29.497C25.602 29.599 25.6168 29.7069 25.6168 29.8191H26.8368ZM26.8368 32.7239V29.8191H25.6168V32.7239H26.8368ZM26.8368 32.7265L26.8368 32.7245L25.6168 32.7233L25.6168 32.7254L26.8368 32.7265ZM28.7836 32.116H26.2268V33.336H28.7836V32.116ZM31.3826 34.715C31.3826 33.2796 30.219 32.116 28.7836 32.116V33.336C29.5452 33.336 30.1626 33.9534 30.1626 34.715H31.3826ZM31.3826 38.416V34.715H30.1626V38.416H31.3826ZM28.7836 41.015C30.219 41.015 31.3826 39.8514 31.3826 38.416H30.1626C30.1626 39.1776 29.5452 39.795 28.7836 39.795V41.015ZM16.8495 41.015H28.7836V39.795H16.8495V41.015ZM14.2505 38.416C14.2505 39.8514 15.4141 41.015 16.8495 41.015V39.795C16.0879 39.795 15.4705 39.1776 15.4705 38.416H14.2505ZM14.2505 34.715V38.416H15.4705V34.715H14.2505ZM16.8495 32.116C15.4141 32.116 14.2505 33.2796 14.2505 34.715H15.4705C15.4705 33.9534 16.0879 33.336 16.8495 33.336V32.116ZM19.4074 32.116H16.8495V33.336H19.4074V32.116ZM18.7974 32.7242L18.7974 32.7262L20.0174 32.7257L20.0174 32.7236L18.7974 32.7242ZM18.7974 29.8191V32.7239H20.0174V29.8191H18.7974ZM18.8812 29.181C18.8264 29.3851 18.7974 29.5992 18.7974 29.8191H20.0174C20.0174 29.707 20.0321 29.5992 20.0595 29.4972L18.8812 29.181ZM33.7137 18.7425C33.7137 20.1142 32.8937 21.2957 31.7146 21.8209L32.211 22.9353C33.8141 22.2212 34.9337 20.6133 34.9337 18.7425H33.7137ZM33.7137 14.2793V18.7425H34.9337V14.2793H33.7137ZM34.2527 14.8183C33.955 14.8183 33.7137 14.577 33.7137 14.2793H34.9337C34.9337 13.9032 34.6288 13.5983 34.2527 13.5983V14.8183ZM32.1223 14.8183H34.2527V13.5983H32.1223V14.8183ZM32.7323 20.6531V14.2083H31.5123V20.6531H32.7323ZM32.5623 22.4905C32.674 21.8946 32.7323 21.2804 32.7323 20.6531H31.5123C31.5123 21.2047 31.4611 21.7436 31.3632 22.2657L32.5623 22.4905ZM20.6443 29.8283L20.6443 32.7239H21.8643L21.8643 29.8283H20.6443ZM22.8166 29.3489C22.3184 29.3489 21.8305 29.307 21.356 29.2268L21.1526 30.4298C21.694 30.5213 22.25 30.5689 22.8166 30.5689V29.3489ZM24.2781 29.2267C23.8034 29.307 23.3151 29.3489 22.8166 29.3489V30.5689C23.3836 30.5689 23.9399 30.5212 24.4816 30.4296L24.2781 29.2267ZM24.9899 32.7239L24.9899 29.8281H23.7699L23.7699 32.7239H24.9899ZM21.2543 33.3339H24.3799V32.1139H21.2543V33.3339ZM28.7836 33.9629H16.8495V35.1829H28.7836V33.9629ZM29.5356 34.715C29.5356 34.2996 29.1989 33.9629 28.7836 33.9629V35.1829C28.5251 35.1829 28.3156 34.9734 28.3156 34.715H29.5356ZM29.5356 38.416V34.715H28.3156V38.416H29.5356ZM28.7836 39.168C29.1989 39.168 29.5356 38.8313 29.5356 38.416H28.3156C28.3156 38.1576 28.5251 37.948 28.7836 37.948V39.168ZM16.8495 39.168H28.7836V37.948H16.8495V39.168ZM16.0974 38.416C16.0974 38.8313 16.4341 39.168 16.8495 39.168V37.948C17.1079 37.948 17.3174 38.1575 17.3174 38.416H16.0974ZM16.0974 34.715V38.416H17.3174V34.715H16.0974ZM16.8495 33.9629C16.4341 33.9629 16.0974 34.2996 16.0974 34.715H17.3174C17.3174 34.9734 17.1079 35.1829 16.8495 35.1829V33.9629Z" fill="#C381F6" mask="url(#path-3-inside-2_926_80720)"/>
<path d="M22.8335 15.987L23.5537 18.2037L23.6222 18.4144H23.8438H26.1746L24.2889 19.7844L24.1097 19.9147L24.1781 20.1254L24.8984 22.3421L23.0128 20.9721L22.8335 20.8418L22.6542 20.9721L20.7686 22.3421L21.4888 20.1254L21.5573 19.9147L21.378 19.7844L19.4924 18.4144H21.8232H22.0448L22.1133 18.2037L22.8335 15.987Z" fill="#F7E5FF" stroke="#C381F6" stroke-width="0.61"/>
</g>
<path d="M22.8335 15.987L23.5537 18.2037L23.6222 18.4144H23.8438H26.1746L24.2889 19.7844L24.1097 19.9147L24.1781 20.1254L24.8984 22.3421L23.0128 20.9721L22.8335 20.8418L22.6542 20.9721L20.7686 22.3421L21.4888 20.1254L21.5573 19.9147L21.378 19.7844L19.4924 18.4144H21.8232H22.0448L22.1133 18.2037L22.8335 15.987Z" fill="#F7E5FF" stroke="#C381F6" stroke-width="0.61"/>
<defs>
<filter id="filter0_f_926_80720" x="7.99756" y="8.09521" width="29.6731" height="33.8098" filterUnits="userSpaceOnUse" color-interpolation-filters="sRGB">
<feFlood flood-opacity="0" result="BackgroundImageFix"/>
<feBlend mode="normal" in="SourceGraphic" in2="BackgroundImageFix" result="shape"/>
<feGaussianBlur stdDeviation="0.75" result="effect1_foregroundBlur_926_80720"/>
</filter>
<filter id="filter1_d_926_80720" x="0.497559" y="0.595215" width="44.6731" height="48.8098" filterUnits="userSpaceOnUse" color-interpolation-filters="sRGB">
<feFlood flood-opacity="0" result="BackgroundImageFix"/>
<feColorMatrix in="SourceAlpha" type="matrix" values="0 0 0 0 0 0 0 0 0 0 0 0 0 0 0 0 0 0 127 0" result="hardAlpha"/>
<feOffset/>
<feGaussianBlur stdDeviation="4.5"/>
<feComposite in2="hardAlpha" operator="out"/>
<feColorMatrix type="matrix" values="0 0 0 0 0.512333 0 0 0 0 0.129167 0 0 0 0 1 0 0 0 1 0"/>
<feBlend mode="normal" in2="BackgroundImageFix" result="effect1_dropShadow_926_80720"/>
<feBlend mode="normal" in="SourceGraphic" in2="effect1_dropShadow_926_80720" result="shape"/>
</filter>
</defs>
</svg>
