<svg width="34" height="32" viewBox="0 0 34 32" fill="none" xmlns="http://www.w3.org/2000/svg">
<path d="M16.9984 30.3609C9.17048 30.3609 2.6377 23.827 2.6377 16.0021C2.6377 8.18119 9.31932 1.63892 17.1512 1.63892C24.9749 1.63892 31.3597 8.17301 31.3597 16.0021C31.3597 23.8271 24.8263 30.3609 16.9984 30.3609ZM17.1512 2.75109C10.0031 2.75109 3.75113 8.84769 3.75113 16.0021C3.75113 23.1524 9.84598 29.2419 16.9984 29.2419C24.1502 29.2419 30.2418 23.1774 30.2418 16.0265C30.2418 8.88227 24.3095 2.75109 17.1512 2.75109Z" fill="#7643AA" stroke="#534296" stroke-width="0.611333"/>
<path d="M16.9984 30.3609C9.17048 30.3609 2.6377 23.827 2.6377 16.0021C2.6377 8.18119 9.31932 1.63892 17.1512 1.63892C24.9749 1.63892 31.3597 8.17301 31.3597 16.0021C31.3597 23.8271 24.8263 30.3609 16.9984 30.3609ZM17.1512 2.75109C10.0031 2.75109 3.75113 8.84769 3.75113 16.0021C3.75113 23.1524 9.84598 29.2419 16.9984 29.2419C24.1502 29.2419 30.2418 23.1774 30.2418 16.0265C30.2418 8.88227 24.3095 2.75109 17.1512 2.75109Z" fill="#7643AA" stroke="#534296" stroke-width="0.611333"/>
<g filter="url(#filter0_d_1256_7889)">
<path d="M4.91797 14.8997C4.91797 14.7188 4.94257 14.6212 4.99188 14.5334C5.0394 14.4475 5.10808 14.3752 5.19141 14.3232C5.27316 14.2714 5.36806 14.2442 5.46485 14.2447H7.02789C7.12533 14.2437 7.22096 14.2709 7.30318 14.3232C7.38592 14.3759 7.45445 14.4481 7.50272 14.5334C7.55355 14.6225 7.5797 14.7236 7.57847 14.8261V18.0471L6.99833 18.1096V16.0776H5.49072V18.3015L4.91797 18.4027V14.8997ZM6.9666 15.5294V14.8576H5.52697V15.5554L6.9666 15.5294Z" fill="#7643AA"/>
<path d="M4.91797 14.8997C4.91797 14.7188 4.94257 14.6212 4.99188 14.5334C5.0394 14.4475 5.10808 14.3752 5.19141 14.3232C5.27316 14.2714 5.36806 14.2442 5.46485 14.2447H7.02789C7.12533 14.2437 7.22096 14.2709 7.30318 14.3232C7.38592 14.3759 7.45445 14.4481 7.50272 14.5334C7.55355 14.6225 7.5797 14.7236 7.57847 14.8261V18.0471L6.99833 18.1096V16.0776H5.49072V18.3015L4.91797 18.4027V14.8997ZM6.9666 15.5294V14.8576H5.52697V15.5554L6.9666 15.5294Z" stroke="#534296" stroke-width="0.4" stroke-miterlimit="10"/>
</g>
<g filter="url(#filter1_d_1256_7889)">
<path d="M10.3803 16.0198C10.4635 15.9668 10.532 15.8938 10.5799 15.8076C10.6302 15.7191 10.6564 15.6188 10.6556 15.5169V14.8469C10.6563 14.745 10.6302 14.6447 10.5799 14.5561C10.532 14.4699 10.4634 14.397 10.3803 14.344C10.2981 14.2917 10.2025 14.2644 10.105 14.2654H7.99512V18.0444L8.56786 17.9518V16.0984H9.27769L10.2847 17.8909L10.6519 17.8506V17.3913L10.0277 16.0984H10.105C10.2025 16.0994 10.2981 16.0721 10.3803 16.0198ZM10.0755 15.4843H8.56786V14.8744H10.0755V15.4843Z" fill="#7643AA"/>
<path d="M10.3803 16.0198C10.4635 15.9668 10.532 15.8938 10.5799 15.8076C10.6302 15.7191 10.6564 15.6188 10.6556 15.5169V14.8469C10.6563 14.745 10.6302 14.6447 10.5799 14.5561C10.532 14.4699 10.4634 14.397 10.3803 14.344C10.2981 14.2917 10.2025 14.2644 10.105 14.2654H7.99512V18.0444L8.56786 17.9518V16.0984H9.27769L10.2847 17.8909L10.6519 17.8506V17.3913L10.0277 16.0984H10.105C10.2025 16.0994 10.2981 16.0721 10.3803 16.0198ZM10.0755 15.4843H8.56786V14.8744H10.0755V15.4843Z" stroke="#534296" stroke-width="0.4" stroke-miterlimit="10"/>
</g>
<g filter="url(#filter2_d_1256_7889)">
<path d="M11.6513 17.269L12.5946 17.2395L13.7086 17.2369V17.7983H12.6069L11.637 17.8448L11.0481 17.8833V14.8261C11.0469 14.7232 11.0741 14.6219 11.1267 14.5334C11.178 14.4468 11.2503 14.3745 11.3369 14.3232C11.4254 14.2707 11.5267 14.2435 11.6296 14.2447H13.0957C13.2583 14.2447 13.4142 14.3092 13.5291 14.4242C13.6441 14.5391 13.7086 14.695 13.7086 14.8576H11.7868C11.7518 14.8552 11.7173 14.8665 11.6905 14.889C11.6785 14.9022 11.6693 14.9177 11.6635 14.9346C11.6578 14.9515 11.6556 14.9694 11.6571 14.9872L11.6513 17.269Z" fill="#7643AA"/>
<path d="M11.6513 17.269L12.5946 17.2395L13.7086 17.2369V17.7983H12.6069L11.637 17.8448L11.0481 17.8833V14.8261C11.0469 14.7232 11.0741 14.6219 11.1267 14.5334C11.178 14.4468 11.2503 14.3745 11.3369 14.3232C11.4254 14.2707 11.5267 14.2435 11.6296 14.2447H13.0957C13.2583 14.2447 13.4142 14.3092 13.5291 14.4242C13.6441 14.5391 13.7086 14.695 13.7086 14.8576H11.7868C11.7518 14.8552 11.7173 14.8665 11.6905 14.889C11.6785 14.9022 11.6693 14.9177 11.6635 14.9346C11.6578 14.9515 11.6556 14.9694 11.6571 14.9872L11.6513 17.269Z" stroke="#534296" stroke-width="0.4" stroke-miterlimit="10"/>
</g>
<g filter="url(#filter3_d_1256_7889)">
<path d="M14.1265 14.7612C14.1252 14.6589 14.1507 14.558 14.2004 14.4685C14.2479 14.3826 14.3166 14.3102 14.4 14.2583C14.4817 14.2065 14.5766 14.1792 14.6734 14.1797H16.2364C16.3339 14.1787 16.4295 14.206 16.5117 14.2583C16.5945 14.3109 16.663 14.3831 16.7113 14.4685C16.7621 14.5576 16.7882 14.6586 16.787 14.7612V19.4909L16.2069 19.1682V16.6799L14.6993 16.6604V18.3419L14.1265 18.0285L14.1265 14.7612ZM16.2069 16.11V14.7926H14.6993V16.0785L16.2069 16.11Z" fill="#7643AA"/>
<path d="M14.1265 14.7612C14.1252 14.6589 14.1507 14.558 14.2004 14.4685C14.2479 14.3826 14.3166 14.3102 14.4 14.2583C14.4817 14.2065 14.5766 14.1792 14.6734 14.1797H16.2364C16.3339 14.1787 16.4295 14.206 16.5117 14.2583C16.5945 14.3109 16.663 14.3831 16.7113 14.4685C16.7621 14.5576 16.7882 14.6586 16.787 14.7612V19.4909L16.2069 19.1682V16.6799L14.6993 16.6604V18.3419L14.1265 18.0285L14.1265 14.7612ZM16.2069 16.11V14.7926H14.6993V16.0785L16.2069 16.11Z" stroke="#534296" stroke-width="0.4" stroke-miterlimit="10"/>
</g>
<g filter="url(#filter4_d_1256_7889)">
<path d="M17.2173 19.4638V14.1834H19.3153C19.4123 14.1824 19.5074 14.2097 19.5891 14.2619C19.6714 14.3147 19.7396 14.3869 19.7875 14.4722C19.8381 14.5613 19.8641 14.6623 19.8628 14.7649V17.6995C19.8628 17.7646 19.8377 17.8267 19.7875 17.9157C19.7465 17.9972 19.6843 18.0661 19.6075 18.1153C19.5254 18.1677 19.425 18.2225 19.3153 18.281L17.2173 19.4638ZM19.2509 17.7426L19.2449 14.7963H17.8224V18.5276L19.2509 17.7426Z" fill="#7643AA"/>
<path d="M17.2173 19.4638V14.1834H19.3153C19.4123 14.1824 19.5074 14.2097 19.5891 14.2619C19.6714 14.3147 19.7396 14.3869 19.7875 14.4722C19.8381 14.5613 19.8641 14.6623 19.8628 14.7649V17.6995C19.8628 17.7646 19.8377 17.8267 19.7875 17.9157C19.7465 17.9972 19.6843 18.0661 19.6075 18.1153C19.5254 18.1677 19.425 18.2225 19.3153 18.281L17.2173 19.4638ZM19.2509 17.7426L19.2449 14.7963H17.8224V18.5276L19.2509 17.7426Z" stroke="#534296" stroke-width="0.4" stroke-miterlimit="10"/>
</g>
<g filter="url(#filter5_d_1256_7889)">
<path d="M23.3289 14.7612C23.3276 14.6589 23.3531 14.558 23.4028 14.4685C23.4503 14.3826 23.519 14.3102 23.6023 14.2583C23.6841 14.2065 23.779 14.1792 23.8758 14.1797H25.4388C25.5363 14.1787 25.6319 14.206 25.7141 14.2583C25.7969 14.3109 25.8654 14.3831 25.9137 14.4685C25.9645 14.5576 25.9906 14.6586 25.9894 14.7612V18.0256L25.4093 17.9687V16.0971H23.9017V17.8915L23.3289 17.8598L23.3289 14.7612ZM25.4093 15.4841V14.7926H23.9017V15.4841H25.4093Z" fill="#7643AA"/>
<path d="M23.3289 14.7612C23.3276 14.6589 23.3531 14.558 23.4028 14.4685C23.4503 14.3826 23.519 14.3102 23.6023 14.2583C23.6841 14.2065 23.779 14.1792 23.8758 14.1797H25.4388C25.5363 14.1787 25.6319 14.206 25.7141 14.2583C25.7969 14.3109 25.8654 14.3831 25.9137 14.4685C25.9645 14.5576 25.9906 14.6586 25.9894 14.7612V18.0256L25.4093 17.9687V16.0971H23.9017V17.8915L23.3289 17.8598L23.3289 14.7612ZM25.4093 15.4841V14.7926H23.9017V15.4841H25.4093Z" stroke="#534296" stroke-width="0.4" stroke-miterlimit="10"/>
</g>
<g filter="url(#filter6_d_1256_7889)">
<path d="M26.4062 18.0473V14.1797H27.0181L28.4683 16.9007L28.441 14.1797H29.0786V18.3913L28.5117 18.312L27.0181 15.3843V18.1057L26.4062 18.0473Z" fill="#7643AA"/>
<path d="M26.4062 18.0473V14.1797H27.0181L28.4683 16.9007L28.441 14.1797H29.0786V18.3913L28.5117 18.312L27.0181 15.3843V18.1057L26.4062 18.0473Z" stroke="#534296" stroke-width="0.4" stroke-miterlimit="10"/>
</g>
<g filter="url(#filter7_d_1256_7889)">
<path d="M22.9413 14.7916V14.6458C22.9413 14.5222 22.8921 14.4036 22.8047 14.3162C22.7173 14.2288 22.5988 14.1797 22.4751 14.1797H20.7469C20.6233 14.1797 20.5047 14.2288 20.4173 14.3162C20.3299 14.4036 20.2808 14.5222 20.2808 14.6458V14.7916H21.2955V17.2684L20.2808 17.2764V17.7978L21.3244 17.8222L22.9413 17.8598V17.2684H21.8967V14.7916H22.9413Z" fill="#7643AA"/>
<path d="M22.9413 14.7916V14.6458C22.9413 14.5222 22.8921 14.4036 22.8047 14.3162C22.7173 14.2288 22.5988 14.1797 22.4751 14.1797H20.7469C20.6233 14.1797 20.5047 14.2288 20.4173 14.3162C20.3299 14.4036 20.2808 14.5222 20.2808 14.6458V14.7916H21.2955V17.2684L20.2808 17.2764V17.7978L21.3244 17.8222L22.9413 17.8598V17.2684H21.8967V14.7916H22.9413Z" stroke="#534296" stroke-width="0.4" stroke-miterlimit="10"/>
</g>
<defs>
<filter id="filter0_d_1256_7889" x="0.718018" y="14.0447" width="11.0605" height="12.5964" filterUnits="userSpaceOnUse" color-interpolation-filters="sRGB">
<feFlood flood-opacity="0" result="BackgroundImageFix"/>
<feColorMatrix in="SourceAlpha" type="matrix" values="0 0 0 0 0 0 0 0 0 0 0 0 0 0 0 0 0 0 127 0" result="hardAlpha"/>
<feOffset dy="4"/>
<feGaussianBlur stdDeviation="2"/>
<feComposite in2="hardAlpha" operator="out"/>
<feColorMatrix type="matrix" values="0 0 0 0 0 0 0 0 0 0 0 0 0 0 0 0 0 0 0.25 0"/>
<feBlend mode="normal" in2="BackgroundImageFix" result="effect1_dropShadow_1256_7889"/>
<feBlend mode="normal" in="SourceGraphic" in2="effect1_dropShadow_1256_7889" result="shape"/>
</filter>
<filter id="filter1_d_1256_7889" x="3.79517" y="14.0654" width="11.0605" height="12.2139" filterUnits="userSpaceOnUse" color-interpolation-filters="sRGB">
<feFlood flood-opacity="0" result="BackgroundImageFix"/>
<feColorMatrix in="SourceAlpha" type="matrix" values="0 0 0 0 0 0 0 0 0 0 0 0 0 0 0 0 0 0 127 0" result="hardAlpha"/>
<feOffset dy="4"/>
<feGaussianBlur stdDeviation="2"/>
<feComposite in2="hardAlpha" operator="out"/>
<feColorMatrix type="matrix" values="0 0 0 0 0 0 0 0 0 0 0 0 0 0 0 0 0 0 0.25 0"/>
<feBlend mode="normal" in2="BackgroundImageFix" result="effect1_dropShadow_1256_7889"/>
<feBlend mode="normal" in="SourceGraphic" in2="effect1_dropShadow_1256_7889" result="shape"/>
</filter>
<filter id="filter2_d_1256_7889" x="6.84814" y="14.0447" width="11.0605" height="12.0522" filterUnits="userSpaceOnUse" color-interpolation-filters="sRGB">
<feFlood flood-opacity="0" result="BackgroundImageFix"/>
<feColorMatrix in="SourceAlpha" type="matrix" values="0 0 0 0 0 0 0 0 0 0 0 0 0 0 0 0 0 0 127 0" result="hardAlpha"/>
<feOffset dy="4"/>
<feGaussianBlur stdDeviation="2"/>
<feComposite in2="hardAlpha" operator="out"/>
<feColorMatrix type="matrix" values="0 0 0 0 0 0 0 0 0 0 0 0 0 0 0 0 0 0 0.25 0"/>
<feBlend mode="normal" in2="BackgroundImageFix" result="effect1_dropShadow_1256_7889"/>
<feBlend mode="normal" in="SourceGraphic" in2="effect1_dropShadow_1256_7889" result="shape"/>
</filter>
<filter id="filter3_d_1256_7889" x="9.92651" y="13.9797" width="11.0605" height="13.8513" filterUnits="userSpaceOnUse" color-interpolation-filters="sRGB">
<feFlood flood-opacity="0" result="BackgroundImageFix"/>
<feColorMatrix in="SourceAlpha" type="matrix" values="0 0 0 0 0 0 0 0 0 0 0 0 0 0 0 0 0 0 127 0" result="hardAlpha"/>
<feOffset dy="4"/>
<feGaussianBlur stdDeviation="2"/>
<feComposite in2="hardAlpha" operator="out"/>
<feColorMatrix type="matrix" values="0 0 0 0 0 0 0 0 0 0 0 0 0 0 0 0 0 0 0.25 0"/>
<feBlend mode="normal" in2="BackgroundImageFix" result="effect1_dropShadow_1256_7889"/>
<feBlend mode="normal" in="SourceGraphic" in2="effect1_dropShadow_1256_7889" result="shape"/>
</filter>
<filter id="filter4_d_1256_7889" x="13.0173" y="13.9834" width="11.0454" height="13.8228" filterUnits="userSpaceOnUse" color-interpolation-filters="sRGB">
<feFlood flood-opacity="0" result="BackgroundImageFix"/>
<feColorMatrix in="SourceAlpha" type="matrix" values="0 0 0 0 0 0 0 0 0 0 0 0 0 0 0 0 0 0 127 0" result="hardAlpha"/>
<feOffset dy="4"/>
<feGaussianBlur stdDeviation="2"/>
<feComposite in2="hardAlpha" operator="out"/>
<feColorMatrix type="matrix" values="0 0 0 0 0 0 0 0 0 0 0 0 0 0 0 0 0 0 0.25 0"/>
<feBlend mode="normal" in2="BackgroundImageFix" result="effect1_dropShadow_1256_7889"/>
<feBlend mode="normal" in="SourceGraphic" in2="effect1_dropShadow_1256_7889" result="shape"/>
</filter>
<filter id="filter5_d_1256_7889" x="19.1289" y="13.9797" width="11.0605" height="12.2666" filterUnits="userSpaceOnUse" color-interpolation-filters="sRGB">
<feFlood flood-opacity="0" result="BackgroundImageFix"/>
<feColorMatrix in="SourceAlpha" type="matrix" values="0 0 0 0 0 0 0 0 0 0 0 0 0 0 0 0 0 0 127 0" result="hardAlpha"/>
<feOffset dy="4"/>
<feGaussianBlur stdDeviation="2"/>
<feComposite in2="hardAlpha" operator="out"/>
<feColorMatrix type="matrix" values="0 0 0 0 0 0 0 0 0 0 0 0 0 0 0 0 0 0 0.25 0"/>
<feBlend mode="normal" in2="BackgroundImageFix" result="effect1_dropShadow_1256_7889"/>
<feBlend mode="normal" in="SourceGraphic" in2="effect1_dropShadow_1256_7889" result="shape"/>
</filter>
<filter id="filter6_d_1256_7889" x="22.2063" y="13.9797" width="11.0723" height="12.6416" filterUnits="userSpaceOnUse" color-interpolation-filters="sRGB">
<feFlood flood-opacity="0" result="BackgroundImageFix"/>
<feColorMatrix in="SourceAlpha" type="matrix" values="0 0 0 0 0 0 0 0 0 0 0 0 0 0 0 0 0 0 127 0" result="hardAlpha"/>
<feOffset dy="4"/>
<feGaussianBlur stdDeviation="2"/>
<feComposite in2="hardAlpha" operator="out"/>
<feColorMatrix type="matrix" values="0 0 0 0 0 0 0 0 0 0 0 0 0 0 0 0 0 0 0.25 0"/>
<feBlend mode="normal" in2="BackgroundImageFix" result="effect1_dropShadow_1256_7889"/>
<feBlend mode="normal" in="SourceGraphic" in2="effect1_dropShadow_1256_7889" result="shape"/>
</filter>
<filter id="filter7_d_1256_7889" x="16.0808" y="13.9797" width="11.0605" height="12.0847" filterUnits="userSpaceOnUse" color-interpolation-filters="sRGB">
<feFlood flood-opacity="0" result="BackgroundImageFix"/>
<feColorMatrix in="SourceAlpha" type="matrix" values="0 0 0 0 0 0 0 0 0 0 0 0 0 0 0 0 0 0 127 0" result="hardAlpha"/>
<feOffset dy="4"/>
<feGaussianBlur stdDeviation="2"/>
<feComposite in2="hardAlpha" operator="out"/>
<feColorMatrix type="matrix" values="0 0 0 0 0 0 0 0 0 0 0 0 0 0 0 0 0 0 0.25 0"/>
<feBlend mode="normal" in2="BackgroundImageFix" result="effect1_dropShadow_1256_7889"/>
<feBlend mode="normal" in="SourceGraphic" in2="effect1_dropShadow_1256_7889" result="shape"/>
</filter>
</defs>
</svg>
