<svg width="48" height="48" viewBox="0 0 48 48" fill="none" xmlns="http://www.w3.org/2000/svg">
<g filter="url(#filter0_f_767_22259)">
<path d="M23.8329 38.3607C16.0049 38.3607 9.47217 31.8268 9.47217 24.0019C9.47217 16.1809 16.1538 9.63867 23.9857 9.63867C31.8094 9.63867 38.1942 16.1728 38.1942 24.0019C38.1942 31.8268 31.6608 38.3607 23.8329 38.3607ZM23.9857 10.7508C16.8375 10.7508 10.5856 16.8474 10.5856 24.0019C10.5856 31.1521 16.6805 37.2416 23.8329 37.2416C30.9847 37.2416 37.0763 31.1771 37.0763 24.0263C37.0763 16.882 31.144 10.7508 23.9857 10.7508Z" fill="#F7E6FF" stroke="#C381F6" stroke-width="0.611333"/>
<path d="M11.8335 22.9036C11.8335 22.7227 11.8581 22.6251 11.9074 22.5373C11.9549 22.4514 12.0236 22.3791 12.1069 22.3271C12.1887 22.2753 12.2836 22.2481 12.3804 22.2486H13.9434C14.0409 22.2476 14.1365 22.2749 14.2187 22.3271C14.3015 22.3798 14.37 22.452 14.4182 22.5373C14.4691 22.6264 14.4952 22.7275 14.494 22.83V26.051L13.9139 26.1135V24.0815H12.4062V26.3054L11.8335 26.4066V22.9036ZM13.8821 23.5333V22.8615H12.4425V23.5593L13.8821 23.5333Z" fill="#F4DEFF" stroke="#C381F6" stroke-width="0.307649" stroke-miterlimit="10"/>
<path d="M17.2959 24.0237C17.379 23.9707 17.4476 23.8978 17.4954 23.8115C17.5458 23.723 17.5719 23.6227 17.5711 23.5208V22.8508C17.5719 22.7489 17.5457 22.6486 17.4954 22.56C17.4475 22.4738 17.3789 22.4009 17.2959 22.3479C17.2136 22.2956 17.118 22.2683 17.0206 22.2693H14.9106V26.0483L15.4834 25.9557V24.1023H16.1932L17.2003 25.8948L17.5674 25.8545V25.3952L16.9432 24.1023H17.0206C17.118 24.1033 17.2136 24.076 17.2959 24.0237ZM16.991 23.4882H15.4834V22.8783H16.991V23.4882Z" fill="#F4DEFF" stroke="#C381F6" stroke-width="0.307649" stroke-miterlimit="10"/>
<path d="M18.5668 25.2729L19.5102 25.2434L20.6242 25.2408V25.8022H19.5224L18.5525 25.8487L17.9637 25.8872V22.8301C17.9624 22.7271 17.9896 22.6258 18.0422 22.5374C18.0935 22.4507 18.1658 22.3784 18.2524 22.3271C18.3409 22.2746 18.4422 22.2474 18.5452 22.2486H20.0113C20.1738 22.2486 20.3297 22.3131 20.4446 22.4281C20.5596 22.543 20.6242 22.6989 20.6242 22.8615H18.7023C18.6674 22.8591 18.6329 22.8704 18.6061 22.8929C18.594 22.9061 18.5848 22.9216 18.5791 22.9385C18.5733 22.9554 18.5711 22.9733 18.5727 22.9911L18.5668 25.2729Z" fill="#F4DEFF" stroke="#C381F6" stroke-width="0.307649" stroke-miterlimit="10"/>
<path d="M21.042 22.7651C21.0407 22.6628 21.0662 22.5619 21.1159 22.4724C21.1635 22.3865 21.2322 22.3141 21.3155 22.2622C21.3972 22.2104 21.4921 22.1831 21.5889 22.1836H23.152C23.2494 22.1826 23.345 22.2099 23.4272 22.2622C23.51 22.3148 23.5785 22.387 23.6268 22.4724C23.6776 22.5615 23.7038 22.6625 23.7025 22.7651V27.4948L23.1224 27.1721V24.6838L21.6148 24.6643V26.3458L21.042 26.0324L21.042 22.7651ZM23.1224 24.1139V22.7965H21.6148V24.0824L23.1224 24.1139Z" fill="#F4DEFF" stroke="#C381F6" stroke-width="0.307649" stroke-miterlimit="10"/>
<path d="M24.1328 27.4678V22.1873H26.2309C26.3278 22.1863 26.4229 22.2136 26.5046 22.2659C26.587 22.3186 26.6551 22.3908 26.703 22.4761C26.7536 22.5652 26.7796 22.6662 26.7783 22.7688V25.7034C26.7783 25.7685 26.7532 25.8306 26.703 25.9196C26.662 26.0011 26.5998 26.07 26.523 26.1192C26.4409 26.1716 26.3405 26.2264 26.2309 26.2849L24.1328 27.4678ZM26.1665 25.7465L26.1604 22.8002H24.7379V26.5315L26.1665 25.7465Z" fill="#F4DEFF" stroke="#C381F6" stroke-width="0.307649" stroke-miterlimit="10"/>
<path d="M30.2444 22.7651C30.2431 22.6628 30.2686 22.5619 30.3183 22.4724C30.3659 22.3865 30.4345 22.3141 30.5179 22.2622C30.5996 22.2104 30.6945 22.1831 30.7913 22.1836H32.3544C32.4518 22.1826 32.5474 22.2099 32.6296 22.2622C32.7124 22.3148 32.7809 22.387 32.8292 22.4724C32.88 22.5615 32.9062 22.6625 32.9049 22.7651V26.0295L32.3248 25.9726V24.101H30.8172V25.8954L30.2444 25.8637L30.2444 22.7651ZM32.3248 23.488V22.7965H30.8172V23.488H32.3248Z" fill="#F4DEFF" stroke="#C381F6" stroke-width="0.307649" stroke-miterlimit="10"/>
<path d="M33.3218 26.0512V22.1836H33.9336L35.3838 24.9046L35.3565 22.1836H35.9942V26.3953L35.4273 26.3159L33.9337 23.3882V26.1096L33.3218 26.0512Z" fill="#F4DEFF" stroke="#C381F6" stroke-width="0.307649" stroke-miterlimit="10"/>
<path d="M29.8568 22.7955V22.6497C29.8568 22.5261 29.8077 22.4075 29.7203 22.3201C29.6328 22.2327 29.5143 22.1836 29.3907 22.1836H27.6624C27.5388 22.1836 27.4202 22.2327 27.3328 22.3201C27.2454 22.4075 27.1963 22.5261 27.1963 22.6497V22.7955H28.211V25.2723L27.1963 25.2803V25.8017L28.2399 25.8261L29.8568 25.8637V25.2723H28.8122V22.7955H29.8568Z" fill="#F4DEFF" stroke="#C381F6" stroke-width="0.307649" stroke-miterlimit="10"/>
</g>
<g filter="url(#filter1_d_767_22259)">
<path d="M23.8329 38.3607C16.0049 38.3607 9.47217 31.8268 9.47217 24.0019C9.47217 16.1809 16.1538 9.63867 23.9857 9.63867C31.8094 9.63867 38.1942 16.1728 38.1942 24.0019C38.1942 31.8268 31.6608 38.3607 23.8329 38.3607ZM23.9857 10.7508C16.8375 10.7508 10.5856 16.8474 10.5856 24.0019C10.5856 31.1521 16.6805 37.2416 23.8329 37.2416C30.9847 37.2416 37.0763 31.1771 37.0763 24.0263C37.0763 16.882 31.144 10.7508 23.9857 10.7508Z" fill="#F4DEFF" stroke="#C381F6" stroke-width="0.611333"/>
<path d="M11.8335 22.9036C11.8335 22.7227 11.8581 22.6251 11.9074 22.5373C11.9549 22.4514 12.0236 22.3791 12.1069 22.3271C12.1887 22.2753 12.2836 22.2481 12.3804 22.2486H13.9434C14.0409 22.2476 14.1365 22.2749 14.2187 22.3271C14.3015 22.3798 14.37 22.452 14.4182 22.5373C14.4691 22.6264 14.4952 22.7275 14.494 22.83V26.051L13.9139 26.1135V24.0815H12.4062V26.3054L11.8335 26.4066V22.9036ZM13.8821 23.5333V22.8615H12.4425V23.5593L13.8821 23.5333Z" fill="#F4DEFF" stroke="#C381F6" stroke-width="0.4" stroke-miterlimit="10"/>
<path d="M17.2959 24.0237C17.379 23.9707 17.4476 23.8978 17.4954 23.8115C17.5458 23.723 17.5719 23.6227 17.5711 23.5208V22.8508C17.5719 22.7489 17.5457 22.6486 17.4954 22.56C17.4475 22.4738 17.3789 22.4009 17.2959 22.3479C17.2136 22.2956 17.118 22.2683 17.0206 22.2693H14.9106V26.0483L15.4834 25.9557V24.1023H16.1932L17.2003 25.8948L17.5674 25.8545V25.3952L16.9432 24.1023H17.0206C17.118 24.1033 17.2136 24.076 17.2959 24.0237ZM16.991 23.4882H15.4834V22.8783H16.991V23.4882Z" fill="#F4DEFF" stroke="#C381F6" stroke-width="0.4" stroke-miterlimit="10"/>
<path d="M18.5668 25.2729L19.5102 25.2434L20.6242 25.2408V25.8022H19.5224L18.5525 25.8487L17.9637 25.8872V22.8301C17.9624 22.7271 17.9896 22.6258 18.0422 22.5374C18.0935 22.4507 18.1658 22.3784 18.2524 22.3271C18.3409 22.2746 18.4422 22.2474 18.5452 22.2486H20.0113C20.1738 22.2486 20.3297 22.3131 20.4446 22.4281C20.5596 22.543 20.6242 22.6989 20.6242 22.8615H18.7023C18.6674 22.8591 18.6329 22.8704 18.6061 22.8929C18.594 22.9061 18.5848 22.9216 18.5791 22.9385C18.5733 22.9554 18.5711 22.9733 18.5727 22.9911L18.5668 25.2729Z" fill="#F4DEFF" stroke="#C381F6" stroke-width="0.4" stroke-miterlimit="10"/>
<path d="M21.042 22.7651C21.0407 22.6628 21.0662 22.5619 21.1159 22.4724C21.1635 22.3865 21.2322 22.3141 21.3155 22.2622C21.3972 22.2104 21.4921 22.1831 21.5889 22.1836H23.152C23.2494 22.1826 23.345 22.2099 23.4272 22.2622C23.51 22.3148 23.5785 22.387 23.6268 22.4724C23.6776 22.5615 23.7038 22.6625 23.7025 22.7651V27.4948L23.1224 27.1721V24.6838L21.6148 24.6643V26.3458L21.042 26.0324L21.042 22.7651ZM23.1224 24.1139V22.7965H21.6148V24.0824L23.1224 24.1139Z" fill="#F4DEFF" stroke="#C381F6" stroke-width="0.4" stroke-miterlimit="10"/>
<path d="M24.1328 27.4678V22.1873H26.2309C26.3278 22.1863 26.4229 22.2136 26.5046 22.2659C26.587 22.3186 26.6551 22.3908 26.703 22.4761C26.7536 22.5652 26.7796 22.6662 26.7783 22.7688V25.7034C26.7783 25.7685 26.7532 25.8306 26.703 25.9196C26.662 26.0011 26.5998 26.07 26.523 26.1192C26.4409 26.1716 26.3405 26.2264 26.2309 26.2849L24.1328 27.4678ZM26.1665 25.7465L26.1604 22.8002H24.7379V26.5315L26.1665 25.7465Z" fill="#F4DEFF" stroke="#C381F6" stroke-width="0.4" stroke-miterlimit="10"/>
<path d="M30.2444 22.7651C30.2431 22.6628 30.2686 22.5619 30.3183 22.4724C30.3659 22.3865 30.4345 22.3141 30.5179 22.2622C30.5996 22.2104 30.6945 22.1831 30.7913 22.1836H32.3544C32.4518 22.1826 32.5474 22.2099 32.6296 22.2622C32.7124 22.3148 32.7809 22.387 32.8292 22.4724C32.88 22.5615 32.9062 22.6625 32.9049 22.7651V26.0295L32.3248 25.9726V24.101H30.8172V25.8954L30.2444 25.8637L30.2444 22.7651ZM32.3248 23.488V22.7965H30.8172V23.488H32.3248Z" fill="#F4DEFF" stroke="#C381F6" stroke-width="0.4" stroke-miterlimit="10"/>
<path d="M33.3218 26.0512V22.1836H33.9336L35.3838 24.9046L35.3565 22.1836H35.9942V26.3953L35.4273 26.3159L33.9337 23.3882V26.1096L33.3218 26.0512Z" fill="#F4DEFF" stroke="#C381F6" stroke-width="0.4" stroke-miterlimit="10"/>
<path d="M29.8568 22.7955V22.6497C29.8568 22.5261 29.8077 22.4075 29.7203 22.3201C29.6328 22.2327 29.5143 22.1836 29.3907 22.1836H27.6624C27.5388 22.1836 27.4202 22.2327 27.3328 22.3201C27.2454 22.4075 27.1963 22.5261 27.1963 22.6497V22.7955H28.211V25.2723L27.1963 25.2803V25.8017L28.2399 25.8261L29.8568 25.8637V25.2723H28.8122V22.7955H29.8568Z" fill="#F4DEFF" stroke="#C381F6" stroke-width="0.4" stroke-miterlimit="10"/>
</g>
<defs>
<filter id="filter0_f_767_22259" x="7.6665" y="7.83301" width="32.3333" height="32.3333" filterUnits="userSpaceOnUse" color-interpolation-filters="sRGB">
<feFlood flood-opacity="0" result="BackgroundImageFix"/>
<feBlend mode="normal" in="SourceGraphic" in2="BackgroundImageFix" result="shape"/>
<feGaussianBlur stdDeviation="0.75" result="effect1_foregroundBlur_767_22259"/>
</filter>
<filter id="filter1_d_767_22259" x="0.166504" y="0.333008" width="47.3333" height="47.3333" filterUnits="userSpaceOnUse" color-interpolation-filters="sRGB">
<feFlood flood-opacity="0" result="BackgroundImageFix"/>
<feColorMatrix in="SourceAlpha" type="matrix" values="0 0 0 0 0 0 0 0 0 0 0 0 0 0 0 0 0 0 127 0" result="hardAlpha"/>
<feOffset/>
<feGaussianBlur stdDeviation="4.5"/>
<feComposite in2="hardAlpha" operator="out"/>
<feColorMatrix type="matrix" values="0 0 0 0 0.512333 0 0 0 0 0.129167 0 0 0 0 1 0 0 0 1 0"/>
<feBlend mode="normal" in2="BackgroundImageFix" result="effect1_dropShadow_767_22259"/>
<feBlend mode="normal" in="SourceGraphic" in2="effect1_dropShadow_767_22259" result="shape"/>
</filter>
</defs>
</svg>
