<svg width="48" height="48" viewBox="0 0 48 48" fill="none" xmlns="http://www.w3.org/2000/svg">
<g filter="url(#filter0_f_959_92708)">
<path d="M23.9994 38.3607C16.1715 38.3607 9.63867 31.8268 9.63867 24.0019C9.63867 16.1809 16.3203 9.63867 24.1522 9.63867C31.9759 9.63867 38.3607 16.1728 38.3607 24.0019C38.3607 31.8268 31.8273 38.3607 23.9994 38.3607ZM24.1522 10.7508C17.004 10.7508 10.7521 16.8474 10.7521 24.0019C10.7521 31.1521 16.847 37.2416 23.9994 37.2416C31.1512 37.2416 37.2428 31.1771 37.2428 24.0263C37.2428 16.882 31.3105 10.7508 24.1522 10.7508Z" fill="#F4DEFF" stroke="#C381F6" stroke-width="0.611333"/>
<path d="M23.9994 38.3607C16.1715 38.3607 9.63867 31.8268 9.63867 24.0019C9.63867 16.1809 16.3203 9.63867 24.1522 9.63867C31.9759 9.63867 38.3607 16.1728 38.3607 24.0019C38.3607 31.8268 31.8273 38.3607 23.9994 38.3607ZM24.1522 10.7508C17.004 10.7508 10.7521 16.8474 10.7521 24.0019C10.7521 31.1521 16.847 37.2416 23.9994 37.2416C31.1512 37.2416 37.2428 31.1771 37.2428 24.0263C37.2428 16.882 31.3105 10.7508 24.1522 10.7508Z" fill="#F7E6FF" stroke="#C381F6" stroke-width="0.611333"/>
<path d="M24 16.987L25.506 21.6221L25.5745 21.8329H25.7961H30.6698L26.7269 24.6975L26.5476 24.8278L26.6161 25.0385L28.1221 29.6736L24.1793 26.809L24 26.6787L23.8207 26.809L19.8779 29.6736L21.3839 25.0385L21.4524 24.8278L21.2731 24.6975L17.3302 21.8329H22.2039H22.4255L22.494 21.6221L24 16.987Z" fill="#F7E5FF" stroke="#C381F6" stroke-width="0.61"/>
</g>
<g filter="url(#filter1_d_959_92708)">
<path d="M23.9994 38.3607C16.1715 38.3607 9.63867 31.8268 9.63867 24.0019C9.63867 16.1809 16.3203 9.63867 24.1522 9.63867C31.9759 9.63867 38.3607 16.1728 38.3607 24.0019C38.3607 31.8268 31.8273 38.3607 23.9994 38.3607ZM24.1522 10.7508C17.004 10.7508 10.7521 16.8474 10.7521 24.0019C10.7521 31.1521 16.847 37.2416 23.9994 37.2416C31.1512 37.2416 37.2428 31.1771 37.2428 24.0263C37.2428 16.882 31.3105 10.7508 24.1522 10.7508Z" fill="#F4DEFF" stroke="#C381F6" stroke-width="0.611333"/>
<path d="M23.9994 38.3607C16.1715 38.3607 9.63867 31.8268 9.63867 24.0019C9.63867 16.1809 16.3203 9.63867 24.1522 9.63867C31.9759 9.63867 38.3607 16.1728 38.3607 24.0019C38.3607 31.8268 31.8273 38.3607 23.9994 38.3607ZM24.1522 10.7508C17.004 10.7508 10.7521 16.8474 10.7521 24.0019C10.7521 31.1521 16.847 37.2416 23.9994 37.2416C31.1512 37.2416 37.2428 31.1771 37.2428 24.0263C37.2428 16.882 31.3105 10.7508 24.1522 10.7508Z" fill="#F7E6FF" stroke="#C381F6" stroke-width="0.611333"/>
<path d="M24 16.987L25.506 21.6221L25.5745 21.8329H25.7961H30.6698L26.7269 24.6975L26.5476 24.8278L26.6161 25.0385L28.1221 29.6736L24.1793 26.809L24 26.6787L23.8207 26.809L19.8779 29.6736L21.3839 25.0385L21.4524 24.8278L21.2731 24.6975L17.3302 21.8329H22.2039H22.4255L22.494 21.6221L24 16.987Z" fill="#F7E5FF" stroke="#C381F6" stroke-width="0.61"/>
</g>
<defs>
<filter id="filter0_f_959_92708" x="7.83301" y="7.83301" width="32.3333" height="32.3333" filterUnits="userSpaceOnUse" color-interpolation-filters="sRGB">
<feFlood flood-opacity="0" result="BackgroundImageFix"/>
<feBlend mode="normal" in="SourceGraphic" in2="BackgroundImageFix" result="shape"/>
<feGaussianBlur stdDeviation="0.75" result="effect1_foregroundBlur_959_92708"/>
</filter>
<filter id="filter1_d_959_92708" x="0.333008" y="0.333008" width="47.3333" height="47.3333" filterUnits="userSpaceOnUse" color-interpolation-filters="sRGB">
<feFlood flood-opacity="0" result="BackgroundImageFix"/>
<feColorMatrix in="SourceAlpha" type="matrix" values="0 0 0 0 0 0 0 0 0 0 0 0 0 0 0 0 0 0 127 0" result="hardAlpha"/>
<feOffset/>
<feGaussianBlur stdDeviation="4.5"/>
<feComposite in2="hardAlpha" operator="out"/>
<feColorMatrix type="matrix" values="0 0 0 0 0.512333 0 0 0 0 0.129167 0 0 0 0 1 0 0 0 1 0"/>
<feBlend mode="normal" in2="BackgroundImageFix" result="effect1_dropShadow_959_92708"/>
<feBlend mode="normal" in="SourceGraphic" in2="effect1_dropShadow_959_92708" result="shape"/>
</filter>
</defs>
</svg>
