<svg width="32" height="32" viewBox="0 0 32 32" fill="none" xmlns="http://www.w3.org/2000/svg">
<path d="M15.9984 30.3609C8.17048 30.3609 1.6377 23.827 1.6377 16.0021C1.6377 8.18119 8.31932 1.63892 16.1512 1.63892C23.9749 1.63892 30.3597 8.17301 30.3597 16.0021C30.3597 23.8271 23.8263 30.3609 15.9984 30.3609ZM16.1512 2.75109C9.00305 2.75109 2.75113 8.84769 2.75113 16.0021C2.75113 23.1524 8.84598 29.2419 15.9984 29.2419C23.1502 29.2419 29.2418 23.1774 29.2418 16.0265C29.2418 8.88227 23.3095 2.75109 16.1512 2.75109Z" fill="#7643AA" stroke="#534296" stroke-width="0.611333"/>
<path d="M15.9984 30.3609C8.17048 30.3609 1.6377 23.827 1.6377 16.0021C1.6377 8.18119 8.31932 1.63892 16.1512 1.63892C23.9749 1.63892 30.3597 8.17301 30.3597 16.0021C30.3597 23.8271 23.8263 30.3609 15.9984 30.3609ZM16.1512 2.75109C9.00305 2.75109 2.75113 8.84769 2.75113 16.0021C2.75113 23.1524 8.84598 29.2419 15.9984 29.2419C23.1502 29.2419 29.2418 23.1774 29.2418 16.0265C29.2418 8.88227 23.3095 2.75109 16.1512 2.75109Z" fill="#7643AA" stroke="#534296" stroke-width="0.611333"/>
<path d="M16 8.987L17.506 13.6221L17.5745 13.8329H17.7961H22.6698L18.7269 16.6975L18.5476 16.8278L18.6161 17.0385L20.1221 21.6736L16.1793 18.809L16 18.6787L15.8207 18.809L11.8779 21.6736L13.3839 17.0385L13.4524 16.8278L13.2731 16.6975L9.33024 13.8329H14.2039H14.4255L14.494 13.6221L16 8.987Z" fill="#7643AA" stroke="#534296" stroke-width="0.61"/>
</svg>
