<svg width="376" height="56" viewBox="0 0 376 56" fill="none" xmlns="http://www.w3.org/2000/svg">
<path opacity="0.5" d="M356.844 53H17.6138L10 43V13L17.6138 3H356.844L366 12.591V43.8651L356.844 53Z" fill="#6608C1"/>
<path d="M19.5 53L2.61083 36.1844V19.8326L19.5 3H15.5L7.62939e-06 18.5616V37.1806L16 53H19.5Z" fill="#9659FB"/>
<path d="M6.00002 35.9785V20.3481L14.5881 28.9363L6.00002 35.9785Z" fill="#B98DFF"/>
<path d="M356.763 53.0005L373.389 36.3739V20.0222L356.5 3L360.254 3.00537L376 18.7511V37.3701L360.387 53.0005H356.763Z" fill="#9659FB"/>
<path d="M370.249 35.6304V20L361.661 28.5881L370.249 35.6304Z" fill="#B98DFF"/>
<path d="M145.805 28.1641H142.875L142.859 26.3672H145.234C145.661 26.3672 146.003 26.3203 146.258 26.2266C146.513 26.1276 146.698 25.9844 146.812 25.7969C146.932 25.6094 146.992 25.375 146.992 25.0938C146.992 24.7708 146.932 24.5104 146.812 24.3125C146.693 24.1146 146.503 23.9714 146.242 23.8828C145.987 23.7891 145.656 23.7422 145.25 23.7422H143.906V33H141.164V21.625H145.25C145.953 21.625 146.581 21.6901 147.133 21.8203C147.685 21.9453 148.154 22.138 148.539 22.3984C148.93 22.6589 149.227 22.987 149.43 23.3828C149.633 23.7734 149.734 24.2344 149.734 24.7656C149.734 25.2292 149.635 25.6641 149.438 26.0703C149.24 26.4766 148.909 26.8073 148.445 27.0625C147.987 27.3125 147.359 27.4427 146.562 27.4531L145.805 28.1641ZM145.695 33H142.211L143.148 30.8906H145.695C146.07 30.8906 146.37 30.8333 146.594 30.7188C146.823 30.599 146.987 30.4427 147.086 30.25C147.19 30.0521 147.242 29.8333 147.242 29.5938C147.242 29.3021 147.193 29.0495 147.094 28.8359C147 28.6224 146.849 28.4583 146.641 28.3438C146.432 28.224 146.154 28.1641 145.805 28.1641H143.5L143.516 26.3672H146.273L146.914 27.0859C147.674 27.0547 148.276 27.1615 148.719 27.4062C149.167 27.651 149.487 27.974 149.68 28.375C149.872 28.776 149.969 29.1953 149.969 29.6328C149.969 30.3776 149.807 31 149.484 31.5C149.167 32 148.69 32.375 148.055 32.625C147.419 32.875 146.633 33 145.695 33ZM154.406 21.625V33H151.672V21.625H154.406ZM165.641 26.9219V31.5938C165.448 31.8073 165.151 32.0365 164.75 32.2812C164.354 32.5208 163.854 32.7266 163.25 32.8984C162.646 33.0703 161.935 33.1562 161.117 33.1562C160.362 33.1562 159.677 33.0365 159.062 32.7969C158.448 32.5521 157.919 32.1953 157.477 31.7266C157.039 31.2526 156.701 30.6745 156.461 29.9922C156.227 29.3047 156.109 28.5182 156.109 27.6328V27C156.109 26.1146 156.229 25.3281 156.469 24.6406C156.708 23.9531 157.044 23.375 157.477 22.9062C157.914 22.4323 158.427 22.0729 159.016 21.8281C159.609 21.5833 160.26 21.4609 160.969 21.4609C162.016 21.4609 162.867 21.6276 163.523 21.9609C164.18 22.2891 164.677 22.7448 165.016 23.3281C165.354 23.9062 165.56 24.5755 165.633 25.3359H163C162.948 24.9609 162.849 24.6432 162.703 24.3828C162.562 24.1172 162.359 23.9167 162.094 23.7812C161.828 23.6406 161.484 23.5703 161.062 23.5703C160.734 23.5703 160.435 23.6406 160.164 23.7812C159.898 23.9219 159.672 24.1354 159.484 24.4219C159.297 24.7031 159.151 25.0573 159.047 25.4844C158.948 25.9115 158.898 26.4115 158.898 26.9844V27.6328C158.898 28.2005 158.945 28.6979 159.039 29.125C159.138 29.5521 159.284 29.9089 159.477 30.1953C159.674 30.4766 159.924 30.6901 160.227 30.8359C160.534 30.9766 160.896 31.0469 161.312 31.0469C161.604 31.0469 161.854 31.0234 162.062 30.9766C162.271 30.9245 162.443 30.862 162.578 30.7891C162.719 30.7109 162.826 30.638 162.898 30.5703V28.8047H160.992V26.9219H165.641ZM175.867 28.1641H172.938L172.922 26.3672H175.297C175.724 26.3672 176.065 26.3203 176.32 26.2266C176.576 26.1276 176.76 25.9844 176.875 25.7969C176.995 25.6094 177.055 25.375 177.055 25.0938C177.055 24.7708 176.995 24.5104 176.875 24.3125C176.755 24.1146 176.565 23.9714 176.305 23.8828C176.049 23.7891 175.719 23.7422 175.312 23.7422H173.969V33H171.227V21.625H175.312C176.016 21.625 176.643 21.6901 177.195 21.8203C177.747 21.9453 178.216 22.138 178.602 22.3984C178.992 22.6589 179.289 22.987 179.492 23.3828C179.695 23.7734 179.797 24.2344 179.797 24.7656C179.797 25.2292 179.698 25.6641 179.5 26.0703C179.302 26.4766 178.971 26.8073 178.508 27.0625C178.049 27.3125 177.422 27.4427 176.625 27.4531L175.867 28.1641ZM175.758 33H172.273L173.211 30.8906H175.758C176.133 30.8906 176.432 30.8333 176.656 30.7188C176.885 30.599 177.049 30.4427 177.148 30.25C177.253 30.0521 177.305 29.8333 177.305 29.5938C177.305 29.3021 177.255 29.0495 177.156 28.8359C177.062 28.6224 176.911 28.4583 176.703 28.3438C176.495 28.224 176.216 28.1641 175.867 28.1641H173.562L173.578 26.3672H176.336L176.977 27.0859C177.737 27.0547 178.339 27.1615 178.781 27.4062C179.229 27.651 179.549 27.974 179.742 28.375C179.935 28.776 180.031 29.1953 180.031 29.6328C180.031 30.3776 179.87 31 179.547 31.5C179.229 32 178.753 32.375 178.117 32.625C177.482 32.875 176.695 33 175.758 33ZM187.727 21.625H190.469V29.0547C190.469 29.9401 190.284 30.6901 189.914 31.3047C189.544 31.9141 189.026 32.375 188.359 32.6875C187.693 33 186.909 33.1562 186.008 33.1562C185.117 33.1562 184.333 33 183.656 32.6875C182.984 32.375 182.458 31.9141 182.078 31.3047C181.703 30.6901 181.516 29.9401 181.516 29.0547V21.625H184.266V29.0547C184.266 29.5234 184.333 29.9062 184.469 30.2031C184.604 30.4948 184.802 30.7083 185.062 30.8438C185.323 30.9792 185.638 31.0469 186.008 31.0469C186.383 31.0469 186.698 30.9792 186.953 30.8438C187.208 30.7083 187.401 30.4948 187.531 30.2031C187.661 29.9062 187.727 29.5234 187.727 29.0547V21.625ZM197.703 21.625V33H194.961V21.625H197.703ZM201.125 21.625V23.7422H191.617V21.625H201.125ZM207.922 21.625V33H205.18V21.625H207.922ZM211.344 21.625V23.7422H201.836V21.625H211.344ZM221.914 27.0859V27.5469C221.914 28.4167 221.792 29.1979 221.547 29.8906C221.307 30.5781 220.966 31.1667 220.523 31.6562C220.081 32.1406 219.557 32.513 218.953 32.7734C218.349 33.0286 217.682 33.1562 216.953 33.1562C216.219 33.1562 215.547 33.0286 214.938 32.7734C214.333 32.513 213.807 32.1406 213.359 31.6562C212.917 31.1667 212.573 30.5781 212.328 29.8906C212.089 29.1979 211.969 28.4167 211.969 27.5469V27.0859C211.969 26.2161 212.089 25.4349 212.328 24.7422C212.573 24.0495 212.914 23.4609 213.352 22.9766C213.794 22.487 214.318 22.1146 214.922 21.8594C215.531 21.599 216.203 21.4688 216.938 21.4688C217.667 21.4688 218.333 21.599 218.938 21.8594C219.547 22.1146 220.073 22.487 220.516 22.9766C220.958 23.4609 221.302 24.0495 221.547 24.7422C221.792 25.4349 221.914 26.2161 221.914 27.0859ZM219.133 27.5469V27.0703C219.133 26.5078 219.083 26.013 218.984 25.5859C218.891 25.1536 218.75 24.7917 218.562 24.5C218.375 24.2083 218.143 23.9896 217.867 23.8438C217.596 23.6927 217.286 23.6172 216.938 23.6172C216.573 23.6172 216.255 23.6927 215.984 23.8438C215.714 23.9896 215.487 24.2083 215.305 24.5C215.122 24.7917 214.984 25.1536 214.891 25.5859C214.802 26.013 214.758 26.5078 214.758 27.0703V27.5469C214.758 28.1042 214.802 28.599 214.891 29.0312C214.984 29.4583 215.122 29.8203 215.305 30.1172C215.492 30.4141 215.721 30.638 215.992 30.7891C216.268 30.9401 216.589 31.0156 216.953 31.0156C217.302 31.0156 217.612 30.9401 217.883 30.7891C218.154 30.638 218.38 30.4141 218.562 30.1172C218.75 29.8203 218.891 29.4583 218.984 29.0312C219.083 28.599 219.133 28.1042 219.133 27.5469ZM232.836 21.625V33H230.102L226.078 25.9219V33H223.336V21.625H226.078L230.102 28.7031V21.625H232.836Z" fill="#FCFCFC"/>
</svg>
