<svg width="114" height="32" viewBox="0 0 114 32" fill="none" xmlns="http://www.w3.org/2000/svg">
<path opacity="0.5" d="M105.688 32H7.82873L0 26V6L7.82873 0H105.688L114 6.4V25.6L105.688 32Z" fill="#9659FB"/>
<path d="M10.8914 21C10.5634 21 10.2634 20.92 9.99136 20.76C9.72736 20.6 9.51536 20.388 9.35536 20.124C9.19536 19.852 9.11536 19.552 9.11536 19.224V14.136C9.11536 13.808 9.19536 13.512 9.35536 13.248C9.51536 12.976 9.72736 12.76 9.99136 12.6C10.2634 12.44 10.5634 12.36 10.8914 12.36H17.7314V14.232H11.3714C11.2434 14.232 11.1434 14.264 11.0714 14.328C11.0074 14.392 10.9754 14.492 10.9754 14.628V18.732C10.9754 18.86 11.0074 18.96 11.0714 19.032C11.1434 19.096 11.2434 19.128 11.3714 19.128H17.7314V21H10.8914ZM20.7345 21C20.4145 21 20.1185 20.92 19.8465 20.76C19.5745 20.6 19.3585 20.384 19.1985 20.112C19.0385 19.84 18.9585 19.544 18.9585 19.224V14.136C18.9585 13.808 19.0385 13.512 19.1985 13.248C19.3585 12.976 19.5745 12.76 19.8465 12.6C20.1185 12.44 20.4145 12.36 20.7345 12.36H25.8225C26.1425 12.36 26.4345 12.44 26.6985 12.6C26.9705 12.76 27.1865 12.976 27.3465 13.248C27.5145 13.512 27.5985 13.808 27.5985 14.136V19.224C27.5985 19.544 27.5145 19.84 27.3465 20.112C27.1865 20.384 26.9705 20.6 26.6985 20.76C26.4345 20.92 26.1425 21 25.8225 21H20.7345ZM20.8185 19.128H25.7145V14.232H20.8185V19.128ZM28.92 21V12.36H30.84L33.768 15.852L36.684 12.36H38.616V21H36.744V15.204L33.768 18.756L30.78 15.216V21H28.92ZM39.7529 21V12.36H41.5889V21H39.7529ZM42.6193 21V12.36H44.5393L49.3753 18.12V12.36H51.2593V21H49.3393L44.4793 15.216V21H42.6193ZM54.3796 21C54.0596 21 53.7636 20.92 53.4916 20.76C53.2196 20.6 53.0036 20.384 52.8436 20.112C52.6836 19.84 52.6036 19.544 52.6036 19.224V14.136C52.6036 13.808 52.6836 13.512 52.8436 13.248C53.0036 12.976 53.2196 12.76 53.4916 12.6C53.7636 12.44 54.0596 12.36 54.3796 12.36H59.4556C59.7836 12.36 60.0796 12.44 60.3436 12.6C60.6156 12.76 60.8316 12.976 60.9916 13.248C61.1596 13.512 61.2436 13.808 61.2436 14.136V14.952H59.3596V14.232H54.4636V19.128H59.3596V17.832H57.4876V15.96H61.2436V19.224C61.2436 19.544 61.1596 19.84 60.9916 20.112C60.8316 20.384 60.6156 20.6 60.3436 20.76C60.0796 20.92 59.7836 21 59.4556 21H54.3796ZM68.1838 21C67.8638 21 67.5678 20.92 67.2958 20.76C67.0238 20.6 66.8078 20.384 66.6478 20.112C66.4878 19.84 66.4078 19.544 66.4078 19.224V18.42H68.2678V19.128H73.1638V17.616H68.1838C67.8638 17.616 67.5678 17.536 67.2958 17.376C67.0238 17.216 66.8078 17.004 66.6478 16.74C66.4878 16.468 66.4078 16.168 66.4078 15.84V14.136C66.4078 13.808 66.4878 13.512 66.6478 13.248C66.8078 12.976 67.0238 12.76 67.2958 12.6C67.5678 12.44 67.8638 12.36 68.1838 12.36H73.2718C73.5918 12.36 73.8838 12.44 74.1478 12.6C74.4198 12.76 74.6358 12.976 74.7958 13.248C74.9638 13.512 75.0478 13.808 75.0478 14.136V14.94H73.1638V14.232H68.2678V15.744H73.2718C73.5918 15.744 73.8838 15.824 74.1478 15.984C74.4198 16.144 74.6358 16.36 74.7958 16.632C74.9638 16.896 75.0478 17.192 75.0478 17.52V19.224C75.0478 19.544 74.9638 19.84 74.7958 20.112C74.6358 20.384 74.4198 20.6 74.1478 20.76C73.8838 20.92 73.5918 21 73.2718 21H68.1838ZM78.1213 21C77.8013 21 77.5053 20.92 77.2333 20.76C76.9613 20.6 76.7453 20.384 76.5853 20.112C76.4253 19.84 76.3453 19.544 76.3453 19.224V14.136C76.3453 13.808 76.4253 13.512 76.5853 13.248C76.7453 12.976 76.9613 12.76 77.2333 12.6C77.5053 12.44 77.8013 12.36 78.1213 12.36H83.2093C83.5293 12.36 83.8213 12.44 84.0853 12.6C84.3573 12.76 84.5733 12.976 84.7333 13.248C84.9013 13.512 84.9853 13.808 84.9853 14.136V19.224C84.9853 19.544 84.9013 19.84 84.7333 20.112C84.5733 20.384 84.3573 20.6 84.0853 20.76C83.8213 20.92 83.5293 21 83.2093 21H78.1213ZM78.2053 19.128H83.1013V14.232H78.2053V19.128ZM88.0588 21C87.7388 21 87.4428 20.92 87.1708 20.76C86.8988 20.6 86.6828 20.384 86.5228 20.112C86.3628 19.84 86.2828 19.544 86.2828 19.224V14.136C86.2828 13.808 86.3628 13.512 86.5228 13.248C86.6828 12.976 86.8988 12.76 87.1708 12.6C87.4428 12.44 87.7388 12.36 88.0588 12.36H93.1468C93.4668 12.36 93.7588 12.44 94.0228 12.6C94.2948 12.76 94.5108 12.976 94.6708 13.248C94.8388 13.512 94.9228 13.808 94.9228 14.136V19.224C94.9228 19.544 94.8388 19.84 94.6708 20.112C94.5108 20.384 94.2948 20.6 94.0228 20.76C93.7588 20.92 93.4668 21 93.1468 21H88.0588ZM88.1428 19.128H93.0388V14.232H88.1428V19.128ZM96.2443 21V12.36H98.1643L103 18.12V12.36H104.884V21H102.964L98.1043 15.216V21H96.2443Z" fill="#FCFCFC"/>
</svg>
