<svg width="153" height="80" viewBox="0 0 153 80" fill="none" xmlns="http://www.w3.org/2000/svg">
<g filter="url(#filter0_d_116_18143)">
<rect x="16" y="12" width="121" height="48" rx="8" fill="#6608C1"/>
</g>
<path d="M55.7266 37.9766C55.7266 37.7995 55.7005 37.6406 55.6484 37.5C55.5964 37.3542 55.5 37.2188 55.3594 37.0938C55.2188 36.9688 55.0156 36.8438 54.75 36.7188C54.4896 36.5885 54.1458 36.4531 53.7188 36.3125C53.2188 36.1458 52.737 35.9583 52.2734 35.75C51.8099 35.5365 51.3958 35.2891 51.0312 35.0078C50.6667 34.7214 50.3776 34.388 50.1641 34.0078C49.9505 33.6224 49.8438 33.1745 49.8438 32.6641C49.8438 32.1745 49.9531 31.7344 50.1719 31.3438C50.3906 30.9479 50.6953 30.612 51.0859 30.3359C51.4818 30.0547 51.9453 29.8411 52.4766 29.6953C53.0078 29.5443 53.5885 29.4688 54.2188 29.4688C55.0521 29.4688 55.7865 29.6146 56.4219 29.9062C57.0625 30.1927 57.5625 30.6016 57.9219 31.1328C58.2865 31.6589 58.4688 32.2812 58.4688 33H55.7422C55.7422 32.7135 55.6823 32.4609 55.5625 32.2422C55.4479 32.0234 55.2734 31.8516 55.0391 31.7266C54.8047 31.6016 54.5104 31.5391 54.1562 31.5391C53.8125 31.5391 53.5234 31.5911 53.2891 31.6953C53.0547 31.7995 52.8776 31.9401 52.7578 32.1172C52.638 32.2891 52.5781 32.4792 52.5781 32.6875C52.5781 32.8594 52.625 33.0156 52.7188 33.1562C52.8177 33.2917 52.9557 33.4193 53.1328 33.5391C53.3151 33.6589 53.5339 33.7734 53.7891 33.8828C54.0495 33.9922 54.3411 34.099 54.6641 34.2031C55.2682 34.3958 55.8047 34.612 56.2734 34.8516C56.7474 35.0859 57.1458 35.3542 57.4688 35.6562C57.7969 35.9531 58.0443 36.2917 58.2109 36.6719C58.3828 37.0521 58.4688 37.4818 58.4688 37.9609C58.4688 38.4714 58.3698 38.9245 58.1719 39.3203C57.974 39.7161 57.6901 40.0521 57.3203 40.3281C56.9505 40.599 56.5078 40.8047 55.9922 40.9453C55.4766 41.0859 54.901 41.1562 54.2656 41.1562C53.6823 41.1562 53.1068 41.0833 52.5391 40.9375C51.9766 40.7865 51.4661 40.5573 51.0078 40.25C50.5495 39.9375 50.1823 39.5391 49.9062 39.0547C49.6354 38.5651 49.5 37.9844 49.5 37.3125H52.25C52.25 37.6458 52.2943 37.9271 52.3828 38.1562C52.4714 38.3854 52.6016 38.5703 52.7734 38.7109C52.9453 38.8464 53.1562 38.9453 53.4062 39.0078C53.6562 39.0651 53.9427 39.0938 54.2656 39.0938C54.6146 39.0938 54.8958 39.0443 55.1094 38.9453C55.3229 38.8411 55.4792 38.7057 55.5781 38.5391C55.6771 38.3672 55.7266 38.1797 55.7266 37.9766ZM62.5391 32.5469V41H59.8984V32.5469H62.5391ZM59.7422 30.3672C59.7422 29.9922 59.8776 29.6849 60.1484 29.4453C60.4193 29.2057 60.7708 29.0859 61.2031 29.0859C61.6354 29.0859 61.987 29.2057 62.2578 29.4453C62.5286 29.6849 62.6641 29.9922 62.6641 30.3672C62.6641 30.7422 62.5286 31.0495 62.2578 31.2891C61.987 31.5286 61.6354 31.6484 61.2031 31.6484C60.7708 31.6484 60.4193 31.5286 60.1484 31.2891C59.8776 31.0495 59.7422 30.7422 59.7422 30.3672ZM69.4766 32.5469H71.8672V40.6719C71.8672 41.4531 71.6875 42.1146 71.3281 42.6562C70.9688 43.2031 70.4661 43.6172 69.8203 43.8984C69.1797 44.1849 68.4297 44.3281 67.5703 44.3281C67.1901 44.3281 66.8021 44.2786 66.4062 44.1797C66.0104 44.0859 65.6406 43.9453 65.2969 43.7578C64.9531 43.5703 64.6641 43.3385 64.4297 43.0625L65.5312 41.5156C65.7448 41.7552 66.013 41.9583 66.3359 42.125C66.6589 42.2969 67.0391 42.3828 67.4766 42.3828C67.8568 42.3828 68.1745 42.3151 68.4297 42.1797C68.6901 42.0443 68.888 41.8464 69.0234 41.5859C69.1589 41.3307 69.2266 41.0208 69.2266 40.6562V34.5469L69.4766 32.5469ZM63.8594 36.875V36.7109C63.8594 36.0703 63.9375 35.487 64.0938 34.9609C64.2552 34.4297 64.4844 33.974 64.7812 33.5938C65.0833 33.2083 65.4479 32.9115 65.875 32.7031C66.3021 32.4948 66.7839 32.3906 67.3203 32.3906C67.8984 32.3906 68.3724 32.5026 68.7422 32.7266C69.1172 32.9453 69.4167 33.2526 69.6406 33.6484C69.8698 34.0443 70.0469 34.5078 70.1719 35.0391C70.3021 35.5651 70.4115 36.1328 70.5 36.7422V36.9375C70.4115 37.5104 70.2891 38.0521 70.1328 38.5625C69.9818 39.0677 69.7839 39.5156 69.5391 39.9062C69.2943 40.2969 68.987 40.6042 68.6172 40.8281C68.2526 41.0469 67.8151 41.1562 67.3047 41.1562C66.7734 41.1562 66.2943 41.0495 65.8672 40.8359C65.4453 40.6224 65.0833 40.3229 64.7812 39.9375C64.4844 39.5521 64.2552 39.099 64.0938 38.5781C63.9375 38.0573 63.8594 37.4896 63.8594 36.875ZM66.4922 36.7109V36.875C66.4922 37.1927 66.5208 37.487 66.5781 37.7578C66.6406 38.0286 66.7344 38.2682 66.8594 38.4766C66.9844 38.6797 67.138 38.8385 67.3203 38.9531C67.5078 39.0677 67.7266 39.125 67.9766 39.125C68.3568 39.125 68.6641 39.0443 68.8984 38.8828C69.1328 38.7214 69.3021 38.4922 69.4062 38.1953C69.5104 37.8984 69.5547 37.5495 69.5391 37.1484V36.5312C69.5495 36.1875 69.526 35.8854 69.4688 35.625C69.4115 35.3594 69.3203 35.138 69.1953 34.9609C69.0755 34.7839 68.9141 34.651 68.7109 34.5625C68.513 34.4688 68.2734 34.4219 67.9922 34.4219C67.7474 34.4219 67.5312 34.4792 67.3438 34.5938C67.1562 34.7083 67 34.8698 66.875 35.0781C66.75 35.2812 66.6536 35.5234 66.5859 35.8047C66.5234 36.0807 66.4922 36.3828 66.4922 36.7109ZM75.9688 34.3516V41H73.3359V32.5469H75.8047L75.9688 34.3516ZM75.6562 36.4844L75.0391 36.5C75.0391 35.8542 75.1172 35.2786 75.2734 34.7734C75.4297 34.263 75.651 33.8307 75.9375 33.4766C76.224 33.1224 76.5651 32.8542 76.9609 32.6719C77.362 32.4844 77.8073 32.3906 78.2969 32.3906C78.6875 32.3906 79.0443 32.4479 79.3672 32.5625C79.6953 32.6771 79.9766 32.862 80.2109 33.1172C80.4505 33.3724 80.6328 33.7109 80.7578 34.1328C80.888 34.5495 80.9531 35.0651 80.9531 35.6797V41H78.3047V35.6719C78.3047 35.3333 78.2578 35.0755 78.1641 34.8984C78.0703 34.7161 77.9349 34.5911 77.7578 34.5234C77.5807 34.4557 77.3646 34.4219 77.1094 34.4219C76.8385 34.4219 76.6094 34.474 76.4219 34.5781C76.2344 34.6823 76.0833 34.8281 75.9688 35.0156C75.8594 35.1979 75.7786 35.4141 75.7266 35.6641C75.6797 35.9141 75.6562 36.1875 75.6562 36.4844ZM91.3359 38.9453V32.5469H93.9766V41H91.5078L91.3359 38.9453ZM91.5859 37.2266L92.2734 37.2109C92.2734 37.7786 92.2057 38.3047 92.0703 38.7891C91.9349 39.2682 91.7344 39.6849 91.4688 40.0391C91.2083 40.3932 90.8854 40.6693 90.5 40.8672C90.1198 41.0599 89.6797 41.1562 89.1797 41.1562C88.763 41.1562 88.3802 41.099 88.0312 40.9844C87.6875 40.8646 87.3906 40.6797 87.1406 40.4297C86.8906 40.1745 86.6953 39.849 86.5547 39.4531C86.4193 39.0521 86.3516 38.5729 86.3516 38.0156V32.5469H88.9844V38.0312C88.9844 38.2188 89.0078 38.3802 89.0547 38.5156C89.1016 38.651 89.1693 38.7656 89.2578 38.8594C89.3464 38.9479 89.4557 39.0156 89.5859 39.0625C89.7214 39.1042 89.875 39.125 90.0469 39.125C90.4427 39.125 90.7526 39.0417 90.9766 38.875C91.2005 38.7083 91.3568 38.4818 91.4453 38.1953C91.5391 37.9089 91.5859 37.5859 91.5859 37.2266ZM98.0859 34.1719V44.25H95.4531V32.5469H97.9062L98.0859 34.1719ZM103.273 36.6719V36.8359C103.273 37.4505 103.203 38.0208 103.062 38.5469C102.922 39.0729 102.714 39.5312 102.438 39.9219C102.161 40.3125 101.818 40.6172 101.406 40.8359C101 41.0495 100.529 41.1562 99.9922 41.1562C99.487 41.1562 99.0521 41.0443 98.6875 40.8203C98.3229 40.5964 98.0182 40.2865 97.7734 39.8906C97.5286 39.4948 97.3307 39.0417 97.1797 38.5312C97.0286 38.0208 96.9089 37.4818 96.8203 36.9141V36.7031C96.9089 36.0938 97.0286 35.5286 97.1797 35.0078C97.3307 34.4818 97.5286 34.0234 97.7734 33.6328C98.0182 33.2422 98.3203 32.9375 98.6797 32.7188C99.0443 32.5 99.4792 32.3906 99.9844 32.3906C100.521 32.3906 100.992 32.4922 101.398 32.6953C101.81 32.8984 102.154 33.1901 102.43 33.5703C102.711 33.9453 102.922 34.3958 103.062 34.9219C103.203 35.4479 103.273 36.0312 103.273 36.6719ZM100.641 36.8359V36.6719C100.641 36.3438 100.617 36.0443 100.57 35.7734C100.523 35.4974 100.448 35.2578 100.344 35.0547C100.245 34.8516 100.112 34.6953 99.9453 34.5859C99.7786 34.4766 99.5729 34.4219 99.3281 34.4219C99.0469 34.4219 98.8099 34.4661 98.6172 34.5547C98.4297 34.638 98.2786 34.7682 98.1641 34.9453C98.0547 35.1172 97.9766 35.3333 97.9297 35.5938C97.888 35.849 97.8698 36.1484 97.875 36.4922V37.1328C97.8646 37.5286 97.9036 37.8776 97.9922 38.1797C98.0807 38.4766 98.2344 38.7083 98.4531 38.875C98.6719 39.0417 98.9688 39.125 99.3438 39.125C99.5938 39.125 99.8021 39.0677 99.9688 38.9531C100.135 38.8333 100.268 38.6693 100.367 38.4609C100.466 38.2474 100.536 38.0026 100.578 37.7266C100.62 37.4505 100.641 37.1536 100.641 36.8359Z" fill="#FCFCFC"/>
<defs>
<filter id="filter0_d_116_18143" x="0" y="0" width="153" height="80" filterUnits="userSpaceOnUse" color-interpolation-filters="sRGB">
<feFlood flood-opacity="0" result="BackgroundImageFix"/>
<feColorMatrix in="SourceAlpha" type="matrix" values="0 0 0 0 0 0 0 0 0 0 0 0 0 0 0 0 0 0 127 0" result="hardAlpha"/>
<feOffset dy="4"/>
<feGaussianBlur stdDeviation="8"/>
<feComposite in2="hardAlpha" operator="out"/>
<feColorMatrix type="matrix" values="0 0 0 0 0.518902 0 0 0 0 0.168627 0 0 0 0 0.964706 0 0 0 0.5 0"/>
<feBlend mode="normal" in2="BackgroundImageFix" result="effect1_dropShadow_116_18143"/>
<feBlend mode="normal" in="SourceGraphic" in2="effect1_dropShadow_116_18143" result="shape"/>
</filter>
</defs>
</svg>
