<svg width="64" height="64" viewBox="0 0 64 64" fill="none" xmlns="http://www.w3.org/2000/svg">
<g clip-path="url(#clip0_959_91685)">
<rect width="64" height="64" rx="32" transform="matrix(1 0 0 -1 0 64)" fill="#040404"/>
<g filter="url(#filter0_d_959_91685)">
<path d="M21.0076 39.0597L27.1996 33.0597L30.9778 28.5524C31.5107 27.9167 32.4885 27.9167 33.0214 28.5524L36.7996 33.0597L42.9916 39.0597C43.893 39.9048 45.1037 40.3756 46.3627 40.3706C47.6217 40.3655 48.8282 39.885 49.7223 39.0326C50.6163 38.1802 51.1262 37.0242 51.1422 35.8137C51.1581 34.6032 50.6788 33.4351 49.8075 32.5612L35.4076 18.6135C34.9614 18.1809 34.4305 17.8376 33.8456 17.6033C33.2606 17.369 32.6332 17.2483 31.9996 17.2483C31.3659 17.2483 30.7385 17.369 30.1536 17.6033C29.5687 17.8376 29.0378 18.1809 28.5916 18.6135L14.1916 32.5612C13.3204 33.4351 12.841 34.6032 12.857 35.8137C12.8729 37.0242 13.3829 38.1802 14.2769 39.0326C15.171 39.885 16.3775 40.3655 17.6365 40.3706C18.8955 40.3756 20.1062 39.9049 21.0076 39.0597Z" fill="#F7E5FF"/>
<path d="M34.6486 19.3971L34.6482 19.3968C34.3053 19.0643 33.895 18.7983 33.4399 18.6159C32.9847 18.4336 32.4951 18.3392 31.9996 18.3392C31.5041 18.3392 31.0145 18.4336 30.5593 18.6159C30.1042 18.7983 29.6939 19.0643 29.3509 19.3968L29.3506 19.3971L14.9579 33.3378C14.2935 34.0075 13.9358 34.8918 13.9478 35.7993C13.9598 36.7098 14.3431 37.5885 15.0297 38.243C15.7177 38.899 16.6547 39.2757 17.6409 39.2797C18.6242 39.2836 19.5621 38.9166 20.2554 38.2696L26.3999 32.3156L30.1417 27.8516C31.1106 26.6957 32.8886 26.6957 33.8575 27.8516L37.5993 32.3156L43.7438 38.2696C44.4371 38.9166 45.375 39.2836 46.3583 39.2797C47.3445 39.2757 48.2815 38.899 48.9695 38.243C49.6561 37.5885 50.0394 36.7098 50.0514 35.7993C50.0633 34.8917 49.7057 34.0074 49.0413 33.3378L34.6486 19.3971Z" stroke="#C381F6" stroke-width="2.18182"/>
</g>
<g filter="url(#filter1_d_959_91685)">
<path d="M34.74 19.3032L34.7397 19.3029C34.3843 18.9584 33.9595 18.683 33.4889 18.4945C33.0181 18.3059 32.5119 18.2084 31.9999 18.2084C31.4878 18.2084 30.9817 18.3059 30.5109 18.4945C30.0402 18.683 29.6154 18.9584 29.2601 19.3029L29.2598 19.3032L14.8663 33.2446C14.1771 33.9388 13.8048 34.8572 13.8172 35.8011C13.8297 36.7476 14.2282 37.6595 14.9397 38.3379C15.6524 39.0174 16.6217 39.4065 17.6407 39.4106C18.657 39.4147 19.6276 39.0353 20.3459 38.3645L26.5173 32.3844L30.3361 28.359C31.2405 27.4057 32.7593 27.4057 33.6636 28.359L37.4824 32.3844L43.654 38.3646C44.3722 39.0353 45.3428 39.4147 46.3591 39.4106C47.378 39.4065 48.3474 39.0174 49.0601 38.3379C49.7716 37.6595 50.1701 36.7476 50.1826 35.8011C50.195 34.8572 49.8228 33.9389 49.1336 33.2447L34.74 19.3032Z" stroke="#C381F6" stroke-width="1.92" shape-rendering="crispEdges"/>
</g>
</g>
<defs>
<filter id="filter0_d_959_91685" x="-30.3436" y="-25.9517" width="124.686" height="109.522" filterUnits="userSpaceOnUse" color-interpolation-filters="sRGB">
<feFlood flood-opacity="0" result="BackgroundImageFix"/>
<feColorMatrix in="SourceAlpha" type="matrix" values="0 0 0 0 0 0 0 0 0 0 0 0 0 0 0 0 0 0 127 0" result="hardAlpha"/>
<feOffset/>
<feGaussianBlur stdDeviation="21.6"/>
<feComposite in2="hardAlpha" operator="out"/>
<feColorMatrix type="matrix" values="0 0 0 0 0.512333 0 0 0 0 0.129167 0 0 0 0 1 0 0 0 1 0"/>
<feBlend mode="normal" in2="BackgroundImageFix" result="effect1_dropShadow_959_91685"/>
<feBlend mode="normal" in="SourceGraphic" in2="effect1_dropShadow_959_91685" result="shape"/>
</filter>
<filter id="filter1_d_959_91685" x="-15.9431" y="-11.5517" width="95.8861" height="80.7223" filterUnits="userSpaceOnUse" color-interpolation-filters="sRGB">
<feFlood flood-opacity="0" result="BackgroundImageFix"/>
<feColorMatrix in="SourceAlpha" type="matrix" values="0 0 0 0 0 0 0 0 0 0 0 0 0 0 0 0 0 0 127 0" result="hardAlpha"/>
<feOffset/>
<feGaussianBlur stdDeviation="14.4"/>
<feComposite in2="hardAlpha" operator="out"/>
<feColorMatrix type="matrix" values="0 0 0 0 0.512333 0 0 0 0 0.129167 0 0 0 0 1 0 0 0 1 0"/>
<feBlend mode="normal" in2="BackgroundImageFix" result="effect1_dropShadow_959_91685"/>
<feBlend mode="normal" in="SourceGraphic" in2="effect1_dropShadow_959_91685" result="shape"/>
</filter>
<clipPath id="clip0_959_91685">
<rect width="64" height="64" rx="32" transform="matrix(1 0 0 -1 0 64)" fill="white"/>
</clipPath>
</defs>
</svg>
